<svg width="360" height="392" viewBox="0 0 360 392" fill="none" xmlns="http://www.w3.org/2000/svg">
<line y1="29.5" x2="360" y2="29.5" stroke="#FFCC00" stroke-width="5"/>
<line x1="4" y1="89.5" x2="355" y2="89.5" stroke="#FFCC00" stroke-width="5"/>
<line x1="4" y1="149.5" x2="355" y2="149.5" stroke="#FFCC00" stroke-width="5"/>
<line x1="4" y1="209.5" x2="355" y2="209.5" stroke="#FFCC00" stroke-width="5"/>
<line x1="4" y1="269.5" x2="355" y2="269.5" stroke="#FFCC00" stroke-width="5"/>
<line x1="4" y1="329.5" x2="355" y2="329.5" stroke="#FFCC00" stroke-width="5"/>
<line x1="3" y1="389.5" x2="355" y2="389.5" stroke="#FFCC00" stroke-width="5"/>
<line x1="57.5" y1="32" x2="57.5" y2="392" stroke="#FFCC00" stroke-width="5"/>
<line x1="107.5" y1="32" x2="107.5" y2="392" stroke="#FFCC00" stroke-width="5"/>
<line x1="157.5" y1="32" x2="157.5" y2="392" stroke="#FFCC00" stroke-width="5"/>
<line x1="207.5" y1="31" x2="207.5" y2="392" stroke="#FFCC00" stroke-width="5"/>
<line x1="257.5" y1="29" x2="257.5" y2="392" stroke="#FFCC00" stroke-width="5"/>
<line x1="307.5" y1="29" x2="307.5" y2="392" stroke="#FFCC00" stroke-width="5"/>
<line x1="2.5" y1="392" x2="2.5" y2="29" stroke="#FFCC00" stroke-width="5"/>
<line x1="357.5" y1="29" x2="357.5" y2="392" stroke="#FFCC00" stroke-width="5"/>
<circle cx="132" cy="121" r="20" fill="#3DBD3D"/>
<circle cx="132" cy="182" r="20" fill="#3DBD3D"/>
<circle cx="132" cy="299" r="20" fill="#3DBD3D"/>
<path d="M19.0549 69.7294V67.8394L23.9149 63.2494C24.2989 62.9014 24.5809 62.5894 24.7609 62.3134C24.9409 62.0374 25.0609 61.7854 25.1209 61.5574C25.1929 61.3294 25.2289 61.1194 25.2289 60.9274C25.2289 60.4234 25.0549 60.0394 24.7069 59.7754C24.3709 59.4994 23.8729 59.3614 23.2129 59.3614C22.6849 59.3614 22.1929 59.4634 21.7369 59.6674C21.2929 59.8714 20.9149 60.1894 20.6029 60.6214L18.4789 59.2534C18.9589 58.5334 19.6309 57.9634 20.4949 57.5434C21.3589 57.1234 22.3549 56.9134 23.4829 56.9134C24.4189 56.9134 25.2349 57.0694 25.9309 57.3814C26.6389 57.6814 27.1849 58.1074 27.5689 58.6594C27.9649 59.2114 28.1629 59.8714 28.1629 60.6394C28.1629 61.0474 28.1089 61.4554 28.0009 61.8634C27.9049 62.2594 27.7009 62.6794 27.3889 63.1234C27.0889 63.5674 26.6449 64.0654 26.0569 64.6174L22.0249 68.4154L21.4669 67.3534H28.5769V69.7294H19.0549ZM35.4141 69.9454C34.2621 69.9454 33.2601 69.7054 32.4081 69.2254C31.5681 68.7454 30.9201 68.0434 30.4641 67.1194C30.0081 66.1954 29.7801 65.0554 29.7801 63.6994C29.7801 62.2474 30.0501 61.0174 30.5901 60.0094C31.1421 59.0014 31.8981 58.2334 32.8581 57.7054C33.8301 57.1774 34.9461 56.9134 36.2061 56.9134C36.8781 56.9134 37.5201 56.9854 38.1321 57.1294C38.7441 57.2734 39.2721 57.4894 39.7161 57.7774L38.6361 59.9194C38.2881 59.6794 37.9161 59.5174 37.5201 59.4334C37.1241 59.3374 36.7101 59.2894 36.2781 59.2894C35.1861 59.2894 34.3221 59.6194 33.6861 60.2794C33.0501 60.9394 32.7321 61.9174 32.7321 63.2134C32.7321 63.4294 32.7321 63.6694 32.7321 63.9334C32.7441 64.1974 32.7801 64.4614 32.8401 64.7254L32.0301 63.9694C32.2581 63.5014 32.5521 63.1114 32.9121 62.7994C33.2721 62.4754 33.6981 62.2354 34.1901 62.0794C34.6941 61.9114 35.2461 61.8274 35.8461 61.8274C36.6621 61.8274 37.3941 61.9894 38.0421 62.3134C38.6901 62.6374 39.2061 63.0934 39.5901 63.6814C39.9861 64.2694 40.1841 64.9594 40.1841 65.7514C40.1841 66.6034 39.9681 67.3474 39.5361 67.9834C39.1161 68.6074 38.5461 69.0934 37.8261 69.4414C37.1181 69.7774 36.3141 69.9454 35.4141 69.9454ZM35.2521 67.7674C35.6601 67.7674 36.0201 67.6954 36.3321 67.5514C36.6561 67.3954 36.9081 67.1734 37.0881 66.8854C37.2681 66.5974 37.3581 66.2674 37.3581 65.8954C37.3581 65.3194 37.1601 64.8634 36.7641 64.5274C36.3801 64.1794 35.8641 64.0054 35.2161 64.0054C34.7841 64.0054 34.4061 64.0894 34.0821 64.2574C33.7581 64.4134 33.5001 64.6354 33.3081 64.9234C33.1281 65.1994 33.0381 65.5234 33.0381 65.8954C33.0381 66.2554 33.1281 66.5794 33.3081 66.8674C33.4881 67.1434 33.7401 67.3654 34.0641 67.5334C34.3881 67.6894 34.7841 67.7674 35.2521 67.7674Z" fill="black"/>
<path d="M70.7044 69.412V67.522L75.5644 62.932C75.9484 62.584 76.2304 62.272 76.4104 61.996C76.5904 61.72 76.7104 61.468 76.7704 61.24C76.8424 61.012 76.8784 60.802 76.8784 60.61C76.8784 60.106 76.7044 59.722 76.3564 59.458C76.0204 59.182 75.5224 59.044 74.8624 59.044C74.3344 59.044 73.8424 59.146 73.3864 59.35C72.9424 59.554 72.5644 59.872 72.2524 60.304L70.1284 58.936C70.6084 58.216 71.2804 57.646 72.1444 57.226C73.0084 56.806 74.0044 56.596 75.1324 56.596C76.0684 56.596 76.8844 56.752 77.5804 57.064C78.2884 57.364 78.8344 57.79 79.2184 58.342C79.6144 58.894 79.8124 59.554 79.8124 60.322C79.8124 60.73 79.7584 61.138 79.6504 61.546C79.5544 61.942 79.3504 62.362 79.0384 62.806C78.7384 63.25 78.2944 63.748 77.7064 64.3L73.6744 68.098L73.1164 67.036H80.2264V69.412H70.7044ZM83.4455 69.412L88.5215 57.928L89.2775 59.188H82.4915L83.7875 57.82V61.24H81.1955V56.812H91.2935V58.702L86.6135 69.412H83.4455Z" fill="black"/>
<path d="M119.844 69.412V67.522L124.704 62.932C125.088 62.584 125.37 62.272 125.55 61.996C125.73 61.72 125.85 61.468 125.91 61.24C125.982 61.012 126.018 60.802 126.018 60.61C126.018 60.106 125.844 59.722 125.496 59.458C125.16 59.182 124.662 59.044 124.002 59.044C123.474 59.044 122.982 59.146 122.526 59.35C122.082 59.554 121.704 59.872 121.392 60.304L119.268 58.936C119.748 58.216 120.42 57.646 121.284 57.226C122.148 56.806 123.144 56.596 124.272 56.596C125.208 56.596 126.024 56.752 126.72 57.064C127.428 57.364 127.974 57.79 128.358 58.342C128.754 58.894 128.952 59.554 128.952 60.322C128.952 60.73 128.898 61.138 128.79 61.546C128.694 61.942 128.49 62.362 128.178 62.806C127.878 63.25 127.434 63.748 126.846 64.3L122.814 68.098L122.256 67.036H129.366V69.412H119.844ZM135.789 69.628C134.733 69.628 133.809 69.472 133.017 69.16C132.225 68.836 131.607 68.386 131.163 67.81C130.719 67.222 130.497 66.538 130.497 65.758C130.497 64.978 130.713 64.318 131.145 63.778C131.589 63.226 132.207 62.812 132.999 62.536C133.791 62.248 134.721 62.104 135.789 62.104C136.869 62.104 137.805 62.248 138.597 62.536C139.401 62.812 140.019 63.226 140.451 63.778C140.895 64.318 141.117 64.978 141.117 65.758C141.117 66.538 140.895 67.222 140.451 67.81C140.007 68.386 139.383 68.836 138.579 69.16C137.787 69.472 136.857 69.628 135.789 69.628ZM135.789 67.486C136.521 67.486 137.097 67.324 137.517 67C137.949 66.676 138.165 66.232 138.165 65.668C138.165 65.104 137.949 64.666 137.517 64.354C137.097 64.03 136.521 63.868 135.789 63.868C135.069 63.868 134.499 64.03 134.079 64.354C133.659 64.666 133.449 65.104 133.449 65.668C133.449 66.232 133.659 66.676 134.079 67C134.499 67.324 135.069 67.486 135.789 67.486ZM135.789 63.58C134.817 63.58 133.965 63.448 133.233 63.184C132.513 62.92 131.949 62.536 131.541 62.032C131.145 61.516 130.947 60.904 130.947 60.196C130.947 59.452 131.151 58.816 131.559 58.288C131.967 57.748 132.537 57.334 133.269 57.046C134.001 56.746 134.841 56.596 135.789 56.596C136.761 56.596 137.607 56.746 138.327 57.046C139.059 57.334 139.629 57.748 140.037 58.288C140.457 58.816 140.667 59.452 140.667 60.196C140.667 60.904 140.463 61.516 140.055 62.032C139.659 62.536 139.095 62.92 138.363 63.184C137.631 63.448 136.773 63.58 135.789 63.58ZM135.789 61.87C136.401 61.87 136.881 61.732 137.229 61.456C137.589 61.18 137.769 60.802 137.769 60.322C137.769 59.818 137.583 59.428 137.211 59.152C136.851 58.876 136.377 58.738 135.789 58.738C135.213 58.738 134.745 58.876 134.385 59.152C134.025 59.428 133.845 59.818 133.845 60.322C133.845 60.802 134.019 61.18 134.367 61.456C134.715 61.732 135.189 61.87 135.789 61.87Z" fill="black"/>
<path d="M171.055 69.412V67.522L175.915 62.932C176.299 62.584 176.581 62.272 176.761 61.996C176.941 61.72 177.061 61.468 177.121 61.24C177.193 61.012 177.229 60.802 177.229 60.61C177.229 60.106 177.055 59.722 176.707 59.458C176.371 59.182 175.873 59.044 175.213 59.044C174.685 59.044 174.193 59.146 173.737 59.35C173.293 59.554 172.915 59.872 172.603 60.304L170.479 58.936C170.959 58.216 171.631 57.646 172.495 57.226C173.359 56.806 174.355 56.596 175.483 56.596C176.419 56.596 177.235 56.752 177.931 57.064C178.639 57.364 179.185 57.79 179.569 58.342C179.965 58.894 180.163 59.554 180.163 60.322C180.163 60.73 180.109 61.138 180.001 61.546C179.905 61.942 179.701 62.362 179.389 62.806C179.089 63.25 178.645 63.748 178.057 64.3L174.025 68.098L173.467 67.036H180.577V69.412H171.055ZM186.208 56.596C187.372 56.596 188.374 56.836 189.214 57.316C190.054 57.796 190.702 58.498 191.158 59.422C191.614 60.334 191.842 61.474 191.842 62.842C191.842 64.294 191.566 65.524 191.014 66.532C190.474 67.54 189.724 68.308 188.764 68.836C187.804 69.364 186.688 69.628 185.416 69.628C184.756 69.628 184.12 69.556 183.508 69.412C182.896 69.268 182.368 69.052 181.924 68.764L183.004 66.622C183.352 66.862 183.724 67.03 184.12 67.126C184.516 67.21 184.93 67.252 185.362 67.252C186.442 67.252 187.3 66.922 187.936 66.262C188.584 65.602 188.908 64.624 188.908 63.328C188.908 63.112 188.902 62.872 188.89 62.608C188.878 62.344 188.848 62.08 188.8 61.816L189.592 62.572C189.388 63.04 189.1 63.436 188.728 63.76C188.356 64.072 187.924 64.312 187.432 64.48C186.94 64.636 186.388 64.714 185.776 64.714C184.972 64.714 184.24 64.552 183.58 64.228C182.932 63.904 182.41 63.448 182.014 62.86C181.63 62.272 181.438 61.582 181.438 60.79C181.438 59.926 181.648 59.182 182.068 58.558C182.5 57.934 183.076 57.454 183.796 57.118C184.528 56.77 185.332 56.596 186.208 56.596ZM186.388 58.774C185.968 58.774 185.602 58.852 185.29 59.008C184.978 59.152 184.732 59.368 184.552 59.656C184.372 59.932 184.282 60.262 184.282 60.646C184.282 61.222 184.474 61.684 184.858 62.032C185.254 62.368 185.776 62.536 186.424 62.536C186.844 62.536 187.216 62.458 187.54 62.302C187.876 62.134 188.134 61.906 188.314 61.618C188.494 61.33 188.584 61.006 188.584 60.646C188.584 60.286 188.494 59.968 188.314 59.692C188.146 59.404 187.9 59.182 187.576 59.026C187.252 58.858 186.856 58.774 186.388 58.774Z" fill="black"/>
<path d="M276.937 69.628C276.061 69.628 275.191 69.514 274.327 69.286C273.463 69.046 272.731 68.71 272.131 68.278L273.265 66.046C273.745 66.394 274.303 66.67 274.939 66.874C275.575 67.078 276.217 67.18 276.865 67.18C277.597 67.18 278.173 67.036 278.593 66.748C279.013 66.46 279.223 66.064 279.223 65.56C279.223 65.08 279.037 64.702 278.665 64.426C278.293 64.15 277.693 64.012 276.865 64.012H275.533V62.086L279.043 58.108L279.367 59.152H272.761V56.812H281.581V58.702L278.089 62.68L276.613 61.834H277.459C279.007 61.834 280.177 62.182 280.969 62.878C281.761 63.574 282.157 64.468 282.157 65.56C282.157 66.268 281.971 66.934 281.599 67.558C281.227 68.17 280.657 68.668 279.889 69.052C279.121 69.436 278.137 69.628 276.937 69.628ZM285.448 69.412V57.892L286.708 59.152H282.928V56.812H288.364V69.412H285.448Z" fill="black"/>
<path d="M328.504 69.628C327.472 69.628 326.548 69.376 325.732 68.872C324.916 68.356 324.274 67.612 323.806 66.64C323.338 65.668 323.104 64.492 323.104 63.112C323.104 61.732 323.338 60.556 323.806 59.584C324.274 58.612 324.916 57.874 325.732 57.37C326.548 56.854 327.472 56.596 328.504 56.596C329.548 56.596 330.472 56.854 331.276 57.37C332.092 57.874 332.734 58.612 333.202 59.584C333.67 60.556 333.904 61.732 333.904 63.112C333.904 64.492 333.67 65.668 333.202 66.64C332.734 67.612 332.092 68.356 331.276 68.872C330.472 69.376 329.548 69.628 328.504 69.628ZM328.504 67.162C328.996 67.162 329.422 67.024 329.782 66.748C330.154 66.472 330.442 66.034 330.646 65.434C330.862 64.834 330.97 64.06 330.97 63.112C330.97 62.164 330.862 61.39 330.646 60.79C330.442 60.19 330.154 59.752 329.782 59.476C329.422 59.2 328.996 59.062 328.504 59.062C328.024 59.062 327.598 59.2 327.226 59.476C326.866 59.752 326.578 60.19 326.362 60.79C326.158 61.39 326.056 62.164 326.056 63.112C326.056 64.06 326.158 64.834 326.362 65.434C326.578 66.034 326.866 66.472 327.226 66.748C327.598 67.024 328.024 67.162 328.504 67.162ZM337.195 69.412V57.892L338.455 59.152H334.675V56.812H340.111V69.412H337.195Z" fill="black"/>
<path d="M224.853 69.628C223.977 69.628 223.107 69.514 222.243 69.286C221.379 69.046 220.647 68.71 220.047 68.278L221.181 66.046C221.661 66.394 222.219 66.67 222.855 66.874C223.491 67.078 224.133 67.18 224.781 67.18C225.513 67.18 226.089 67.036 226.509 66.748C226.929 66.46 227.139 66.064 227.139 65.56C227.139 65.08 226.953 64.702 226.581 64.426C226.209 64.15 225.609 64.012 224.781 64.012H223.449V62.086L226.959 58.108L227.283 59.152H220.677V56.812H229.497V58.702L226.005 62.68L224.529 61.834H225.375C226.923 61.834 228.093 62.182 228.885 62.878C229.677 63.574 230.073 64.468 230.073 65.56C230.073 66.268 229.887 66.934 229.515 67.558C229.143 68.17 228.573 68.668 227.805 69.052C227.037 69.436 226.053 69.628 224.853 69.628ZM236.82 69.628C235.788 69.628 234.864 69.376 234.048 68.872C233.232 68.356 232.59 67.612 232.122 66.64C231.654 65.668 231.42 64.492 231.42 63.112C231.42 61.732 231.654 60.556 232.122 59.584C232.59 58.612 233.232 57.874 234.048 57.37C234.864 56.854 235.788 56.596 236.82 56.596C237.864 56.596 238.788 56.854 239.592 57.37C240.408 57.874 241.05 58.612 241.518 59.584C241.986 60.556 242.22 61.732 242.22 63.112C242.22 64.492 241.986 65.668 241.518 66.64C241.05 67.612 240.408 68.356 239.592 68.872C238.788 69.376 237.864 69.628 236.82 69.628ZM236.82 67.162C237.312 67.162 237.738 67.024 238.098 66.748C238.47 66.472 238.758 66.034 238.962 65.434C239.178 64.834 239.286 64.06 239.286 63.112C239.286 62.164 239.178 61.39 238.962 60.79C238.758 60.19 238.47 59.752 238.098 59.476C237.738 59.2 237.312 59.062 236.82 59.062C236.34 59.062 235.914 59.2 235.542 59.476C235.182 59.752 234.894 60.19 234.678 60.79C234.474 61.39 234.372 62.164 234.372 63.112C234.372 64.06 234.474 64.834 234.678 65.434C234.894 66.034 235.182 66.472 235.542 66.748C235.914 67.024 236.34 67.162 236.82 67.162Z" fill="black"/>
<path d="M24.2202 127.909C23.1882 127.909 22.2642 127.657 21.4482 127.153C20.6322 126.637 19.9902 125.893 19.5222 124.921C19.0542 123.949 18.8202 122.773 18.8202 121.393C18.8202 120.013 19.0542 118.837 19.5222 117.865C19.9902 116.893 20.6322 116.155 21.4482 115.651C22.2642 115.135 23.1882 114.877 24.2202 114.877C25.2642 114.877 26.1882 115.135 26.9922 115.651C27.8082 116.155 28.4502 116.893 28.9182 117.865C29.3862 118.837 29.6202 120.013 29.6202 121.393C29.6202 122.773 29.3862 123.949 28.9182 124.921C28.4502 125.893 27.8082 126.637 26.9922 127.153C26.1882 127.657 25.2642 127.909 24.2202 127.909ZM24.2202 125.443C24.7122 125.443 25.1382 125.305 25.4982 125.029C25.8702 124.753 26.1582 124.315 26.3622 123.715C26.5782 123.115 26.6862 122.341 26.6862 121.393C26.6862 120.445 26.5782 119.671 26.3622 119.071C26.1582 118.471 25.8702 118.033 25.4982 117.757C25.1382 117.481 24.7122 117.343 24.2202 117.343C23.7402 117.343 23.3142 117.481 22.9422 117.757C22.5822 118.033 22.2942 118.471 22.0782 119.071C21.8742 119.671 21.7722 120.445 21.7722 121.393C21.7722 122.341 21.8742 123.115 22.0782 123.715C22.2942 124.315 22.5822 124.753 22.9422 125.029C23.3142 125.305 23.7402 125.443 24.2202 125.443ZM30.8586 127.693V125.803L35.7186 121.213C36.1026 120.865 36.3846 120.553 36.5646 120.277C36.7446 120.001 36.8646 119.749 36.9246 119.521C36.9966 119.293 37.0326 119.083 37.0326 118.891C37.0326 118.387 36.8586 118.003 36.5106 117.739C36.1746 117.463 35.6766 117.325 35.0166 117.325C34.4886 117.325 33.9966 117.427 33.5406 117.631C33.0966 117.835 32.7186 118.153 32.4066 118.585L30.2826 117.217C30.7626 116.497 31.4346 115.927 32.2986 115.507C33.1626 115.087 34.1586 114.877 35.2866 114.877C36.2226 114.877 37.0386 115.033 37.7346 115.345C38.4426 115.645 38.9886 116.071 39.3726 116.623C39.7686 117.175 39.9666 117.835 39.9666 118.603C39.9666 119.011 39.9126 119.419 39.8046 119.827C39.7086 120.223 39.5046 120.643 39.1926 121.087C38.8926 121.531 38.4486 122.029 37.8606 122.581L33.8286 126.379L33.2706 125.317H40.3806V127.693H30.8586Z" fill="black"/>
<path d="M76.2553 127.591C75.2233 127.591 74.2993 127.339 73.4833 126.835C72.6673 126.319 72.0253 125.575 71.5573 124.603C71.0893 123.631 70.8553 122.455 70.8553 121.075C70.8553 119.695 71.0893 118.519 71.5573 117.547C72.0253 116.575 72.6673 115.837 73.4833 115.333C74.2993 114.817 75.2233 114.559 76.2553 114.559C77.2993 114.559 78.2233 114.817 79.0273 115.333C79.8433 115.837 80.4853 116.575 80.9533 117.547C81.4213 118.519 81.6553 119.695 81.6553 121.075C81.6553 122.455 81.4213 123.631 80.9533 124.603C80.4853 125.575 79.8433 126.319 79.0273 126.835C78.2233 127.339 77.2993 127.591 76.2553 127.591ZM76.2553 125.125C76.7473 125.125 77.1733 124.987 77.5333 124.711C77.9053 124.435 78.1933 123.997 78.3973 123.397C78.6133 122.797 78.7213 122.023 78.7213 121.075C78.7213 120.127 78.6133 119.353 78.3973 118.753C78.1933 118.153 77.9053 117.715 77.5333 117.439C77.1733 117.163 76.7473 117.025 76.2553 117.025C75.7753 117.025 75.3493 117.163 74.9773 117.439C74.6173 117.715 74.3293 118.153 74.1133 118.753C73.9093 119.353 73.8073 120.127 73.8073 121.075C73.8073 122.023 73.9093 122.797 74.1133 123.397C74.3293 123.997 74.6173 124.435 74.9773 124.711C75.3493 124.987 75.7753 125.125 76.2553 125.125ZM86.9823 127.591C86.1063 127.591 85.2363 127.477 84.3723 127.249C83.5083 127.009 82.7763 126.673 82.1763 126.241L83.3103 124.009C83.7903 124.357 84.3483 124.633 84.9843 124.837C85.6203 125.041 86.2623 125.143 86.9103 125.143C87.6423 125.143 88.2183 124.999 88.6383 124.711C89.0583 124.423 89.2683 124.027 89.2683 123.523C89.2683 123.043 89.0823 122.665 88.7103 122.389C88.3383 122.113 87.7383 121.975 86.9103 121.975H85.5783V120.049L89.0883 116.071L89.4123 117.115H82.8063V114.775H91.6263V116.665L88.1343 120.643L86.6583 119.797H87.5043C89.0523 119.797 90.2223 120.145 91.0143 120.841C91.8063 121.537 92.2023 122.431 92.2023 123.523C92.2023 124.231 92.0163 124.897 91.6443 125.521C91.2723 126.133 90.7023 126.631 89.9343 127.015C89.1663 127.399 88.1823 127.591 86.9823 127.591Z" fill="black"/>
<path d="M125.289 127.591C124.257 127.591 123.333 127.339 122.517 126.835C121.701 126.319 121.059 125.575 120.591 124.603C120.123 123.631 119.889 122.455 119.889 121.075C119.889 119.695 120.123 118.519 120.591 117.547C121.059 116.575 121.701 115.837 122.517 115.333C123.333 114.817 124.257 114.559 125.289 114.559C126.333 114.559 127.257 114.817 128.061 115.333C128.877 115.837 129.519 116.575 129.987 117.547C130.455 118.519 130.689 119.695 130.689 121.075C130.689 122.455 130.455 123.631 129.987 124.603C129.519 125.575 128.877 126.319 128.061 126.835C127.257 127.339 126.333 127.591 125.289 127.591ZM125.289 125.125C125.781 125.125 126.207 124.987 126.567 124.711C126.939 124.435 127.227 123.997 127.431 123.397C127.647 122.797 127.755 122.023 127.755 121.075C127.755 120.127 127.647 119.353 127.431 118.753C127.227 118.153 126.939 117.715 126.567 117.439C126.207 117.163 125.781 117.025 125.289 117.025C124.809 117.025 124.383 117.163 124.011 117.439C123.651 117.715 123.363 118.153 123.147 118.753C122.943 119.353 122.841 120.127 122.841 121.075C122.841 122.023 122.943 122.797 123.147 123.397C123.363 123.997 123.651 124.435 124.011 124.711C124.383 124.987 124.809 125.125 125.289 125.125ZM131.961 124.729V122.767L137.901 114.775H140.961L135.147 122.767L133.725 122.353H143.643V124.729H131.961ZM138.747 127.375V124.729L138.837 122.353V119.995H141.591V127.375H138.747Z" fill="white"/>
<path d="M176.141 127.591C175.109 127.591 174.185 127.339 173.369 126.835C172.553 126.319 171.911 125.575 171.443 124.603C170.975 123.631 170.741 122.455 170.741 121.075C170.741 119.695 170.975 118.519 171.443 117.547C171.911 116.575 172.553 115.837 173.369 115.333C174.185 114.817 175.109 114.559 176.141 114.559C177.185 114.559 178.109 114.817 178.913 115.333C179.729 115.837 180.371 116.575 180.839 117.547C181.307 118.519 181.541 119.695 181.541 121.075C181.541 122.455 181.307 123.631 180.839 124.603C180.371 125.575 179.729 126.319 178.913 126.835C178.109 127.339 177.185 127.591 176.141 127.591ZM176.141 125.125C176.633 125.125 177.059 124.987 177.419 124.711C177.791 124.435 178.079 123.997 178.283 123.397C178.499 122.797 178.607 122.023 178.607 121.075C178.607 120.127 178.499 119.353 178.283 118.753C178.079 118.153 177.791 117.715 177.419 117.439C177.059 117.163 176.633 117.025 176.141 117.025C175.661 117.025 175.235 117.163 174.863 117.439C174.503 117.715 174.215 118.153 173.999 118.753C173.795 119.353 173.693 120.127 173.693 121.075C173.693 122.023 173.795 122.797 173.999 123.397C174.215 123.997 174.503 124.435 174.863 124.711C175.235 124.987 175.661 125.125 176.141 125.125ZM187.242 127.591C186.366 127.591 185.496 127.477 184.632 127.249C183.78 127.009 183.048 126.673 182.436 126.241L183.588 124.009C184.068 124.357 184.62 124.633 185.244 124.837C185.88 125.041 186.522 125.143 187.17 125.143C187.902 125.143 188.478 124.999 188.898 124.711C189.318 124.423 189.528 124.021 189.528 123.505C189.528 123.181 189.444 122.893 189.276 122.641C189.108 122.389 188.808 122.197 188.376 122.065C187.956 121.933 187.362 121.867 186.594 121.867H183.372L184.02 114.775H191.706V117.115H185.064L186.576 115.783L186.126 120.841L184.614 119.509H187.278C188.526 119.509 189.528 119.683 190.284 120.031C191.052 120.367 191.61 120.829 191.958 121.417C192.306 122.005 192.48 122.671 192.48 123.415C192.48 124.159 192.294 124.849 191.922 125.485C191.55 126.109 190.974 126.619 190.194 127.015C189.426 127.399 188.442 127.591 187.242 127.591Z" fill="black"/>
<path d="M275.439 127.591C274.407 127.591 273.483 127.339 272.667 126.835C271.851 126.319 271.209 125.575 270.741 124.603C270.273 123.631 270.039 122.455 270.039 121.075C270.039 119.695 270.273 118.519 270.741 117.547C271.209 116.575 271.851 115.837 272.667 115.333C273.483 114.817 274.407 114.559 275.439 114.559C276.483 114.559 277.407 114.817 278.211 115.333C279.027 115.837 279.669 116.575 280.137 117.547C280.605 118.519 280.839 119.695 280.839 121.075C280.839 122.455 280.605 123.631 280.137 124.603C279.669 125.575 279.027 126.319 278.211 126.835C277.407 127.339 276.483 127.591 275.439 127.591ZM275.439 125.125C275.931 125.125 276.357 124.987 276.717 124.711C277.089 124.435 277.377 123.997 277.581 123.397C277.797 122.797 277.905 122.023 277.905 121.075C277.905 120.127 277.797 119.353 277.581 118.753C277.377 118.153 277.089 117.715 276.717 117.439C276.357 117.163 275.931 117.025 275.439 117.025C274.959 117.025 274.533 117.163 274.161 117.439C273.801 117.715 273.513 118.153 273.297 118.753C273.093 119.353 272.991 120.127 272.991 121.075C272.991 122.023 273.093 122.797 273.297 123.397C273.513 123.997 273.801 124.435 274.161 124.711C274.533 124.987 274.959 125.125 275.439 125.125ZM284.219 127.375L289.295 115.891L290.051 117.151H283.265L284.561 115.783V119.203H281.969V114.775H292.067V116.665L287.387 127.375H284.219Z" fill="black"/>
<path d="M326.552 127.591C325.52 127.591 324.596 127.339 323.78 126.835C322.964 126.319 322.322 125.575 321.854 124.603C321.386 123.631 321.152 122.455 321.152 121.075C321.152 119.695 321.386 118.519 321.854 117.547C322.322 116.575 322.964 115.837 323.78 115.333C324.596 114.817 325.52 114.559 326.552 114.559C327.596 114.559 328.52 114.817 329.324 115.333C330.14 115.837 330.782 116.575 331.25 117.547C331.718 118.519 331.952 119.695 331.952 121.075C331.952 122.455 331.718 123.631 331.25 124.603C330.782 125.575 330.14 126.319 329.324 126.835C328.52 127.339 327.596 127.591 326.552 127.591ZM326.552 125.125C327.044 125.125 327.47 124.987 327.83 124.711C328.202 124.435 328.49 123.997 328.694 123.397C328.91 122.797 329.018 122.023 329.018 121.075C329.018 120.127 328.91 119.353 328.694 118.753C328.49 118.153 328.202 117.715 327.83 117.439C327.47 117.163 327.044 117.025 326.552 117.025C326.072 117.025 325.646 117.163 325.274 117.439C324.914 117.715 324.626 118.153 324.41 118.753C324.206 119.353 324.104 120.127 324.104 121.075C324.104 122.023 324.206 122.797 324.41 123.397C324.626 123.997 324.914 124.435 325.274 124.711C325.646 124.987 326.072 125.125 326.552 125.125ZM338.589 127.591C337.533 127.591 336.609 127.435 335.817 127.123C335.025 126.799 334.407 126.349 333.963 125.773C333.519 125.185 333.297 124.501 333.297 123.721C333.297 122.941 333.513 122.281 333.945 121.741C334.389 121.189 335.007 120.775 335.799 120.499C336.591 120.211 337.521 120.067 338.589 120.067C339.669 120.067 340.605 120.211 341.397 120.499C342.201 120.775 342.819 121.189 343.251 121.741C343.695 122.281 343.917 122.941 343.917 123.721C343.917 124.501 343.695 125.185 343.251 125.773C342.807 126.349 342.183 126.799 341.379 127.123C340.587 127.435 339.657 127.591 338.589 127.591ZM338.589 125.449C339.321 125.449 339.897 125.287 340.317 124.963C340.749 124.639 340.965 124.195 340.965 123.631C340.965 123.067 340.749 122.629 340.317 122.317C339.897 121.993 339.321 121.831 338.589 121.831C337.869 121.831 337.299 121.993 336.879 122.317C336.459 122.629 336.249 123.067 336.249 123.631C336.249 124.195 336.459 124.639 336.879 124.963C337.299 125.287 337.869 125.449 338.589 125.449ZM338.589 121.543C337.617 121.543 336.765 121.411 336.033 121.147C335.313 120.883 334.749 120.499 334.341 119.995C333.945 119.479 333.747 118.867 333.747 118.159C333.747 117.415 333.951 116.779 334.359 116.251C334.767 115.711 335.337 115.297 336.069 115.009C336.801 114.709 337.641 114.559 338.589 114.559C339.561 114.559 340.407 114.709 341.127 115.009C341.859 115.297 342.429 115.711 342.837 116.251C343.257 116.779 343.467 117.415 343.467 118.159C343.467 118.867 343.263 119.479 342.855 119.995C342.459 120.499 341.895 120.883 341.163 121.147C340.431 121.411 339.573 121.543 338.589 121.543ZM338.589 119.833C339.201 119.833 339.681 119.695 340.029 119.419C340.389 119.143 340.569 118.765 340.569 118.285C340.569 117.781 340.383 117.391 340.011 117.115C339.651 116.839 339.177 116.701 338.589 116.701C338.013 116.701 337.545 116.839 337.185 117.115C336.825 117.391 336.645 117.781 336.645 118.285C336.645 118.765 336.819 119.143 337.167 119.419C337.515 119.695 337.989 119.833 338.589 119.833Z" fill="black"/>
<path d="M225.263 127.591C224.231 127.591 223.307 127.339 222.491 126.835C221.675 126.319 221.033 125.575 220.565 124.603C220.097 123.631 219.863 122.455 219.863 121.075C219.863 119.695 220.097 118.519 220.565 117.547C221.033 116.575 221.675 115.837 222.491 115.333C223.307 114.817 224.231 114.559 225.263 114.559C226.307 114.559 227.231 114.817 228.035 115.333C228.851 115.837 229.493 116.575 229.961 117.547C230.429 118.519 230.663 119.695 230.663 121.075C230.663 122.455 230.429 123.631 229.961 124.603C229.493 125.575 228.851 126.319 228.035 126.835C227.231 127.339 226.307 127.591 225.263 127.591ZM225.263 125.125C225.755 125.125 226.181 124.987 226.541 124.711C226.913 124.435 227.201 123.997 227.405 123.397C227.621 122.797 227.729 122.023 227.729 121.075C227.729 120.127 227.621 119.353 227.405 118.753C227.201 118.153 226.913 117.715 226.541 117.439C226.181 117.163 225.755 117.025 225.263 117.025C224.783 117.025 224.357 117.163 223.985 117.439C223.625 117.715 223.337 118.153 223.121 118.753C222.917 119.353 222.815 120.127 222.815 121.075C222.815 122.023 222.917 122.797 223.121 123.397C223.337 123.997 223.625 124.435 223.985 124.711C224.357 124.987 224.783 125.125 225.263 125.125ZM237.714 127.591C236.562 127.591 235.56 127.351 234.708 126.871C233.868 126.391 233.22 125.689 232.764 124.765C232.308 123.841 232.08 122.701 232.08 121.345C232.08 119.893 232.35 118.663 232.89 117.655C233.442 116.647 234.198 115.879 235.158 115.351C236.13 114.823 237.246 114.559 238.506 114.559C239.178 114.559 239.82 114.631 240.432 114.775C241.044 114.919 241.572 115.135 242.016 115.423L240.936 117.565C240.588 117.325 240.216 117.163 239.82 117.079C239.424 116.983 239.01 116.935 238.578 116.935C237.486 116.935 236.622 117.265 235.986 117.925C235.35 118.585 235.032 119.563 235.032 120.859C235.032 121.075 235.032 121.315 235.032 121.579C235.044 121.843 235.08 122.107 235.14 122.371L234.33 121.615C234.558 121.147 234.852 120.757 235.212 120.445C235.572 120.121 235.998 119.881 236.49 119.725C236.994 119.557 237.546 119.473 238.146 119.473C238.962 119.473 239.694 119.635 240.342 119.959C240.99 120.283 241.506 120.739 241.89 121.327C242.286 121.915 242.484 122.605 242.484 123.397C242.484 124.249 242.268 124.993 241.836 125.629C241.416 126.253 240.846 126.739 240.126 127.087C239.418 127.423 238.614 127.591 237.714 127.591ZM237.552 125.413C237.96 125.413 238.32 125.341 238.632 125.197C238.956 125.041 239.208 124.819 239.388 124.531C239.568 124.243 239.658 123.913 239.658 123.541C239.658 122.965 239.46 122.509 239.064 122.173C238.68 121.825 238.164 121.651 237.516 121.651C237.084 121.651 236.706 121.735 236.382 121.903C236.058 122.059 235.8 122.281 235.608 122.569C235.428 122.845 235.338 123.169 235.338 123.541C235.338 123.901 235.428 124.225 235.608 124.513C235.788 124.789 236.04 125.011 236.364 125.179C236.688 125.335 237.084 125.413 237.552 125.413Z" fill="black"/>
<path d="M23.7631 189.281C22.7311 189.281 21.8071 189.029 20.9911 188.525C20.1751 188.009 19.5331 187.265 19.0651 186.293C18.5971 185.321 18.3631 184.145 18.3631 182.765C18.3631 181.385 18.5971 180.209 19.0651 179.237C19.5331 178.265 20.1751 177.527 20.9911 177.023C21.8071 176.507 22.7311 176.249 23.7631 176.249C24.8071 176.249 25.7311 176.507 26.5351 177.023C27.3511 177.527 27.9931 178.265 28.4611 179.237C28.9291 180.209 29.1631 181.385 29.1631 182.765C29.1631 184.145 28.9291 185.321 28.4611 186.293C27.9931 187.265 27.3511 188.009 26.5351 188.525C25.7311 189.029 24.8071 189.281 23.7631 189.281ZM23.7631 186.815C24.2551 186.815 24.6811 186.677 25.0411 186.401C25.4131 186.125 25.7011 185.687 25.9051 185.087C26.1211 184.487 26.2291 183.713 26.2291 182.765C26.2291 181.817 26.1211 181.043 25.9051 180.443C25.7011 179.843 25.4131 179.405 25.0411 179.129C24.6811 178.853 24.2551 178.715 23.7631 178.715C23.2831 178.715 22.8571 178.853 22.4851 179.129C22.1251 179.405 21.8371 179.843 21.6211 180.443C21.4171 181.043 21.3151 181.817 21.3151 182.765C21.3151 183.713 21.4171 184.487 21.6211 185.087C21.8371 185.687 22.1251 186.125 22.4851 186.401C22.8571 186.677 23.2831 186.815 23.7631 186.815ZM35.0079 176.249C36.1719 176.249 37.1739 176.489 38.0139 176.969C38.8539 177.449 39.5019 178.151 39.9579 179.075C40.4139 179.987 40.6419 181.127 40.6419 182.495C40.6419 183.947 40.3659 185.177 39.8139 186.185C39.2739 187.193 38.5239 187.961 37.5639 188.489C36.6039 189.017 35.4879 189.281 34.2159 189.281C33.5559 189.281 32.9199 189.209 32.3079 189.065C31.6959 188.921 31.1679 188.705 30.7239 188.417L31.8039 186.275C32.1519 186.515 32.5239 186.683 32.9199 186.779C33.3159 186.863 33.7299 186.905 34.1619 186.905C35.2419 186.905 36.0999 186.575 36.7359 185.915C37.3839 185.255 37.7079 184.277 37.7079 182.981C37.7079 182.765 37.7019 182.525 37.6899 182.261C37.6779 181.997 37.6479 181.733 37.5999 181.469L38.3919 182.225C38.1879 182.693 37.8999 183.089 37.5279 183.413C37.1559 183.725 36.7239 183.965 36.2319 184.133C35.7399 184.289 35.1879 184.367 34.5759 184.367C33.7719 184.367 33.0399 184.205 32.3799 183.881C31.7319 183.557 31.2099 183.101 30.8139 182.513C30.4299 181.925 30.2379 181.235 30.2379 180.443C30.2379 179.579 30.4479 178.835 30.8679 178.211C31.2999 177.587 31.8759 177.107 32.5959 176.771C33.3279 176.423 34.1319 176.249 35.0079 176.249ZM35.1879 178.427C34.7679 178.427 34.4019 178.505 34.0899 178.661C33.7779 178.805 33.5319 179.021 33.3519 179.309C33.1719 179.585 33.0819 179.915 33.0819 180.299C33.0819 180.875 33.2739 181.337 33.6579 181.685C34.0539 182.021 34.5759 182.189 35.2239 182.189C35.6439 182.189 36.0159 182.111 36.3399 181.955C36.6759 181.787 36.9339 181.559 37.1139 181.271C37.2939 180.983 37.3839 180.659 37.3839 180.299C37.3839 179.939 37.2939 179.621 37.1139 179.345C36.9459 179.057 36.6999 178.835 36.3759 178.679C36.0519 178.511 35.6559 178.427 35.1879 178.427Z" fill="black"/>
<path d="M74.0132 188.748V177.228L75.2732 178.488H71.4932V176.148H76.9292V188.748H74.0132ZM84.518 188.964C83.486 188.964 82.562 188.712 81.746 188.208C80.93 187.692 80.288 186.948 79.82 185.976C79.352 185.004 79.118 183.828 79.118 182.448C79.118 181.068 79.352 179.892 79.82 178.92C80.288 177.948 80.93 177.21 81.746 176.706C82.562 176.19 83.486 175.932 84.518 175.932C85.562 175.932 86.486 176.19 87.29 176.706C88.106 177.21 88.748 177.948 89.216 178.92C89.684 179.892 89.918 181.068 89.918 182.448C89.918 183.828 89.684 185.004 89.216 185.976C88.748 186.948 88.106 187.692 87.29 188.208C86.486 188.712 85.562 188.964 84.518 188.964ZM84.518 186.498C85.01 186.498 85.436 186.36 85.796 186.084C86.168 185.808 86.456 185.37 86.66 184.77C86.876 184.17 86.984 183.396 86.984 182.448C86.984 181.5 86.876 180.726 86.66 180.126C86.456 179.526 86.168 179.088 85.796 178.812C85.436 178.536 85.01 178.398 84.518 178.398C84.038 178.398 83.612 178.536 83.24 178.812C82.88 179.088 82.592 179.526 82.376 180.126C82.172 180.726 82.07 181.5 82.07 182.448C82.07 183.396 82.172 184.17 82.376 184.77C82.592 185.37 82.88 185.808 83.24 186.084C83.612 186.36 84.038 186.498 84.518 186.498Z" fill="black"/>
<path d="M128.097 188.748V177.228L129.357 178.488H125.577V176.148H131.013V188.748H128.097ZM135.146 188.748V177.228L136.406 178.488H132.626V176.148H138.062V188.748H135.146Z" fill="white"/>
<path d="M174.813 188.748V177.228L176.073 178.488H172.293V176.148H177.729V188.748H174.813ZM179.81 188.748V186.858L184.67 182.268C185.054 181.92 185.336 181.608 185.516 181.332C185.696 181.056 185.816 180.804 185.876 180.576C185.948 180.348 185.984 180.138 185.984 179.946C185.984 179.442 185.81 179.058 185.462 178.794C185.126 178.518 184.628 178.38 183.968 178.38C183.44 178.38 182.948 178.482 182.492 178.686C182.048 178.89 181.67 179.208 181.358 179.64L179.234 178.272C179.714 177.552 180.386 176.982 181.25 176.562C182.114 176.142 183.11 175.932 184.238 175.932C185.174 175.932 185.99 176.088 186.686 176.4C187.394 176.7 187.94 177.126 188.324 177.678C188.72 178.23 188.918 178.89 188.918 179.658C188.918 180.066 188.864 180.474 188.756 180.882C188.66 181.278 188.456 181.698 188.144 182.142C187.844 182.586 187.4 183.084 186.812 183.636L182.78 187.434L182.222 186.372H189.332V188.748H179.81Z" fill="black"/>
<path d="M273.917 188.748V177.228L275.177 178.488H271.397V176.148H276.833V188.748H273.917ZM278.877 186.102V184.14L284.817 176.148H287.877L282.063 184.14L280.641 183.726H290.559V186.102H278.877ZM285.663 188.748V186.102L285.753 183.726V181.368H288.507V188.748H285.663Z" fill="black"/>
<path d="M325.769 188.748V177.228L327.029 178.488H323.249V176.148H328.685V188.748H325.769ZM335.158 188.964C334.282 188.964 333.412 188.85 332.548 188.622C331.696 188.382 330.964 188.046 330.352 187.614L331.504 185.382C331.984 185.73 332.536 186.006 333.16 186.21C333.796 186.414 334.438 186.516 335.086 186.516C335.818 186.516 336.394 186.372 336.814 186.084C337.234 185.796 337.444 185.394 337.444 184.878C337.444 184.554 337.36 184.266 337.192 184.014C337.024 183.762 336.724 183.57 336.292 183.438C335.872 183.306 335.278 183.24 334.51 183.24H331.288L331.936 176.148H339.622V178.488H332.98L334.492 177.156L334.042 182.214L332.53 180.882H335.194C336.442 180.882 337.444 181.056 338.2 181.404C338.968 181.74 339.526 182.202 339.874 182.79C340.222 183.378 340.396 184.044 340.396 184.788C340.396 185.532 340.21 186.222 339.838 186.858C339.466 187.482 338.89 187.992 338.11 188.388C337.342 188.772 336.358 188.964 335.158 188.964Z" fill="black"/>
<path d="M224.795 188.748V177.228L226.055 178.488H222.275V176.148H227.711V188.748H224.795ZM233.986 188.964C233.11 188.964 232.24 188.85 231.376 188.622C230.512 188.382 229.78 188.046 229.18 187.614L230.314 185.382C230.794 185.73 231.352 186.006 231.988 186.21C232.624 186.414 233.266 186.516 233.914 186.516C234.646 186.516 235.222 186.372 235.642 186.084C236.062 185.796 236.272 185.4 236.272 184.896C236.272 184.416 236.086 184.038 235.714 183.762C235.342 183.486 234.742 183.348 233.914 183.348H232.582V181.422L236.092 177.444L236.416 178.488H229.81V176.148H238.63V178.038L235.138 182.016L233.662 181.17H234.508C236.056 181.17 237.226 181.518 238.018 182.214C238.81 182.91 239.206 183.804 239.206 184.896C239.206 185.604 239.02 186.27 238.648 186.894C238.276 187.506 237.706 188.004 236.938 188.388C236.17 188.772 235.186 188.964 233.986 188.964Z" fill="black"/>
<path d="M22.8911 247.029V235.509L24.1511 236.769H20.3711V234.429H25.8071V247.029H22.8911ZM33.6299 247.245C32.4779 247.245 31.4759 247.005 30.6239 246.525C29.7839 246.045 29.1359 245.343 28.6799 244.419C28.2239 243.495 27.9959 242.355 27.9959 240.999C27.9959 239.547 28.2659 238.317 28.8059 237.309C29.3579 236.301 30.1139 235.533 31.0739 235.005C32.0459 234.477 33.1619 234.213 34.4219 234.213C35.0939 234.213 35.7359 234.285 36.3479 234.429C36.9599 234.573 37.4879 234.789 37.9319 235.077L36.8519 237.219C36.5039 236.979 36.1319 236.817 35.7359 236.733C35.3399 236.637 34.9259 236.589 34.4939 236.589C33.4019 236.589 32.5379 236.919 31.9019 237.579C31.2659 238.239 30.9479 239.217 30.9479 240.513C30.9479 240.729 30.9479 240.969 30.9479 241.233C30.9599 241.497 30.9959 241.761 31.0559 242.025L30.2459 241.269C30.4739 240.801 30.7679 240.411 31.1279 240.099C31.4879 239.775 31.9139 239.535 32.4059 239.379C32.9099 239.211 33.4619 239.127 34.0619 239.127C34.8779 239.127 35.6099 239.289 36.2579 239.613C36.9059 239.937 37.4219 240.393 37.8059 240.981C38.2019 241.569 38.3999 242.259 38.3999 243.051C38.3999 243.903 38.1839 244.647 37.7519 245.283C37.3319 245.907 36.7619 246.393 36.0419 246.741C35.3339 247.077 34.5299 247.245 33.6299 247.245ZM33.4679 245.067C33.8759 245.067 34.2359 244.995 34.5479 244.851C34.8719 244.695 35.1239 244.473 35.3039 244.185C35.4839 243.897 35.5739 243.567 35.5739 243.195C35.5739 242.619 35.3759 242.163 34.9799 241.827C34.5959 241.479 34.0799 241.305 33.4319 241.305C32.9999 241.305 32.6219 241.389 32.2979 241.557C31.9739 241.713 31.7159 241.935 31.5239 242.223C31.3439 242.499 31.2539 242.823 31.2539 243.195C31.2539 243.555 31.3439 243.879 31.5239 244.167C31.7039 244.443 31.9559 244.665 32.2799 244.833C32.6039 244.989 32.9999 245.067 33.4679 245.067Z" fill="black"/>
<path d="M75.0405 246.711V235.191L76.3005 236.451H72.5205V234.111H77.9565V246.711H75.0405ZM82.1614 246.711L87.2374 235.227L87.9934 236.487H81.2074L82.5034 235.119V238.539H79.9114V234.111H90.0094V236.001L85.3294 246.711H82.1614Z" fill="black"/>
<path d="M125.68 246.711V235.191L126.94 236.451H123.16V234.111H128.596V246.711H125.68ZM136.005 246.927C134.949 246.927 134.025 246.771 133.233 246.459C132.441 246.135 131.823 245.685 131.379 245.109C130.935 244.521 130.713 243.837 130.713 243.057C130.713 242.277 130.929 241.617 131.361 241.077C131.805 240.525 132.423 240.111 133.215 239.835C134.007 239.547 134.937 239.403 136.005 239.403C137.085 239.403 138.021 239.547 138.813 239.835C139.617 240.111 140.235 240.525 140.667 241.077C141.111 241.617 141.333 242.277 141.333 243.057C141.333 243.837 141.111 244.521 140.667 245.109C140.223 245.685 139.599 246.135 138.795 246.459C138.003 246.771 137.073 246.927 136.005 246.927ZM136.005 244.785C136.737 244.785 137.313 244.623 137.733 244.299C138.165 243.975 138.381 243.531 138.381 242.967C138.381 242.403 138.165 241.965 137.733 241.653C137.313 241.329 136.737 241.167 136.005 241.167C135.285 241.167 134.715 241.329 134.295 241.653C133.875 241.965 133.665 242.403 133.665 242.967C133.665 243.531 133.875 243.975 134.295 244.299C134.715 244.623 135.285 244.785 136.005 244.785ZM136.005 240.879C135.033 240.879 134.181 240.747 133.449 240.483C132.729 240.219 132.165 239.835 131.757 239.331C131.361 238.815 131.163 238.203 131.163 237.495C131.163 236.751 131.367 236.115 131.775 235.587C132.183 235.047 132.753 234.633 133.485 234.345C134.217 234.045 135.057 233.895 136.005 233.895C136.977 233.895 137.823 234.045 138.543 234.345C139.275 234.633 139.845 235.047 140.253 235.587C140.673 236.115 140.883 236.751 140.883 237.495C140.883 238.203 140.679 238.815 140.271 239.331C139.875 239.835 139.311 240.219 138.579 240.483C137.847 240.747 136.989 240.879 136.005 240.879ZM136.005 239.169C136.617 239.169 137.097 239.031 137.445 238.755C137.805 238.479 137.985 238.101 137.985 237.621C137.985 237.117 137.799 236.727 137.427 236.451C137.067 236.175 136.593 236.037 136.005 236.037C135.429 236.037 134.961 236.175 134.601 236.451C134.241 236.727 134.061 237.117 134.061 237.621C134.061 238.101 134.235 238.479 134.583 238.755C134.931 239.031 135.405 239.169 136.005 239.169Z" fill="black"/>
<path d="M174.891 246.711V235.191L176.151 236.451H172.371V234.111H177.807V246.711H174.891ZM184.424 233.895C185.588 233.895 186.59 234.135 187.43 234.615C188.27 235.095 188.918 235.797 189.374 236.721C189.83 237.633 190.058 238.773 190.058 240.141C190.058 241.593 189.782 242.823 189.23 243.831C188.69 244.839 187.94 245.607 186.98 246.135C186.02 246.663 184.904 246.927 183.632 246.927C182.972 246.927 182.336 246.855 181.724 246.711C181.112 246.567 180.584 246.351 180.14 246.063L181.22 243.921C181.568 244.161 181.94 244.329 182.336 244.425C182.732 244.509 183.146 244.551 183.578 244.551C184.658 244.551 185.516 244.221 186.152 243.561C186.8 242.901 187.124 241.923 187.124 240.627C187.124 240.411 187.118 240.171 187.106 239.907C187.094 239.643 187.064 239.379 187.016 239.115L187.808 239.871C187.604 240.339 187.316 240.735 186.944 241.059C186.572 241.371 186.14 241.611 185.648 241.779C185.156 241.935 184.604 242.013 183.992 242.013C183.188 242.013 182.456 241.851 181.796 241.527C181.148 241.203 180.626 240.747 180.23 240.159C179.846 239.571 179.654 238.881 179.654 238.089C179.654 237.225 179.864 236.481 180.284 235.857C180.716 235.233 181.292 234.753 182.012 234.417C182.744 234.069 183.548 233.895 184.424 233.895ZM184.604 236.073C184.184 236.073 183.818 236.151 183.506 236.307C183.194 236.451 182.948 236.667 182.768 236.955C182.588 237.231 182.498 237.561 182.498 237.945C182.498 238.521 182.69 238.983 183.074 239.331C183.47 239.667 183.992 239.835 184.64 239.835C185.06 239.835 185.432 239.757 185.756 239.601C186.092 239.433 186.35 239.205 186.53 238.917C186.71 238.629 186.8 238.305 186.8 237.945C186.8 237.585 186.71 237.267 186.53 236.991C186.362 236.703 186.116 236.481 185.792 236.325C185.468 236.157 185.072 236.073 184.604 236.073Z" fill="black"/>
<path d="M272.761 246.711V244.821L277.621 240.231C278.005 239.883 278.287 239.571 278.467 239.295C278.647 239.019 278.767 238.767 278.827 238.539C278.899 238.311 278.935 238.101 278.935 237.909C278.935 237.405 278.761 237.021 278.413 236.757C278.077 236.481 277.579 236.343 276.919 236.343C276.391 236.343 275.899 236.445 275.443 236.649C274.999 236.853 274.621 237.171 274.309 237.603L272.185 236.235C272.665 235.515 273.337 234.945 274.201 234.525C275.065 234.105 276.061 233.895 277.189 233.895C278.125 233.895 278.941 234.051 279.637 234.363C280.345 234.663 280.891 235.089 281.275 235.641C281.671 236.193 281.869 236.853 281.869 237.621C281.869 238.029 281.815 238.437 281.707 238.845C281.611 239.241 281.407 239.661 281.095 240.105C280.795 240.549 280.351 241.047 279.763 241.599L275.731 245.397L275.173 244.335H282.283V246.711H272.761ZM285.43 246.711V235.191L286.69 236.451H282.91V234.111H288.346V246.711H285.43Z" fill="black"/>
<path d="M321.977 246.711V244.821L326.837 240.231C327.221 239.883 327.503 239.571 327.683 239.295C327.863 239.019 327.983 238.767 328.043 238.539C328.115 238.311 328.151 238.101 328.151 237.909C328.151 237.405 327.977 237.021 327.629 236.757C327.293 236.481 326.795 236.343 326.135 236.343C325.607 236.343 325.115 236.445 324.659 236.649C324.215 236.853 323.837 237.171 323.525 237.603L321.401 236.235C321.881 235.515 322.553 234.945 323.417 234.525C324.281 234.105 325.277 233.895 326.405 233.895C327.341 233.895 328.157 234.051 328.853 234.363C329.561 234.663 330.107 235.089 330.491 235.641C330.887 236.193 331.085 236.853 331.085 237.621C331.085 238.029 331.031 238.437 330.923 238.845C330.827 239.241 330.623 239.661 330.311 240.105C330.011 240.549 329.567 241.047 328.979 241.599L324.947 245.397L324.389 244.335H331.499V246.711H321.977ZM332.594 246.711V244.821L337.454 240.231C337.838 239.883 338.12 239.571 338.3 239.295C338.48 239.019 338.6 238.767 338.66 238.539C338.732 238.311 338.768 238.101 338.768 237.909C338.768 237.405 338.594 237.021 338.246 236.757C337.91 236.481 337.412 236.343 336.752 236.343C336.224 236.343 335.732 236.445 335.276 236.649C334.832 236.853 334.454 237.171 334.142 237.603L332.018 236.235C332.498 235.515 333.17 234.945 334.034 234.525C334.898 234.105 335.894 233.895 337.022 233.895C337.958 233.895 338.774 234.051 339.47 234.363C340.178 234.663 340.724 235.089 341.108 235.641C341.504 236.193 341.702 236.853 341.702 237.621C341.702 238.029 341.648 238.437 341.54 238.845C341.444 239.241 341.24 239.661 340.928 240.105C340.628 240.549 340.184 241.047 339.596 241.599L335.564 245.397L335.006 244.335H342.116V246.711H332.594Z" fill="black"/>
<path d="M220.677 246.711V244.821L225.537 240.231C225.921 239.883 226.203 239.571 226.383 239.295C226.563 239.019 226.683 238.767 226.743 238.539C226.815 238.311 226.851 238.101 226.851 237.909C226.851 237.405 226.677 237.021 226.329 236.757C225.993 236.481 225.495 236.343 224.835 236.343C224.307 236.343 223.815 236.445 223.359 236.649C222.915 236.853 222.537 237.171 222.225 237.603L220.101 236.235C220.581 235.515 221.253 234.945 222.117 234.525C222.981 234.105 223.977 233.895 225.105 233.895C226.041 233.895 226.857 234.051 227.553 234.363C228.261 234.663 228.807 235.089 229.191 235.641C229.587 236.193 229.785 236.853 229.785 237.621C229.785 238.029 229.731 238.437 229.623 238.845C229.527 239.241 229.323 239.661 229.011 240.105C228.711 240.549 228.267 241.047 227.679 241.599L223.647 245.397L223.089 244.335H230.199V246.711H220.677ZM236.802 246.927C235.77 246.927 234.846 246.675 234.03 246.171C233.214 245.655 232.572 244.911 232.104 243.939C231.636 242.967 231.402 241.791 231.402 240.411C231.402 239.031 231.636 237.855 232.104 236.883C232.572 235.911 233.214 235.173 234.03 234.669C234.846 234.153 235.77 233.895 236.802 233.895C237.846 233.895 238.77 234.153 239.574 234.669C240.39 235.173 241.032 235.911 241.5 236.883C241.968 237.855 242.202 239.031 242.202 240.411C242.202 241.791 241.968 242.967 241.5 243.939C241.032 244.911 240.39 245.655 239.574 246.171C238.77 246.675 237.846 246.927 236.802 246.927ZM236.802 244.461C237.294 244.461 237.72 244.323 238.08 244.047C238.452 243.771 238.74 243.333 238.944 242.733C239.16 242.133 239.268 241.359 239.268 240.411C239.268 239.463 239.16 238.689 238.944 238.089C238.74 237.489 238.452 237.051 238.08 236.775C237.72 236.499 237.294 236.361 236.802 236.361C236.322 236.361 235.896 236.499 235.524 236.775C235.164 237.051 234.876 237.489 234.66 238.089C234.456 238.689 234.354 239.463 234.354 240.411C234.354 241.359 234.456 242.133 234.66 242.733C234.876 243.333 235.164 243.771 235.524 244.047C235.896 244.323 236.322 244.461 236.802 244.461Z" fill="black"/>
<path d="M19.4592 306.128V304.238L24.3192 299.648C24.7032 299.3 24.9852 298.988 25.1652 298.712C25.3452 298.436 25.4652 298.184 25.5252 297.956C25.5972 297.728 25.6332 297.518 25.6332 297.326C25.6332 296.822 25.4592 296.438 25.1112 296.174C24.7752 295.898 24.2772 295.76 23.6172 295.76C23.0892 295.76 22.5972 295.862 22.1412 296.066C21.6972 296.27 21.3192 296.588 21.0072 297.02L18.8832 295.652C19.3632 294.932 20.0352 294.362 20.8992 293.942C21.7632 293.522 22.7592 293.312 23.8872 293.312C24.8232 293.312 25.6392 293.468 26.3352 293.78C27.0432 294.08 27.5892 294.506 27.9732 295.058C28.3692 295.61 28.5672 296.27 28.5672 297.038C28.5672 297.446 28.5132 297.854 28.4052 298.262C28.3092 298.658 28.1052 299.078 27.7932 299.522C27.4932 299.966 27.0492 300.464 26.4612 301.016L22.4292 304.814L21.8712 303.752H28.9812V306.128H19.4592ZM34.2704 306.344C33.3944 306.344 32.5244 306.23 31.6604 306.002C30.7964 305.762 30.0644 305.426 29.4644 304.994L30.5984 302.762C31.0784 303.11 31.6364 303.386 32.2724 303.59C32.9084 303.794 33.5504 303.896 34.1984 303.896C34.9304 303.896 35.5064 303.752 35.9264 303.464C36.3464 303.176 36.5564 302.78 36.5564 302.276C36.5564 301.796 36.3704 301.418 35.9984 301.142C35.6264 300.866 35.0264 300.728 34.1984 300.728H32.8664V298.802L36.3764 294.824L36.7004 295.868H30.0944V293.528H38.9144V295.418L35.4224 299.396L33.9464 298.55H34.7924C36.3404 298.55 37.5104 298.898 38.3024 299.594C39.0944 300.29 39.4904 301.184 39.4904 302.276C39.4904 302.984 39.3044 303.65 38.9324 304.274C38.5604 304.886 37.9904 305.384 37.2224 305.768C36.4544 306.152 35.4704 306.344 34.2704 306.344Z" fill="black"/>
<path d="M70.677 305.811V303.921L75.537 299.331C75.921 298.983 76.203 298.671 76.383 298.395C76.563 298.119 76.683 297.867 76.743 297.639C76.815 297.411 76.851 297.201 76.851 297.009C76.851 296.505 76.677 296.121 76.329 295.857C75.993 295.581 75.495 295.443 74.835 295.443C74.307 295.443 73.815 295.545 73.359 295.749C72.915 295.953 72.537 296.271 72.225 296.703L70.101 295.335C70.581 294.615 71.253 294.045 72.117 293.625C72.981 293.205 73.977 292.995 75.105 292.995C76.041 292.995 76.857 293.151 77.553 293.463C78.261 293.763 78.807 294.189 79.191 294.741C79.587 295.293 79.785 295.953 79.785 296.721C79.785 297.129 79.731 297.537 79.623 297.945C79.527 298.341 79.323 298.761 79.011 299.205C78.711 299.649 78.267 300.147 77.679 300.699L73.647 304.497L73.089 303.435H80.199V305.811H70.677ZM81.0648 303.165V301.203L87.0048 293.211H90.0648L84.2508 301.203L82.8288 300.789H92.7468V303.165H81.0648ZM87.8508 305.811V303.165L87.9408 300.789V298.431H90.6948V305.811H87.8508Z" fill="black"/>
<path d="M121.933 305.811V303.921L126.793 299.331C127.177 298.983 127.459 298.671 127.639 298.395C127.819 298.119 127.939 297.867 127.999 297.639C128.071 297.411 128.107 297.201 128.107 297.009C128.107 296.505 127.933 296.121 127.585 295.857C127.249 295.581 126.751 295.443 126.091 295.443C125.563 295.443 125.071 295.545 124.615 295.749C124.171 295.953 123.793 296.271 123.481 296.703L121.357 295.335C121.837 294.615 122.509 294.045 123.373 293.625C124.237 293.205 125.233 292.995 126.361 292.995C127.297 292.995 128.113 293.151 128.809 293.463C129.517 293.763 130.063 294.189 130.447 294.741C130.843 295.293 131.041 295.953 131.041 296.721C131.041 297.129 130.987 297.537 130.879 297.945C130.783 298.341 130.579 298.761 130.267 299.205C129.967 299.649 129.523 300.147 128.935 300.699L124.903 304.497L124.345 303.435H131.455V305.811H121.933ZM136.942 306.027C136.066 306.027 135.196 305.913 134.332 305.685C133.48 305.445 132.748 305.109 132.136 304.677L133.288 302.445C133.768 302.793 134.32 303.069 134.944 303.273C135.58 303.477 136.222 303.579 136.87 303.579C137.602 303.579 138.178 303.435 138.598 303.147C139.018 302.859 139.228 302.457 139.228 301.941C139.228 301.617 139.144 301.329 138.976 301.077C138.808 300.825 138.508 300.633 138.076 300.501C137.656 300.369 137.062 300.303 136.294 300.303H133.072L133.72 293.211H141.406V295.551H134.764L136.276 294.219L135.826 299.277L134.314 297.945H136.978C138.226 297.945 139.228 298.119 139.984 298.467C140.752 298.803 141.31 299.265 141.658 299.853C142.006 300.441 142.18 301.107 142.18 301.851C142.18 302.595 141.994 303.285 141.622 303.921C141.25 304.545 140.674 305.055 139.894 305.451C139.126 305.835 138.142 306.027 136.942 306.027Z" fill="white"/>
<path d="M171.055 305.811V303.921L175.915 299.331C176.299 298.983 176.581 298.671 176.761 298.395C176.941 298.119 177.061 297.867 177.121 297.639C177.193 297.411 177.229 297.201 177.229 297.009C177.229 296.505 177.055 296.121 176.707 295.857C176.371 295.581 175.873 295.443 175.213 295.443C174.685 295.443 174.193 295.545 173.737 295.749C173.293 295.953 172.915 296.271 172.603 296.703L170.479 295.335C170.959 294.615 171.631 294.045 172.495 293.625C173.359 293.205 174.355 292.995 175.483 292.995C176.419 292.995 177.235 293.151 177.931 293.463C178.639 293.763 179.185 294.189 179.569 294.741C179.965 295.293 180.163 295.953 180.163 296.721C180.163 297.129 180.109 297.537 180.001 297.945C179.905 298.341 179.701 298.761 179.389 299.205C179.089 299.649 178.645 300.147 178.057 300.699L174.025 304.497L173.467 303.435H180.577V305.811H171.055ZM187.414 306.027C186.262 306.027 185.26 305.787 184.408 305.307C183.568 304.827 182.92 304.125 182.464 303.201C182.008 302.277 181.78 301.137 181.78 299.781C181.78 298.329 182.05 297.099 182.59 296.091C183.142 295.083 183.898 294.315 184.858 293.787C185.83 293.259 186.946 292.995 188.206 292.995C188.878 292.995 189.52 293.067 190.132 293.211C190.744 293.355 191.272 293.571 191.716 293.859L190.636 296.001C190.288 295.761 189.916 295.599 189.52 295.515C189.124 295.419 188.71 295.371 188.278 295.371C187.186 295.371 186.322 295.701 185.686 296.361C185.05 297.021 184.732 297.999 184.732 299.295C184.732 299.511 184.732 299.751 184.732 300.015C184.744 300.279 184.78 300.543 184.84 300.807L184.03 300.051C184.258 299.583 184.552 299.193 184.912 298.881C185.272 298.557 185.698 298.317 186.19 298.161C186.694 297.993 187.246 297.909 187.846 297.909C188.662 297.909 189.394 298.071 190.042 298.395C190.69 298.719 191.206 299.175 191.59 299.763C191.986 300.351 192.184 301.041 192.184 301.833C192.184 302.685 191.968 303.429 191.536 304.065C191.116 304.689 190.546 305.175 189.826 305.523C189.118 305.859 188.314 306.027 187.414 306.027ZM187.252 303.849C187.66 303.849 188.02 303.777 188.332 303.633C188.656 303.477 188.908 303.255 189.088 302.967C189.268 302.679 189.358 302.349 189.358 301.977C189.358 301.401 189.16 300.945 188.764 300.609C188.38 300.261 187.864 300.087 187.216 300.087C186.784 300.087 186.406 300.171 186.082 300.339C185.758 300.495 185.5 300.717 185.308 301.005C185.128 301.281 185.038 301.605 185.038 301.977C185.038 302.337 185.128 302.661 185.308 302.949C185.488 303.225 185.74 303.447 186.064 303.615C186.388 303.771 186.784 303.849 187.252 303.849Z" fill="black"/>
<path d="M270.844 305.811V303.921L275.704 299.331C276.088 298.983 276.37 298.671 276.55 298.395C276.73 298.119 276.85 297.867 276.91 297.639C276.982 297.411 277.018 297.201 277.018 297.009C277.018 296.505 276.844 296.121 276.496 295.857C276.16 295.581 275.662 295.443 275.002 295.443C274.474 295.443 273.982 295.545 273.526 295.749C273.082 295.953 272.704 296.271 272.392 296.703L270.268 295.335C270.748 294.615 271.42 294.045 272.284 293.625C273.148 293.205 274.144 292.995 275.272 292.995C276.208 292.995 277.024 293.151 277.72 293.463C278.428 293.763 278.974 294.189 279.358 294.741C279.754 295.293 279.952 295.953 279.952 296.721C279.952 297.129 279.898 297.537 279.79 297.945C279.694 298.341 279.49 298.761 279.178 299.205C278.878 299.649 278.434 300.147 277.846 300.699L273.814 304.497L273.256 303.435H280.366V305.811H270.844ZM286.789 306.027C285.733 306.027 284.809 305.871 284.017 305.559C283.225 305.235 282.607 304.785 282.163 304.209C281.719 303.621 281.497 302.937 281.497 302.157C281.497 301.377 281.713 300.717 282.145 300.177C282.589 299.625 283.207 299.211 283.999 298.935C284.791 298.647 285.721 298.503 286.789 298.503C287.869 298.503 288.805 298.647 289.597 298.935C290.401 299.211 291.019 299.625 291.451 300.177C291.895 300.717 292.117 301.377 292.117 302.157C292.117 302.937 291.895 303.621 291.451 304.209C291.007 304.785 290.383 305.235 289.579 305.559C288.787 305.871 287.857 306.027 286.789 306.027ZM286.789 303.885C287.521 303.885 288.097 303.723 288.517 303.399C288.949 303.075 289.165 302.631 289.165 302.067C289.165 301.503 288.949 301.065 288.517 300.753C288.097 300.429 287.521 300.267 286.789 300.267C286.069 300.267 285.499 300.429 285.079 300.753C284.659 301.065 284.449 301.503 284.449 302.067C284.449 302.631 284.659 303.075 285.079 303.399C285.499 303.723 286.069 303.885 286.789 303.885ZM286.789 299.979C285.817 299.979 284.965 299.847 284.233 299.583C283.513 299.319 282.949 298.935 282.541 298.431C282.145 297.915 281.947 297.303 281.947 296.595C281.947 295.851 282.151 295.215 282.559 294.687C282.967 294.147 283.537 293.733 284.269 293.445C285.001 293.145 285.841 292.995 286.789 292.995C287.761 292.995 288.607 293.145 289.327 293.445C290.059 293.733 290.629 294.147 291.037 294.687C291.457 295.215 291.667 295.851 291.667 296.595C291.667 297.303 291.463 297.915 291.055 298.431C290.659 298.935 290.095 299.319 289.363 299.583C288.631 299.847 287.773 299.979 286.789 299.979ZM286.789 298.269C287.401 298.269 287.881 298.131 288.229 297.855C288.589 297.579 288.769 297.201 288.769 296.721C288.769 296.217 288.583 295.827 288.211 295.551C287.851 295.275 287.377 295.137 286.789 295.137C286.213 295.137 285.745 295.275 285.385 295.551C285.025 295.827 284.845 296.217 284.845 296.721C284.845 297.201 285.019 297.579 285.367 297.855C285.715 298.131 286.189 298.269 286.789 298.269Z" fill="black"/>
<path d="M322.055 305.811V303.921L326.915 299.331C327.299 298.983 327.581 298.671 327.761 298.395C327.941 298.119 328.061 297.867 328.121 297.639C328.193 297.411 328.229 297.201 328.229 297.009C328.229 296.505 328.055 296.121 327.707 295.857C327.371 295.581 326.873 295.443 326.213 295.443C325.685 295.443 325.193 295.545 324.737 295.749C324.293 295.953 323.915 296.271 323.603 296.703L321.479 295.335C321.959 294.615 322.631 294.045 323.495 293.625C324.359 293.205 325.355 292.995 326.483 292.995C327.419 292.995 328.235 293.151 328.931 293.463C329.639 293.763 330.185 294.189 330.569 294.741C330.965 295.293 331.163 295.953 331.163 296.721C331.163 297.129 331.109 297.537 331.001 297.945C330.905 298.341 330.701 298.761 330.389 299.205C330.089 299.649 329.645 300.147 329.057 300.699L325.025 304.497L324.467 303.435H331.577V305.811H322.055ZM337.208 292.995C338.372 292.995 339.374 293.235 340.214 293.715C341.054 294.195 341.702 294.897 342.158 295.821C342.614 296.733 342.842 297.873 342.842 299.241C342.842 300.693 342.566 301.923 342.014 302.931C341.474 303.939 340.724 304.707 339.764 305.235C338.804 305.763 337.688 306.027 336.416 306.027C335.756 306.027 335.12 305.955 334.508 305.811C333.896 305.667 333.368 305.451 332.924 305.163L334.004 303.021C334.352 303.261 334.724 303.429 335.12 303.525C335.516 303.609 335.93 303.651 336.362 303.651C337.442 303.651 338.3 303.321 338.936 302.661C339.584 302.001 339.908 301.023 339.908 299.727C339.908 299.511 339.902 299.271 339.89 299.007C339.878 298.743 339.848 298.479 339.8 298.215L340.592 298.971C340.388 299.439 340.1 299.835 339.728 300.159C339.356 300.471 338.924 300.711 338.432 300.879C337.94 301.035 337.388 301.113 336.776 301.113C335.972 301.113 335.24 300.951 334.58 300.627C333.932 300.303 333.41 299.847 333.014 299.259C332.63 298.671 332.438 297.981 332.438 297.189C332.438 296.325 332.648 295.581 333.068 294.957C333.5 294.333 334.076 293.853 334.796 293.517C335.528 293.169 336.332 292.995 337.208 292.995ZM337.388 295.173C336.968 295.173 336.602 295.251 336.29 295.407C335.978 295.551 335.732 295.767 335.552 296.055C335.372 296.331 335.282 296.661 335.282 297.045C335.282 297.621 335.474 298.083 335.858 298.431C336.254 298.767 336.776 298.935 337.424 298.935C337.844 298.935 338.216 298.857 338.54 298.701C338.876 298.533 339.134 298.305 339.314 298.017C339.494 297.729 339.584 297.405 339.584 297.045C339.584 296.685 339.494 296.367 339.314 296.091C339.146 295.803 338.9 295.581 338.576 295.425C338.252 295.257 337.856 295.173 337.388 295.173Z" fill="black"/>
<path d="M220.704 305.811V303.921L225.564 299.331C225.948 298.983 226.23 298.671 226.41 298.395C226.59 298.119 226.71 297.867 226.77 297.639C226.842 297.411 226.878 297.201 226.878 297.009C226.878 296.505 226.704 296.121 226.356 295.857C226.02 295.581 225.522 295.443 224.862 295.443C224.334 295.443 223.842 295.545 223.386 295.749C222.942 295.953 222.564 296.271 222.252 296.703L220.128 295.335C220.608 294.615 221.28 294.045 222.144 293.625C223.008 293.205 224.004 292.995 225.132 292.995C226.068 292.995 226.884 293.151 227.58 293.463C228.288 293.763 228.834 294.189 229.218 294.741C229.614 295.293 229.812 295.953 229.812 296.721C229.812 297.129 229.758 297.537 229.65 297.945C229.554 298.341 229.35 298.761 229.038 299.205C228.738 299.649 228.294 300.147 227.706 300.699L223.674 304.497L223.116 303.435H230.226V305.811H220.704ZM233.446 305.811L238.522 294.327L239.278 295.587H232.492L233.788 294.219V297.639H231.196V293.211H241.294V295.101L236.614 305.811H233.446Z" fill="black"/>
<path d="M22.8534 362.034C21.9774 362.034 21.1074 361.92 20.2434 361.692C19.3794 361.452 18.6474 361.116 18.0474 360.684L19.1814 358.452C19.6614 358.8 20.2194 359.076 20.8554 359.28C21.4914 359.484 22.1334 359.586 22.7814 359.586C23.5134 359.586 24.0894 359.442 24.5094 359.154C24.9294 358.866 25.1394 358.47 25.1394 357.966C25.1394 357.486 24.9534 357.108 24.5814 356.832C24.2094 356.556 23.6094 356.418 22.7814 356.418H21.4494V354.492L24.9594 350.514L25.2834 351.558H18.6774V349.218H27.4974V351.108L24.0054 355.086L22.5294 354.24H23.3754C24.9234 354.24 26.0934 354.588 26.8854 355.284C27.6774 355.98 28.0734 356.874 28.0734 357.966C28.0734 358.674 27.8874 359.34 27.5154 359.964C27.1434 360.576 26.5734 361.074 25.8054 361.458C25.0374 361.842 24.0534 362.034 22.8534 362.034ZM34.8198 362.034C33.7878 362.034 32.8638 361.782 32.0478 361.278C31.2318 360.762 30.5898 360.018 30.1218 359.046C29.6538 358.074 29.4198 356.898 29.4198 355.518C29.4198 354.138 29.6538 352.962 30.1218 351.99C30.5898 351.018 31.2318 350.28 32.0478 349.776C32.8638 349.26 33.7878 349.002 34.8198 349.002C35.8638 349.002 36.7878 349.26 37.5918 349.776C38.4078 350.28 39.0498 351.018 39.5178 351.99C39.9858 352.962 40.2198 354.138 40.2198 355.518C40.2198 356.898 39.9858 358.074 39.5178 359.046C39.0498 360.018 38.4078 360.762 37.5918 361.278C36.7878 361.782 35.8638 362.034 34.8198 362.034ZM34.8198 359.568C35.3118 359.568 35.7378 359.43 36.0978 359.154C36.4698 358.878 36.7578 358.44 36.9618 357.84C37.1778 357.24 37.2858 356.466 37.2858 355.518C37.2858 354.57 37.1778 353.796 36.9618 353.196C36.7578 352.596 36.4698 352.158 36.0978 351.882C35.7378 351.606 35.3118 351.468 34.8198 351.468C34.3398 351.468 33.9138 351.606 33.5418 351.882C33.1818 352.158 32.8938 352.596 32.6778 353.196C32.4738 353.796 32.3718 354.57 32.3718 355.518C32.3718 356.466 32.4738 357.24 32.6778 357.84C32.8938 358.44 33.1818 358.878 33.5418 359.154C33.9138 359.43 34.3398 359.568 34.8198 359.568Z" fill="black"/>
<path d="M77.5043 361.717C76.4723 361.717 75.5483 361.465 74.7323 360.961C73.9163 360.445 73.2743 359.701 72.8063 358.729C72.3383 357.757 72.1043 356.581 72.1043 355.201C72.1043 353.821 72.3383 352.645 72.8063 351.673C73.2743 350.701 73.9163 349.963 74.7323 349.459C75.5483 348.943 76.4723 348.685 77.5043 348.685C78.5483 348.685 79.4723 348.943 80.2763 349.459C81.0923 349.963 81.7343 350.701 82.2023 351.673C82.6703 352.645 82.9043 353.821 82.9043 355.201C82.9043 356.581 82.6703 357.757 82.2023 358.729C81.7343 359.701 81.0923 360.445 80.2763 360.961C79.4723 361.465 78.5483 361.717 77.5043 361.717ZM77.5043 359.251C77.9963 359.251 78.4223 359.113 78.7823 358.837C79.1543 358.561 79.4423 358.123 79.6463 357.523C79.8623 356.923 79.9703 356.149 79.9703 355.201C79.9703 354.253 79.8623 353.479 79.6463 352.879C79.4423 352.279 79.1543 351.841 78.7823 351.565C78.4223 351.289 77.9963 351.151 77.5043 351.151C77.0243 351.151 76.5983 351.289 76.2263 351.565C75.8663 351.841 75.5783 352.279 75.3623 352.879C75.1583 353.479 75.0563 354.253 75.0563 355.201C75.0563 356.149 75.1583 356.923 75.3623 357.523C75.5783 358.123 75.8663 358.561 76.2263 358.837C76.5983 359.113 77.0243 359.251 77.5043 359.251ZM86.1948 361.501V349.981L87.4548 351.241H83.6748V348.901H89.1108V361.501H86.1948Z" fill="black"/>
<path d="M125.22 361.717C124.188 361.717 123.264 361.465 122.448 360.961C121.632 360.445 120.99 359.701 120.522 358.729C120.054 357.757 119.82 356.581 119.82 355.201C119.82 353.821 120.054 352.645 120.522 351.673C120.99 350.701 121.632 349.963 122.448 349.459C123.264 348.943 124.188 348.685 125.22 348.685C126.264 348.685 127.188 348.943 127.992 349.459C128.808 349.963 129.45 350.701 129.918 351.673C130.386 352.645 130.62 353.821 130.62 355.201C130.62 356.581 130.386 357.757 129.918 358.729C129.45 359.701 128.808 360.445 127.992 360.961C127.188 361.465 126.264 361.717 125.22 361.717ZM125.22 359.251C125.712 359.251 126.138 359.113 126.498 358.837C126.87 358.561 127.158 358.123 127.362 357.523C127.578 356.923 127.686 356.149 127.686 355.201C127.686 354.253 127.578 353.479 127.362 352.879C127.158 352.279 126.87 351.841 126.498 351.565C126.138 351.289 125.712 351.151 125.22 351.151C124.74 351.151 124.314 351.289 123.942 351.565C123.582 351.841 123.294 352.279 123.078 352.879C122.874 353.479 122.772 354.253 122.772 355.201C122.772 356.149 122.874 356.923 123.078 357.523C123.294 358.123 123.582 358.561 123.942 358.837C124.314 359.113 124.74 359.251 125.22 359.251ZM131.859 361.501V359.611L136.719 355.021C137.103 354.673 137.385 354.361 137.565 354.085C137.745 353.809 137.865 353.557 137.925 353.329C137.997 353.101 138.033 352.891 138.033 352.699C138.033 352.195 137.859 351.811 137.511 351.547C137.175 351.271 136.677 351.133 136.017 351.133C135.489 351.133 134.997 351.235 134.541 351.439C134.097 351.643 133.719 351.961 133.407 352.393L131.283 351.025C131.763 350.305 132.435 349.735 133.299 349.315C134.163 348.895 135.159 348.685 136.287 348.685C137.223 348.685 138.039 348.841 138.735 349.153C139.443 349.453 139.989 349.879 140.373 350.431C140.769 350.983 140.967 351.643 140.967 352.411C140.967 352.819 140.913 353.227 140.805 353.635C140.709 354.031 140.505 354.451 140.193 354.895C139.893 355.339 139.449 355.837 138.861 356.389L134.829 360.187L134.271 359.125H141.381V361.501H131.859Z" fill="black"/>
<path d="M176.255 361.717C175.223 361.717 174.299 361.465 173.483 360.961C172.667 360.445 172.025 359.701 171.557 358.729C171.089 357.757 170.855 356.581 170.855 355.201C170.855 353.821 171.089 352.645 171.557 351.673C172.025 350.701 172.667 349.963 173.483 349.459C174.299 348.943 175.223 348.685 176.255 348.685C177.299 348.685 178.223 348.943 179.027 349.459C179.843 349.963 180.485 350.701 180.953 351.673C181.421 352.645 181.655 353.821 181.655 355.201C181.655 356.581 181.421 357.757 180.953 358.729C180.485 359.701 179.843 360.445 179.027 360.961C178.223 361.465 177.299 361.717 176.255 361.717ZM176.255 359.251C176.747 359.251 177.173 359.113 177.533 358.837C177.905 358.561 178.193 358.123 178.397 357.523C178.613 356.923 178.721 356.149 178.721 355.201C178.721 354.253 178.613 353.479 178.397 352.879C178.193 352.279 177.905 351.841 177.533 351.565C177.173 351.289 176.747 351.151 176.255 351.151C175.775 351.151 175.349 351.289 174.977 351.565C174.617 351.841 174.329 352.279 174.113 352.879C173.909 353.479 173.807 354.253 173.807 355.201C173.807 356.149 173.909 356.923 174.113 357.523C174.329 358.123 174.617 358.561 174.977 358.837C175.349 359.113 175.775 359.251 176.255 359.251ZM186.982 361.717C186.106 361.717 185.236 361.603 184.372 361.375C183.508 361.135 182.776 360.799 182.176 360.367L183.31 358.135C183.79 358.483 184.348 358.759 184.984 358.963C185.62 359.167 186.262 359.269 186.91 359.269C187.642 359.269 188.218 359.125 188.638 358.837C189.058 358.549 189.268 358.153 189.268 357.649C189.268 357.169 189.082 356.791 188.71 356.515C188.338 356.239 187.738 356.101 186.91 356.101H185.578V354.175L189.088 350.197L189.412 351.241H182.806V348.901H191.626V350.791L188.134 354.769L186.658 353.923H187.504C189.052 353.923 190.222 354.271 191.014 354.967C191.806 355.663 192.202 356.557 192.202 357.649C192.202 358.357 192.016 359.023 191.644 359.647C191.272 360.259 190.702 360.757 189.934 361.141C189.166 361.525 188.182 361.717 186.982 361.717Z" fill="black"/>
<path d="M276.141 361.717C275.109 361.717 274.185 361.465 273.369 360.961C272.553 360.445 271.911 359.701 271.443 358.729C270.975 357.757 270.741 356.581 270.741 355.201C270.741 353.821 270.975 352.645 271.443 351.673C271.911 350.701 272.553 349.963 273.369 349.459C274.185 348.943 275.109 348.685 276.141 348.685C277.185 348.685 278.109 348.943 278.913 349.459C279.729 349.963 280.371 350.701 280.839 351.673C281.307 352.645 281.541 353.821 281.541 355.201C281.541 356.581 281.307 357.757 280.839 358.729C280.371 359.701 279.729 360.445 278.913 360.961C278.109 361.465 277.185 361.717 276.141 361.717ZM276.141 359.251C276.633 359.251 277.059 359.113 277.419 358.837C277.791 358.561 278.079 358.123 278.283 357.523C278.499 356.923 278.607 356.149 278.607 355.201C278.607 354.253 278.499 353.479 278.283 352.879C278.079 352.279 277.791 351.841 277.419 351.565C277.059 351.289 276.633 351.151 276.141 351.151C275.661 351.151 275.235 351.289 274.863 351.565C274.503 351.841 274.215 352.279 273.999 352.879C273.795 353.479 273.693 354.253 273.693 355.201C273.693 356.149 273.795 356.923 273.999 357.523C274.215 358.123 274.503 358.561 274.863 358.837C275.235 359.113 275.661 359.251 276.141 359.251ZM287.242 361.717C286.366 361.717 285.496 361.603 284.632 361.375C283.78 361.135 283.048 360.799 282.436 360.367L283.588 358.135C284.068 358.483 284.62 358.759 285.244 358.963C285.88 359.167 286.522 359.269 287.17 359.269C287.902 359.269 288.478 359.125 288.898 358.837C289.318 358.549 289.528 358.147 289.528 357.631C289.528 357.307 289.444 357.019 289.276 356.767C289.108 356.515 288.808 356.323 288.376 356.191C287.956 356.059 287.362 355.993 286.594 355.993H283.372L284.02 348.901H291.706V351.241H285.064L286.576 349.909L286.126 354.967L284.614 353.635H287.278C288.526 353.635 289.528 353.809 290.284 354.157C291.052 354.493 291.61 354.955 291.958 355.543C292.306 356.131 292.48 356.797 292.48 357.541C292.48 358.285 292.294 358.975 291.922 359.611C291.55 360.235 290.974 360.745 290.194 361.141C289.426 361.525 288.442 361.717 287.242 361.717Z" fill="black"/>
<path d="M326.263 361.717C325.231 361.717 324.307 361.465 323.491 360.961C322.675 360.445 322.033 359.701 321.565 358.729C321.097 357.757 320.863 356.581 320.863 355.201C320.863 353.821 321.097 352.645 321.565 351.673C322.033 350.701 322.675 349.963 323.491 349.459C324.307 348.943 325.231 348.685 326.263 348.685C327.307 348.685 328.231 348.943 329.035 349.459C329.851 349.963 330.493 350.701 330.961 351.673C331.429 352.645 331.663 353.821 331.663 355.201C331.663 356.581 331.429 357.757 330.961 358.729C330.493 359.701 329.851 360.445 329.035 360.961C328.231 361.465 327.307 361.717 326.263 361.717ZM326.263 359.251C326.755 359.251 327.181 359.113 327.541 358.837C327.913 358.561 328.201 358.123 328.405 357.523C328.621 356.923 328.729 356.149 328.729 355.201C328.729 354.253 328.621 353.479 328.405 352.879C328.201 352.279 327.913 351.841 327.541 351.565C327.181 351.289 326.755 351.151 326.263 351.151C325.783 351.151 325.357 351.289 324.985 351.565C324.625 351.841 324.337 352.279 324.121 352.879C323.917 353.479 323.815 354.253 323.815 355.201C323.815 356.149 323.917 356.923 324.121 357.523C324.337 358.123 324.625 358.561 324.985 358.837C325.357 359.113 325.783 359.251 326.263 359.251ZM338.714 361.717C337.562 361.717 336.56 361.477 335.708 360.997C334.868 360.517 334.22 359.815 333.764 358.891C333.308 357.967 333.08 356.827 333.08 355.471C333.08 354.019 333.35 352.789 333.89 351.781C334.442 350.773 335.198 350.005 336.158 349.477C337.13 348.949 338.246 348.685 339.506 348.685C340.178 348.685 340.82 348.757 341.432 348.901C342.044 349.045 342.572 349.261 343.016 349.549L341.936 351.691C341.588 351.451 341.216 351.289 340.82 351.205C340.424 351.109 340.01 351.061 339.578 351.061C338.486 351.061 337.622 351.391 336.986 352.051C336.35 352.711 336.032 353.689 336.032 354.985C336.032 355.201 336.032 355.441 336.032 355.705C336.044 355.969 336.08 356.233 336.14 356.497L335.33 355.741C335.558 355.273 335.852 354.883 336.212 354.571C336.572 354.247 336.998 354.007 337.49 353.851C337.994 353.683 338.546 353.599 339.146 353.599C339.962 353.599 340.694 353.761 341.342 354.085C341.99 354.409 342.506 354.865 342.89 355.453C343.286 356.041 343.484 356.731 343.484 357.523C343.484 358.375 343.268 359.119 342.836 359.755C342.416 360.379 341.846 360.865 341.126 361.213C340.418 361.549 339.614 361.717 338.714 361.717ZM338.552 359.539C338.96 359.539 339.32 359.467 339.632 359.323C339.956 359.167 340.208 358.945 340.388 358.657C340.568 358.369 340.658 358.039 340.658 357.667C340.658 357.091 340.46 356.635 340.064 356.299C339.68 355.951 339.164 355.777 338.516 355.777C338.084 355.777 337.706 355.861 337.382 356.029C337.058 356.185 336.8 356.407 336.608 356.695C336.428 356.971 336.338 357.295 336.338 357.667C336.338 358.027 336.428 358.351 336.608 358.639C336.788 358.915 337.04 359.137 337.364 359.305C337.688 359.461 338.084 359.539 338.552 359.539Z" fill="black"/>
<path d="M225.289 361.717C224.257 361.717 223.333 361.465 222.517 360.961C221.701 360.445 221.059 359.701 220.591 358.729C220.123 357.757 219.889 356.581 219.889 355.201C219.889 353.821 220.123 352.645 220.591 351.673C221.059 350.701 221.701 349.963 222.517 349.459C223.333 348.943 224.257 348.685 225.289 348.685C226.333 348.685 227.257 348.943 228.061 349.459C228.877 349.963 229.519 350.701 229.987 351.673C230.455 352.645 230.689 353.821 230.689 355.201C230.689 356.581 230.455 357.757 229.987 358.729C229.519 359.701 228.877 360.445 228.061 360.961C227.257 361.465 226.333 361.717 225.289 361.717ZM225.289 359.251C225.781 359.251 226.207 359.113 226.567 358.837C226.939 358.561 227.227 358.123 227.431 357.523C227.647 356.923 227.755 356.149 227.755 355.201C227.755 354.253 227.647 353.479 227.431 352.879C227.227 352.279 226.939 351.841 226.567 351.565C226.207 351.289 225.781 351.151 225.289 351.151C224.809 351.151 224.383 351.289 224.011 351.565C223.651 351.841 223.363 352.279 223.147 352.879C222.943 353.479 222.841 354.253 222.841 355.201C222.841 356.149 222.943 356.923 223.147 357.523C223.363 358.123 223.651 358.561 224.011 358.837C224.383 359.113 224.809 359.251 225.289 359.251ZM231.961 358.855V356.893L237.901 348.901H240.961L235.147 356.893L233.725 356.479H243.643V358.855H231.961ZM238.747 361.501V358.855L238.837 356.479V354.121H241.591V361.501H238.747Z" fill="black"/>
<rect x="5" y="32" width="50" height="55" fill="black" fill-opacity="0.2"/>
<rect x="60" y="32" width="45" height="55" fill="black" fill-opacity="0.2"/>
<rect x="110" y="32" width="45" height="55" fill="black" fill-opacity="0.2"/>
<rect x="160" y="32" width="45" height="55" fill="black" fill-opacity="0.2"/>
<rect x="210" y="32" width="45" height="55" fill="black" fill-opacity="0.2"/>
<rect x="260" y="32" width="45" height="55" fill="black" fill-opacity="0.2"/>
<rect x="60" y="332" width="45" height="55" fill="black" fill-opacity="0.2"/>
<path d="M160 332H205V387H160V332Z" fill="black" fill-opacity="0.2"/>
<path d="M110 332H155V387H110V332Z" fill="black" fill-opacity="0.2"/>
<rect x="210" y="332" width="45" height="55" fill="black" fill-opacity="0.2"/>
<rect x="260" y="332" width="45" height="55" fill="black" fill-opacity="0.2"/>
<rect x="310" y="332" width="45" height="55" fill="black" fill-opacity="0.2"/>
<path d="M24.7089 20.9242V11.8242H28.8429C29.8309 11.8242 30.7019 12.0149 31.4559 12.3962C32.2099 12.7689 32.7992 13.2932 33.2239 13.9692C33.6486 14.6452 33.8609 15.4469 33.8609 16.3742C33.8609 17.2929 33.6486 18.0945 33.2239 18.7792C32.7992 19.4552 32.2099 19.9839 31.4559 20.3652C30.7019 20.7379 29.8309 20.9242 28.8429 20.9242H24.7089ZM26.8149 19.1952H28.7389C29.3455 19.1952 29.8699 19.0825 30.3119 18.8572C30.7625 18.6232 31.1092 18.2939 31.3519 17.8692C31.6032 17.4445 31.7289 16.9462 31.7289 16.3742C31.7289 15.7935 31.6032 15.2952 31.3519 14.8792C31.1092 14.4545 30.7625 14.1295 30.3119 13.9042C29.8699 13.6702 29.3455 13.5532 28.7389 13.5532H26.8149V19.1952Z" fill="black"/>
<path d="M332.424 20.607C331.696 20.607 330.998 20.5117 330.331 20.321C329.664 20.1217 329.126 19.866 328.719 19.554L329.434 17.968C329.824 18.2454 330.283 18.475 330.812 18.657C331.349 18.8304 331.891 18.917 332.437 18.917C332.853 18.917 333.187 18.878 333.438 18.8C333.698 18.7134 333.889 18.5964 334.01 18.449C334.131 18.3017 334.192 18.1327 334.192 17.942C334.192 17.6994 334.097 17.5087 333.906 17.37C333.715 17.2227 333.464 17.1057 333.152 17.019C332.84 16.9237 332.493 16.837 332.112 16.759C331.739 16.6724 331.362 16.5684 330.981 16.447C330.608 16.3257 330.266 16.1697 329.954 15.979C329.642 15.7884 329.386 15.537 329.187 15.225C328.996 14.913 328.901 14.5144 328.901 14.029C328.901 13.509 329.04 13.0367 329.317 12.612C329.603 12.1787 330.028 11.8364 330.591 11.585C331.163 11.325 331.878 11.195 332.736 11.195C333.308 11.195 333.871 11.2644 334.426 11.403C334.981 11.533 335.47 11.7324 335.895 12.001L335.245 13.6C334.82 13.3574 334.396 13.1797 333.971 13.067C333.546 12.9457 333.13 12.885 332.723 12.885C332.316 12.885 331.982 12.9327 331.722 13.028C331.462 13.1234 331.276 13.249 331.163 13.405C331.05 13.5524 330.994 13.7257 330.994 13.925C330.994 14.159 331.089 14.3497 331.28 14.497C331.471 14.6357 331.722 14.7484 332.034 14.835C332.346 14.9217 332.688 15.0084 333.061 15.095C333.442 15.1817 333.819 15.2814 334.192 15.394C334.573 15.5067 334.92 15.6584 335.232 15.849C335.544 16.0397 335.795 16.291 335.986 16.603C336.185 16.915 336.285 17.3094 336.285 17.786C336.285 18.2974 336.142 18.7654 335.856 19.19C335.57 19.6147 335.141 19.957 334.569 20.217C334.006 20.477 333.291 20.607 332.424 20.607Z" fill="black"/>
<path d="M81.424 20.607C80.696 20.607 79.9983 20.5117 79.331 20.321C78.6636 20.1217 78.1263 19.866 77.719 19.554L78.434 17.968C78.824 18.2454 79.2833 18.475 79.812 18.657C80.3493 18.8304 80.891 18.917 81.437 18.917C81.853 18.917 82.1866 18.878 82.438 18.8C82.698 18.7134 82.8886 18.5964 83.01 18.449C83.1313 18.3017 83.192 18.1327 83.192 17.942C83.192 17.6994 83.0966 17.5087 82.906 17.37C82.7153 17.2227 82.464 17.1057 82.152 17.019C81.84 16.9237 81.4933 16.837 81.112 16.759C80.7393 16.6724 80.3623 16.5684 79.981 16.447C79.6083 16.3257 79.266 16.1697 78.954 15.979C78.642 15.7884 78.3863 15.537 78.187 15.225C77.9963 14.913 77.901 14.5144 77.901 14.029C77.901 13.509 78.0396 13.0367 78.317 12.612C78.603 12.1787 79.0276 11.8364 79.591 11.585C80.163 11.325 80.878 11.195 81.736 11.195C82.308 11.195 82.8713 11.2644 83.426 11.403C83.9806 11.533 84.4703 11.7324 84.895 12.001L84.245 13.6C83.8203 13.3574 83.3956 13.1797 82.971 13.067C82.5463 12.9457 82.1303 12.885 81.723 12.885C81.3156 12.885 80.982 12.9327 80.722 13.028C80.462 13.1234 80.2756 13.249 80.163 13.405C80.0503 13.5524 79.994 13.7257 79.994 13.925C79.994 14.159 80.0893 14.3497 80.28 14.497C80.4706 14.6357 80.722 14.7484 81.034 14.835C81.346 14.9217 81.6883 15.0084 82.061 15.095C82.4423 15.1817 82.8193 15.2814 83.192 15.394C83.5733 15.5067 83.92 15.6584 84.232 15.849C84.544 16.0397 84.7953 16.291 84.986 16.603C85.1853 16.915 85.285 17.3094 85.285 17.786C85.285 18.2974 85.142 18.7654 84.856 19.19C84.57 19.6147 84.141 19.957 83.569 20.217C83.0056 20.477 82.2906 20.607 81.424 20.607Z" fill="black"/>
<path d="M231.502 20.607C230.791 20.607 230.128 20.49 229.513 20.256C228.906 20.022 228.377 19.6927 227.927 19.268C227.485 18.8434 227.138 18.345 226.887 17.773C226.644 17.201 226.523 16.577 226.523 15.901C226.523 15.225 226.644 14.601 226.887 14.029C227.138 13.457 227.489 12.9587 227.94 12.534C228.39 12.1094 228.919 11.78 229.526 11.546C230.132 11.312 230.791 11.195 231.502 11.195C232.221 11.195 232.88 11.312 233.478 11.546C234.084 11.78 234.609 12.1094 235.051 12.534C235.501 12.95 235.852 13.444 236.104 14.016C236.355 14.588 236.481 15.2164 236.481 15.901C236.481 16.577 236.355 17.2054 236.104 17.786C235.852 18.358 235.501 18.8564 235.051 19.281C234.609 19.697 234.084 20.022 233.478 20.256C232.88 20.49 232.221 20.607 231.502 20.607ZM234.479 22.544C234.123 22.544 233.785 22.505 233.465 22.427C233.153 22.349 232.841 22.2234 232.529 22.05C232.225 21.8767 231.905 21.6427 231.567 21.348C231.237 21.0534 230.878 20.6894 230.488 20.256L232.698 19.697C232.932 20.0177 233.148 20.2734 233.348 20.464C233.547 20.6547 233.738 20.789 233.92 20.867C234.11 20.945 234.31 20.984 234.518 20.984C235.072 20.984 235.566 20.7587 236 20.308L236.936 21.426C236.32 22.1714 235.501 22.544 234.479 22.544ZM231.502 18.813C231.909 18.813 232.282 18.7437 232.62 18.605C232.966 18.4664 233.27 18.267 233.53 18.007C233.79 17.747 233.989 17.4394 234.128 17.084C234.275 16.72 234.349 16.3257 234.349 15.901C234.349 15.4677 234.275 15.0734 234.128 14.718C233.989 14.3627 233.79 14.055 233.53 13.795C233.27 13.535 232.966 13.3357 232.62 13.197C232.282 13.0584 231.909 12.989 231.502 12.989C231.094 12.989 230.717 13.0584 230.371 13.197C230.024 13.3357 229.721 13.535 229.461 13.795C229.209 14.055 229.01 14.3627 228.863 14.718C228.724 15.0734 228.655 15.4677 228.655 15.901C228.655 16.3257 228.724 16.72 228.863 17.084C229.01 17.4394 229.209 17.747 229.461 18.007C229.721 18.267 230.024 18.4664 230.371 18.605C230.717 18.7437 231.094 18.813 231.502 18.813Z" fill="black"/>
<path d="M281.424 20.607C280.696 20.607 279.998 20.5117 279.331 20.321C278.664 20.1217 278.126 19.866 277.719 19.554L278.434 17.968C278.824 18.2454 279.283 18.475 279.812 18.657C280.349 18.8304 280.891 18.917 281.437 18.917C281.853 18.917 282.187 18.878 282.438 18.8C282.698 18.7134 282.889 18.5964 283.01 18.449C283.131 18.3017 283.192 18.1327 283.192 17.942C283.192 17.6994 283.097 17.5087 282.906 17.37C282.715 17.2227 282.464 17.1057 282.152 17.019C281.84 16.9237 281.493 16.837 281.112 16.759C280.739 16.6724 280.362 16.5684 279.981 16.447C279.608 16.3257 279.266 16.1697 278.954 15.979C278.642 15.7884 278.386 15.537 278.187 15.225C277.996 14.913 277.901 14.5144 277.901 14.029C277.901 13.509 278.04 13.0367 278.317 12.612C278.603 12.1787 279.028 11.8364 279.591 11.585C280.163 11.325 280.878 11.195 281.736 11.195C282.308 11.195 282.871 11.2644 283.426 11.403C283.981 11.533 284.47 11.7324 284.895 12.001L284.245 13.6C283.82 13.3574 283.396 13.1797 282.971 13.067C282.546 12.9457 282.13 12.885 281.723 12.885C281.316 12.885 280.982 12.9327 280.722 13.028C280.462 13.1234 280.276 13.249 280.163 13.405C280.05 13.5524 279.994 13.7257 279.994 13.925C279.994 14.159 280.089 14.3497 280.28 14.497C280.471 14.6357 280.722 14.7484 281.034 14.835C281.346 14.9217 281.688 15.0084 282.061 15.095C282.442 15.1817 282.819 15.2814 283.192 15.394C283.573 15.5067 283.92 15.6584 284.232 15.849C284.544 16.0397 284.795 16.291 284.986 16.603C285.185 16.915 285.285 17.3094 285.285 17.786C285.285 18.2974 285.142 18.7654 284.856 19.19C284.57 19.6147 284.141 19.957 283.569 20.217C283.006 20.477 282.291 20.607 281.424 20.607Z" fill="black"/>
<path d="M131.446 20.451V13.067H128.534V11.351H136.464V13.067H133.552V20.451H131.446Z" fill="black"/>
<path d="M181.502 20.607C180.791 20.607 180.128 20.49 179.513 20.256C178.906 20.022 178.377 19.6927 177.927 19.268C177.485 18.8434 177.138 18.345 176.887 17.773C176.644 17.201 176.523 16.577 176.523 15.901C176.523 15.225 176.644 14.601 176.887 14.029C177.138 13.457 177.489 12.9587 177.94 12.534C178.39 12.1094 178.919 11.78 179.526 11.546C180.132 11.312 180.791 11.195 181.502 11.195C182.221 11.195 182.88 11.312 183.478 11.546C184.084 11.78 184.609 12.1094 185.051 12.534C185.501 12.95 185.852 13.444 186.104 14.016C186.355 14.588 186.481 15.2164 186.481 15.901C186.481 16.577 186.355 17.2054 186.104 17.786C185.852 18.358 185.501 18.8564 185.051 19.281C184.609 19.697 184.084 20.022 183.478 20.256C182.88 20.49 182.221 20.607 181.502 20.607ZM184.479 22.544C184.123 22.544 183.785 22.505 183.465 22.427C183.153 22.349 182.841 22.2234 182.529 22.05C182.225 21.8767 181.905 21.6427 181.567 21.348C181.237 21.0534 180.878 20.6894 180.488 20.256L182.698 19.697C182.932 20.0177 183.148 20.2734 183.348 20.464C183.547 20.6547 183.738 20.789 183.92 20.867C184.11 20.945 184.31 20.984 184.518 20.984C185.072 20.984 185.566 20.7587 186 20.308L186.936 21.426C186.32 22.1714 185.501 22.544 184.479 22.544ZM181.502 18.813C181.909 18.813 182.282 18.7437 182.62 18.605C182.966 18.4664 183.27 18.267 183.53 18.007C183.79 17.747 183.989 17.4394 184.128 17.084C184.275 16.72 184.349 16.3257 184.349 15.901C184.349 15.4677 184.275 15.0734 184.128 14.718C183.989 14.3627 183.79 14.055 183.53 13.795C183.27 13.535 182.966 13.3357 182.62 13.197C182.282 13.0584 181.909 12.989 181.502 12.989C181.094 12.989 180.717 13.0584 180.371 13.197C180.024 13.3357 179.721 13.535 179.461 13.795C179.209 14.055 179.01 14.3627 178.863 14.718C178.724 15.0734 178.655 15.4677 178.655 15.901C178.655 16.3257 178.724 16.72 178.863 17.084C179.01 17.4394 179.209 17.747 179.461 18.007C179.721 18.267 180.024 18.4664 180.371 18.605C180.717 18.7437 181.094 18.813 181.502 18.813Z" fill="black"/>
</svg>
