<svg width="1077" height="751" viewBox="0 0 1077 751" fill="none" xmlns="http://www.w3.org/2000/svg">
<g filter="url(#filter0_d_116_16)">
<rect x="4" y="63" width="1068.88" height="679.456" rx="10" fill="white"/>
<rect x="6.5" y="65.5" width="1063.88" height="674.456" rx="7.5" stroke="#FFCF00" stroke-width="5"/>
</g>
<line x1="6.13025" y1="173.365" x2="1068.99" y2="173.365" stroke="#FFCC00" stroke-width="5"/>
<line x1="6.13025" y1="285.84" x2="1068.99" y2="285.84" stroke="#FFCC00" stroke-width="5"/>
<line x1="6.13025" y1="398.316" x2="1068.99" y2="398.316" stroke="#FFCC00" stroke-width="5"/>
<line x1="6.13025" y1="510.792" x2="1068.99" y2="510.792" stroke="#FFCC00" stroke-width="5"/>
<line x1="6.13025" y1="623.268" x2="1068.99" y2="623.268" stroke="#FFCC00" stroke-width="5"/>
<path d="M162.604 63.3889L162.604 741.375" stroke="#FFCC00" stroke-width="5"/>
<line x1="314.312" y1="63.3888" x2="314.312" y2="741.375" stroke="#FFCC00" stroke-width="5"/>
<path d="M465.411 63.3889L465.411 740.855" stroke="#FFCC00" stroke-width="5"/>
<line x1="617.103" y1="64.4917" x2="617.103" y2="741.22" stroke="#FFCC00" stroke-width="5"/>
<path d="M767.351 740.856L767.351 68.6554" stroke="#FFCC00" stroke-width="5"/>
<line y1="-2.5" x2="671.677" y2="-2.5" transform="matrix(5.09017e-05 1 -1 8.2786e-05 917.547 68.6573)" stroke="#FFCC00" stroke-width="5"/>
<ellipse cx="390.792" cy="342.076" rx="35.9993" ry="36" fill="#3DBD3D"/>
<ellipse cx="392.792" cy="229.839" rx="35.9993" ry="36" fill="#3DBD3D"/>
<ellipse cx="392.849" cy="565.55" rx="35.9993" ry="36" fill="#3DBD3D"/>
<ellipse cx="543.999" cy="453" rx="35.9993" ry="36" fill="#1E90FF"/>
<ellipse cx="544.999" cy="342" rx="35.9993" ry="36" fill="#1E90FF"/>
<ellipse cx="692.999" cy="342" rx="35.9993" ry="36" fill="#1E90FF"/>
<ellipse cx="844.999" cy="342" rx="35.9993" ry="36" fill="#1E90FF"/>
<circle cx="390" cy="120" r="36" fill="#FFCC00"/>
<path d="M864.467 425.741C871.371 432.139 875.912 441.447 877.091 451.616C878.269 461.785 875.989 471.983 870.751 479.966C865.513 487.949 857.747 493.063 849.161 494.183C840.576 495.304 831.873 492.339 824.969 485.94L844.718 455.841L864.467 425.741Z" fill="#1E90FF"/>
<path d="M825.713 486.629C818.808 480.231 814.267 470.923 813.089 460.754C811.91 450.585 814.191 440.387 819.429 432.405C824.666 424.422 832.432 419.307 841.018 418.187C849.604 417.067 858.306 420.032 865.211 426.43L845.462 456.53L825.713 486.629Z" fill="#B22222"/>
<path d="M63.5592 122.422V119.062L72.1992 110.902C72.8818 110.283 73.3832 109.728 73.7032 109.238C74.0232 108.747 74.2365 108.299 74.3432 107.894C74.4712 107.488 74.5352 107.115 74.5352 106.774C74.5352 105.878 74.2258 105.195 73.6072 104.726C73.0098 104.235 72.1245 103.99 70.9512 103.99C70.0125 103.99 69.1378 104.171 68.3272 104.534C67.5378 104.896 66.8658 105.462 66.3112 106.23L62.5352 103.798C63.3885 102.518 64.5832 101.504 66.1192 100.758C67.6552 100.011 69.4258 99.6377 71.4312 99.6377C73.0952 99.6377 74.5458 99.915 75.7832 100.47C77.0418 101.003 78.0125 101.76 78.6952 102.742C79.3992 103.723 79.7512 104.896 79.7512 106.262C79.7512 106.987 79.6552 107.712 79.4632 108.438C79.2925 109.142 78.9298 109.888 78.3752 110.678C77.8418 111.467 77.0525 112.352 76.0072 113.334L68.8392 120.086L67.8472 118.198H80.4872V122.422H63.5592ZM92.6422 122.806C90.5942 122.806 88.8128 122.379 87.2982 121.526C85.8048 120.672 84.6528 119.424 83.8422 117.782C83.0315 116.139 82.6262 114.112 82.6262 111.702C82.6262 109.12 83.1062 106.934 84.0662 105.142C85.0475 103.35 86.3915 101.984 88.0982 101.046C89.8262 100.107 91.8102 99.6377 94.0502 99.6377C95.2448 99.6377 96.3862 99.7657 97.4742 100.022C98.5622 100.278 99.5008 100.662 100.29 101.174L98.3702 104.982C97.7515 104.555 97.0902 104.267 96.3862 104.118C95.6822 103.947 94.9462 103.862 94.1782 103.862C92.2368 103.862 90.7008 104.448 89.5702 105.622C88.4395 106.795 87.8742 108.534 87.8742 110.838C87.8742 111.222 87.8742 111.648 87.8742 112.118C87.8955 112.587 87.9595 113.056 88.0662 113.526L86.6262 112.182C87.0315 111.35 87.5542 110.656 88.1942 110.102C88.8342 109.526 89.5915 109.099 90.4662 108.822C91.3622 108.523 92.3435 108.374 93.4102 108.374C94.8608 108.374 96.1622 108.662 97.3142 109.238C98.4662 109.814 99.3835 110.624 100.066 111.67C100.77 112.715 101.122 113.942 101.122 115.35C101.122 116.864 100.738 118.187 99.9702 119.318C99.2235 120.427 98.2102 121.291 96.9302 121.91C95.6715 122.507 94.2422 122.806 92.6422 122.806ZM92.3542 118.934C93.0795 118.934 93.7195 118.806 94.2742 118.55C94.8502 118.272 95.2982 117.878 95.6182 117.366C95.9382 116.854 96.0982 116.267 96.0982 115.606C96.0982 114.582 95.7462 113.771 95.0422 113.174C94.3595 112.555 93.4422 112.246 92.2902 112.246C91.5222 112.246 90.8502 112.395 90.2742 112.694C89.6982 112.971 89.2395 113.366 88.8982 113.878C88.5782 114.368 88.4182 114.944 88.4182 115.606C88.4182 116.246 88.5782 116.822 88.8982 117.334C89.2182 117.824 89.6662 118.219 90.2422 118.518C90.8182 118.795 91.5222 118.934 92.3542 118.934Z" fill="black"/>
<path d="M218.614 123.618V120.258L227.254 112.098C227.937 111.479 228.438 110.925 228.758 110.434C229.078 109.943 229.291 109.495 229.398 109.09C229.526 108.685 229.59 108.311 229.59 107.97C229.59 107.074 229.281 106.391 228.662 105.922C228.065 105.431 227.179 105.186 226.006 105.186C225.067 105.186 224.193 105.367 223.382 105.73C222.593 106.093 221.921 106.658 221.366 107.426L217.59 104.994C218.443 103.714 219.638 102.701 221.174 101.954C222.71 101.207 224.481 100.834 226.486 100.834C228.15 100.834 229.601 101.111 230.838 101.666C232.097 102.199 233.067 102.957 233.75 103.938C234.454 104.919 234.806 106.093 234.806 107.458C234.806 108.183 234.71 108.909 234.518 109.634C234.347 110.338 233.985 111.085 233.43 111.874C232.897 112.663 232.107 113.549 231.062 114.53L223.894 121.282L222.902 119.394H235.542V123.618H218.614ZM241.265 123.618L250.289 103.202L251.633 105.442H239.569L241.873 103.01V109.09H237.265V101.218H255.217V104.578L246.897 123.618H241.265Z" fill="black"/>
<path d="M370.644 131.16V127.8L379.284 119.64C379.966 119.021 380.468 118.467 380.788 117.976C381.108 117.485 381.321 117.037 381.428 116.632C381.556 116.227 381.62 115.853 381.62 115.512C381.62 114.616 381.31 113.933 380.692 113.464C380.094 112.973 379.209 112.728 378.036 112.728C377.097 112.728 376.222 112.909 375.412 113.272C374.622 113.635 373.95 114.2 373.396 114.968L369.62 112.536C370.473 111.256 371.668 110.243 373.204 109.496C374.74 108.749 376.51 108.376 378.516 108.376C380.18 108.376 381.63 108.653 382.868 109.208C384.126 109.741 385.097 110.499 385.78 111.48C386.484 112.461 386.836 113.635 386.836 115C386.836 115.725 386.74 116.451 386.548 117.176C386.377 117.88 386.014 118.627 385.46 119.416C384.926 120.205 384.137 121.091 383.092 122.072L375.924 128.824L374.932 126.936H387.572V131.16H370.644ZM398.991 131.544C397.113 131.544 395.471 131.267 394.063 130.712C392.655 130.136 391.556 129.336 390.767 128.312C389.977 127.267 389.583 126.051 389.583 124.664C389.583 123.277 389.967 122.104 390.735 121.144C391.524 120.163 392.623 119.427 394.031 118.936C395.439 118.424 397.092 118.168 398.991 118.168C400.911 118.168 402.575 118.424 403.983 118.936C405.412 119.427 406.511 120.163 407.279 121.144C408.068 122.104 408.463 123.277 408.463 124.664C408.463 126.051 408.068 127.267 407.279 128.312C406.489 129.336 405.38 130.136 403.951 130.712C402.543 131.267 400.889 131.544 398.991 131.544ZM398.991 127.736C400.292 127.736 401.316 127.448 402.063 126.872C402.831 126.296 403.215 125.507 403.215 124.504C403.215 123.501 402.831 122.723 402.063 122.168C401.316 121.592 400.292 121.304 398.991 121.304C397.711 121.304 396.697 121.592 395.951 122.168C395.204 122.723 394.831 123.501 394.831 124.504C394.831 125.507 395.204 126.296 395.951 126.872C396.697 127.448 397.711 127.736 398.991 127.736ZM398.991 120.792C397.263 120.792 395.748 120.557 394.447 120.088C393.167 119.619 392.164 118.936 391.439 118.04C390.735 117.123 390.383 116.035 390.383 114.776C390.383 113.453 390.745 112.323 391.471 111.384C392.196 110.424 393.209 109.688 394.511 109.176C395.812 108.643 397.305 108.376 398.991 108.376C400.719 108.376 402.223 108.643 403.503 109.176C404.804 109.688 405.817 110.424 406.543 111.384C407.289 112.323 407.663 113.453 407.663 114.776C407.663 116.035 407.3 117.123 406.575 118.04C405.871 118.936 404.868 119.619 403.567 120.088C402.265 120.557 400.74 120.792 398.991 120.792ZM398.991 117.752C400.079 117.752 400.932 117.507 401.551 117.016C402.191 116.525 402.511 115.853 402.511 115C402.511 114.104 402.18 113.411 401.519 112.92C400.879 112.429 400.036 112.184 398.991 112.184C397.967 112.184 397.135 112.429 396.495 112.92C395.855 113.411 395.535 114.104 395.535 115C395.535 115.853 395.844 116.525 396.463 117.016C397.081 117.507 397.924 117.752 398.991 117.752Z" fill="white"/>
<path d="M523.244 132.382V129.022L531.884 120.862C532.567 120.244 533.068 119.689 533.388 119.198C533.708 118.708 533.921 118.26 534.028 117.854C534.156 117.449 534.22 117.076 534.22 116.734C534.22 115.838 533.911 115.156 533.292 114.686C532.695 114.196 531.809 113.95 530.636 113.95C529.697 113.95 528.823 114.132 528.012 114.494C527.223 114.857 526.551 115.422 525.996 116.19L522.22 113.758C523.073 112.478 524.268 111.465 525.804 110.718C527.34 109.972 529.111 109.598 531.116 109.598C532.78 109.598 534.231 109.876 535.468 110.43C536.727 110.964 537.697 111.721 538.38 112.702C539.084 113.684 539.436 114.857 539.436 116.222C539.436 116.948 539.34 117.673 539.148 118.398C538.977 119.102 538.615 119.849 538.06 120.638C537.527 121.428 536.737 122.313 535.692 123.294L528.524 130.046L527.532 128.158H540.172V132.382H523.244ZM550.183 109.598C552.252 109.598 554.034 110.025 555.527 110.878C557.02 111.732 558.172 112.98 558.983 114.622C559.794 116.244 560.199 118.27 560.199 120.702C560.199 123.284 559.708 125.47 558.727 127.262C557.767 129.054 556.434 130.42 554.727 131.358C553.02 132.297 551.036 132.766 548.775 132.766C547.602 132.766 546.471 132.638 545.383 132.382C544.295 132.126 543.356 131.742 542.567 131.23L544.487 127.422C545.106 127.849 545.767 128.148 546.471 128.318C547.175 128.468 547.911 128.542 548.679 128.542C550.599 128.542 552.124 127.956 553.255 126.782C554.407 125.609 554.983 123.87 554.983 121.566C554.983 121.182 554.972 120.756 554.951 120.286C554.93 119.817 554.876 119.348 554.791 118.878L556.199 120.222C555.836 121.054 555.324 121.758 554.663 122.334C554.002 122.889 553.234 123.316 552.359 123.614C551.484 123.892 550.503 124.03 549.415 124.03C547.986 124.03 546.684 123.742 545.511 123.166C544.359 122.59 543.431 121.78 542.727 120.734C542.044 119.689 541.703 118.462 541.703 117.054C541.703 115.518 542.076 114.196 542.823 113.086C543.591 111.977 544.615 111.124 545.895 110.526C547.196 109.908 548.626 109.598 550.183 109.598ZM550.503 113.47C549.756 113.47 549.106 113.609 548.551 113.886C547.996 114.142 547.559 114.526 547.239 115.038C546.919 115.529 546.759 116.116 546.759 116.798C546.759 117.822 547.1 118.644 547.783 119.262C548.487 119.86 549.415 120.158 550.567 120.158C551.314 120.158 551.975 120.02 552.551 119.742C553.148 119.444 553.607 119.038 553.927 118.526C554.247 118.014 554.407 117.438 554.407 116.798C554.407 116.158 554.247 115.593 553.927 115.102C553.628 114.59 553.191 114.196 552.615 113.918C552.039 113.62 551.335 113.47 550.503 113.47Z" fill="black"/>
<path d="M835.794 132.384C834.237 132.384 832.69 132.181 831.154 131.776C829.618 131.349 828.317 130.752 827.25 129.984L829.266 126.016C830.12 126.635 831.112 127.125 832.242 127.488C833.373 127.851 834.514 128.032 835.666 128.032C836.968 128.032 837.992 127.776 838.738 127.264C839.485 126.752 839.858 126.048 839.858 125.152C839.858 124.299 839.528 123.627 838.866 123.136C838.205 122.645 837.138 122.4 835.666 122.4H833.298V118.976L839.538 111.904L840.114 113.76H828.37V109.6H844.05V112.96L837.842 120.032L835.218 118.528H836.722C839.474 118.528 841.554 119.147 842.962 120.384C844.37 121.621 845.074 123.211 845.074 125.152C845.074 126.411 844.744 127.595 844.082 128.704C843.421 129.792 842.408 130.677 841.042 131.36C839.677 132.043 837.928 132.384 835.794 132.384ZM850.924 132V111.52L853.164 113.76H846.444V109.6H856.108V132H850.924Z" fill="black"/>
<path d="M987.804 131.384C985.969 131.384 984.327 130.936 982.876 130.04C981.425 129.123 980.284 127.8 979.452 126.072C978.62 124.344 978.204 122.253 978.204 119.8C978.204 117.347 978.62 115.256 979.452 113.528C980.284 111.8 981.425 110.488 982.876 109.592C984.327 108.675 985.969 108.216 987.804 108.216C989.66 108.216 991.303 108.675 992.732 109.592C994.183 110.488 995.324 111.8 996.156 113.528C996.988 115.256 997.404 117.347 997.404 119.8C997.404 122.253 996.988 124.344 996.156 126.072C995.324 127.8 994.183 129.123 992.732 130.04C991.303 130.936 989.66 131.384 987.804 131.384ZM987.804 127C988.679 127 989.436 126.755 990.076 126.264C990.737 125.773 991.249 124.995 991.612 123.928C991.996 122.861 992.188 121.485 992.188 119.8C992.188 118.115 991.996 116.739 991.612 115.672C991.249 114.605 990.737 113.827 990.076 113.336C989.436 112.845 988.679 112.6 987.804 112.6C986.951 112.6 986.193 112.845 985.532 113.336C984.892 113.827 984.38 114.605 983.996 115.672C983.633 116.739 983.452 118.115 983.452 119.8C983.452 121.485 983.633 122.861 983.996 123.928C984.38 124.995 984.892 125.773 985.532 126.264C986.193 126.755 986.951 127 987.804 127ZM1003.25 131V110.52L1005.49 112.76H998.774V108.6H1008.44V131H1003.25Z" fill="black"/>
<path d="M680.165 132.766C678.608 132.766 677.061 132.564 675.525 132.158C673.989 131.732 672.688 131.134 671.621 130.366L673.637 126.398C674.491 127.017 675.483 127.508 676.613 127.87C677.744 128.233 678.885 128.414 680.037 128.414C681.339 128.414 682.363 128.158 683.109 127.646C683.856 127.134 684.229 126.43 684.229 125.534C684.229 124.681 683.899 124.009 683.237 123.518C682.576 123.028 681.509 122.782 680.037 122.782H677.669V119.358L683.909 112.286L684.485 114.142H672.741V109.982H688.421V113.342L682.213 120.414L679.589 118.91H681.093C683.845 118.91 685.925 119.529 687.333 120.766C688.741 122.004 689.445 123.593 689.445 125.534C689.445 126.793 689.115 127.977 688.453 129.086C687.792 130.174 686.779 131.06 685.413 131.742C684.048 132.425 682.299 132.766 680.165 132.766ZM701.439 132.766C699.604 132.766 697.962 132.318 696.511 131.422C695.06 130.505 693.919 129.182 693.087 127.454C692.255 125.726 691.839 123.636 691.839 121.182C691.839 118.729 692.255 116.638 693.087 114.91C693.919 113.182 695.06 111.87 696.511 110.974C697.962 110.057 699.604 109.598 701.439 109.598C703.295 109.598 704.938 110.057 706.367 110.974C707.818 111.87 708.959 113.182 709.791 114.91C710.623 116.638 711.039 118.729 711.039 121.182C711.039 123.636 710.623 125.726 709.791 127.454C708.959 129.182 707.818 130.505 706.367 131.422C704.938 132.318 703.295 132.766 701.439 132.766ZM701.439 128.382C702.314 128.382 703.071 128.137 703.711 127.646C704.372 127.156 704.884 126.377 705.247 125.31C705.631 124.244 705.823 122.868 705.823 121.182C705.823 119.497 705.631 118.121 705.247 117.054C704.884 115.988 704.372 115.209 703.711 114.718C703.071 114.228 702.314 113.982 701.439 113.982C700.586 113.982 699.828 114.228 699.167 114.718C698.527 115.209 698.015 115.988 697.631 117.054C697.268 118.121 697.087 119.497 697.087 121.182C697.087 122.868 697.268 124.244 697.631 125.31C698.015 126.377 698.527 127.156 699.167 127.646C699.828 128.137 700.586 128.382 701.439 128.382Z" fill="black"/>
<path d="M73.9597 242.293C72.125 242.293 70.4824 241.845 69.0317 240.949C67.581 240.031 66.4397 238.709 65.6077 236.981C64.7757 235.253 64.3597 233.162 64.3597 230.709C64.3597 228.255 64.7757 226.165 65.6077 224.437C66.4397 222.709 67.581 221.397 69.0317 220.501C70.4824 219.583 72.125 219.125 73.9597 219.125C75.8157 219.125 77.4584 219.583 78.8877 220.501C80.3384 221.397 81.4797 222.709 82.3117 224.437C83.1437 226.165 83.5597 228.255 83.5597 230.709C83.5597 233.162 83.1437 235.253 82.3117 236.981C81.4797 238.709 80.3384 240.031 78.8877 240.949C77.4584 241.845 75.8157 242.293 73.9597 242.293ZM73.9597 237.909C74.8344 237.909 75.5917 237.663 76.2317 237.173C76.893 236.682 77.405 235.903 77.7677 234.837C78.1517 233.77 78.3437 232.394 78.3437 230.709C78.3437 229.023 78.1517 227.647 77.7677 226.581C77.405 225.514 76.893 224.735 76.2317 224.245C75.5917 223.754 74.8344 223.509 73.9597 223.509C73.1064 223.509 72.349 223.754 71.6877 224.245C71.0477 224.735 70.5357 225.514 70.1517 226.581C69.789 227.647 69.6077 229.023 69.6077 230.709C69.6077 232.394 69.789 233.77 70.1517 234.837C70.5357 235.903 71.0477 236.682 71.6877 237.173C72.349 237.663 73.1064 237.909 73.9597 237.909ZM85.7615 241.909V238.549L94.4015 230.389C95.0841 229.77 95.5855 229.215 95.9055 228.725C96.2255 228.234 96.4388 227.786 96.5455 227.381C96.6735 226.975 96.7375 226.602 96.7375 226.261C96.7375 225.365 96.4281 224.682 95.8095 224.213C95.2121 223.722 94.3268 223.477 93.1535 223.477C92.2148 223.477 91.3401 223.658 90.5295 224.021C89.7401 224.383 89.0681 224.949 88.5135 225.717L84.7375 223.285C85.5908 222.005 86.7855 220.991 88.3215 220.245C89.8575 219.498 91.6281 219.125 93.6335 219.125C95.2975 219.125 96.7481 219.402 97.9855 219.957C99.2441 220.49 100.215 221.247 100.897 222.229C101.601 223.21 101.953 224.383 101.953 225.749C101.953 226.474 101.857 227.199 101.665 227.925C101.495 228.629 101.132 229.375 100.577 230.165C100.044 230.954 99.2548 231.839 98.2095 232.821L91.0415 239.573L90.0495 237.685H102.689V241.909H85.7615Z" fill="black"/>
<path d="M228.075 215.77C226.24 215.77 224.598 215.322 223.147 214.426C221.696 213.508 220.555 212.186 219.723 210.458C218.891 208.73 218.475 206.639 218.475 204.186C218.475 201.732 218.891 199.642 219.723 197.914C220.555 196.186 221.696 194.874 223.147 193.978C224.598 193.06 226.24 192.602 228.075 192.602C229.931 192.602 231.574 193.06 233.003 193.978C234.454 194.874 235.595 196.186 236.427 197.914C237.259 199.642 237.675 201.732 237.675 204.186C237.675 206.639 237.259 208.73 236.427 210.458C235.595 212.186 234.454 213.508 233.003 214.426C231.574 215.322 229.931 215.77 228.075 215.77ZM228.075 211.386C228.95 211.386 229.707 211.14 230.347 210.65C231.008 210.159 231.52 209.38 231.883 208.314C232.267 207.247 232.459 205.871 232.459 204.186C232.459 202.5 232.267 201.124 231.883 200.058C231.52 198.991 231.008 198.212 230.347 197.722C229.707 197.231 228.95 196.986 228.075 196.986C227.222 196.986 226.464 197.231 225.803 197.722C225.163 198.212 224.651 198.991 224.267 200.058C223.904 201.124 223.723 202.5 223.723 204.186C223.723 205.871 223.904 207.247 224.267 208.314C224.651 209.38 225.163 210.159 225.803 210.65C226.464 211.14 227.222 211.386 228.075 211.386ZM247.145 215.77C245.588 215.77 244.041 215.567 242.505 215.162C240.969 214.735 239.668 214.138 238.601 213.37L240.617 209.402C241.471 210.02 242.463 210.511 243.593 210.874C244.724 211.236 245.865 211.418 247.017 211.418C248.319 211.418 249.343 211.162 250.089 210.65C250.836 210.138 251.209 209.434 251.209 208.538C251.209 207.684 250.879 207.012 250.217 206.522C249.556 206.031 248.489 205.786 247.017 205.786H244.649V202.362L250.889 195.29L251.465 197.146H239.721V192.986H255.401V196.346L249.193 203.418L246.569 201.914H248.073C250.825 201.914 252.905 202.532 254.313 203.77C255.721 205.007 256.425 206.596 256.425 208.538C256.425 209.796 256.095 210.98 255.433 212.09C254.772 213.178 253.759 214.063 252.393 214.746C251.028 215.428 249.279 215.77 247.145 215.77Z" fill="black"/>
<path d="M381.167 241.946C379.333 241.946 377.69 241.498 376.239 240.602C374.789 239.684 373.647 238.362 372.815 236.634C371.983 234.906 371.567 232.815 371.567 230.362C371.567 227.908 371.983 225.818 372.815 224.09C373.647 222.362 374.789 221.05 376.239 220.154C377.69 219.236 379.333 218.778 381.167 218.778C383.023 218.778 384.666 219.236 386.095 220.154C387.546 221.05 388.687 222.362 389.519 224.09C390.351 225.818 390.767 227.908 390.767 230.362C390.767 232.815 390.351 234.906 389.519 236.634C388.687 238.362 387.546 239.684 386.095 240.602C384.666 241.498 383.023 241.946 381.167 241.946ZM381.167 237.562C382.042 237.562 382.799 237.316 383.439 236.826C384.101 236.335 384.613 235.556 384.975 234.49C385.359 233.423 385.551 232.047 385.551 230.362C385.551 228.676 385.359 227.3 384.975 226.234C384.613 225.167 384.101 224.388 383.439 223.898C382.799 223.407 382.042 223.162 381.167 223.162C380.314 223.162 379.557 223.407 378.895 223.898C378.255 224.388 377.743 225.167 377.359 226.234C376.997 227.3 376.815 228.676 376.815 230.362C376.815 232.047 376.997 233.423 377.359 234.49C377.743 235.556 378.255 236.335 378.895 236.826C379.557 237.316 380.314 237.562 381.167 237.562ZM393.03 236.858V233.37L403.59 219.162H409.03L398.694 233.37L396.166 232.634H413.798V236.858H393.03ZM405.094 241.562V236.858L405.254 232.634V228.442H410.15V241.562H405.094Z" fill="white"/>
<path d="M527.994 241.384C526.16 241.384 524.517 240.936 523.066 240.04C521.616 239.123 520.474 237.8 519.642 236.072C518.81 234.344 518.394 232.253 518.394 229.8C518.394 227.347 518.81 225.256 519.642 223.528C520.474 221.8 521.616 220.488 523.066 219.592C524.517 218.675 526.16 218.216 527.994 218.216C529.85 218.216 531.493 218.675 532.922 219.592C534.373 220.488 535.514 221.8 536.346 223.528C537.178 225.256 537.594 227.347 537.594 229.8C537.594 232.253 537.178 234.344 536.346 236.072C535.514 237.8 534.373 239.123 532.922 240.04C531.493 240.936 529.85 241.384 527.994 241.384ZM527.994 237C528.869 237 529.626 236.755 530.266 236.264C530.928 235.773 531.44 234.995 531.802 233.928C532.186 232.861 532.378 231.485 532.378 229.8C532.378 228.115 532.186 226.739 531.802 225.672C531.44 224.605 530.928 223.827 530.266 223.336C529.626 222.845 528.869 222.6 527.994 222.6C527.141 222.6 526.384 222.845 525.722 223.336C525.082 223.827 524.57 224.605 524.186 225.672C523.824 226.739 523.642 228.115 523.642 229.8C523.642 231.485 523.824 232.861 524.186 233.928C524.57 234.995 525.082 235.773 525.722 236.264C526.384 236.755 527.141 237 527.994 237ZM547.729 241.384C546.172 241.384 544.625 241.181 543.089 240.776C541.574 240.349 540.273 239.752 539.185 238.984L541.233 235.016C542.086 235.635 543.068 236.125 544.177 236.488C545.308 236.851 546.449 237.032 547.601 237.032C548.902 237.032 549.926 236.776 550.673 236.264C551.42 235.752 551.793 235.037 551.793 234.12C551.793 233.544 551.644 233.032 551.345 232.584C551.046 232.136 550.513 231.795 549.745 231.56C548.998 231.325 547.942 231.208 546.577 231.208H540.849L542.001 218.6H555.665V222.76H543.857L546.545 220.392L545.745 229.384L543.057 227.016H547.793C550.012 227.016 551.793 227.325 553.137 227.944C554.502 228.541 555.494 229.363 556.113 230.408C556.732 231.453 557.041 232.637 557.041 233.96C557.041 235.283 556.71 236.509 556.049 237.64C555.388 238.749 554.364 239.656 552.977 240.36C551.612 241.043 549.862 241.384 547.729 241.384Z" fill="black"/>
<path d="M829.136 243.384C827.301 243.384 825.658 242.936 824.208 242.04C822.757 241.123 821.616 239.8 820.784 238.072C819.952 236.344 819.536 234.253 819.536 231.8C819.536 229.347 819.952 227.256 820.784 225.528C821.616 223.8 822.757 222.488 824.208 221.592C825.658 220.675 827.301 220.216 829.136 220.216C830.992 220.216 832.634 220.675 834.064 221.592C835.514 222.488 836.656 223.8 837.488 225.528C838.32 227.256 838.736 229.347 838.736 231.8C838.736 234.253 838.32 236.344 837.488 238.072C836.656 239.8 835.514 241.123 834.064 242.04C832.634 242.936 830.992 243.384 829.136 243.384ZM829.136 239C830.01 239 830.768 238.755 831.408 238.264C832.069 237.773 832.581 236.995 832.944 235.928C833.328 234.861 833.52 233.485 833.52 231.8C833.52 230.115 833.328 228.739 832.944 227.672C832.581 226.605 832.069 225.827 831.408 225.336C830.768 224.845 830.01 224.6 829.136 224.6C828.282 224.6 827.525 224.845 826.864 225.336C826.224 225.827 825.712 226.605 825.328 227.672C824.965 228.739 824.784 230.115 824.784 231.8C824.784 233.485 824.965 234.861 825.328 235.928C825.712 236.995 826.224 237.773 826.864 238.264C827.525 238.755 828.282 239 829.136 239ZM844.745 243L853.769 222.584L855.113 224.824H843.049L845.353 222.392V228.472H840.745V220.6H858.697V223.96L850.377 243H844.745Z" fill="black"/>
<path d="M984.949 242.384C983.114 242.384 981.472 241.936 980.021 241.04C978.57 240.123 977.429 238.8 976.597 237.072C975.765 235.344 975.349 233.253 975.349 230.8C975.349 228.347 975.765 226.256 976.597 224.528C977.429 222.8 978.57 221.488 980.021 220.592C981.472 219.675 983.114 219.216 984.949 219.216C986.805 219.216 988.448 219.675 989.877 220.592C991.328 221.488 992.469 222.8 993.301 224.528C994.133 226.256 994.549 228.347 994.549 230.8C994.549 233.253 994.133 235.344 993.301 237.072C992.469 238.8 991.328 240.123 989.877 241.04C988.448 241.936 986.805 242.384 984.949 242.384ZM984.949 238C985.824 238 986.581 237.755 987.221 237.264C987.882 236.773 988.394 235.995 988.757 234.928C989.141 233.861 989.333 232.485 989.333 230.8C989.333 229.115 989.141 227.739 988.757 226.672C988.394 225.605 987.882 224.827 987.221 224.336C986.581 223.845 985.824 223.6 984.949 223.6C984.096 223.6 983.338 223.845 982.677 224.336C982.037 224.827 981.525 225.605 981.141 226.672C980.778 227.739 980.597 229.115 980.597 230.8C980.597 232.485 980.778 233.861 981.141 234.928C981.525 235.995 982.037 236.773 982.677 237.264C983.338 237.755 984.096 238 984.949 238ZM1006.35 242.384C1004.47 242.384 1002.83 242.107 1001.42 241.552C1000.01 240.976 998.913 240.176 998.124 239.152C997.335 238.107 996.94 236.891 996.94 235.504C996.94 234.117 997.324 232.944 998.092 231.984C998.881 231.003 999.98 230.267 1001.39 229.776C1002.8 229.264 1004.45 229.008 1006.35 229.008C1008.27 229.008 1009.93 229.264 1011.34 229.776C1012.77 230.267 1013.87 231.003 1014.64 231.984C1015.43 232.944 1015.82 234.117 1015.82 235.504C1015.82 236.891 1015.43 238.107 1014.64 239.152C1013.85 240.176 1012.74 240.976 1011.31 241.552C1009.9 242.107 1008.25 242.384 1006.35 242.384ZM1006.35 238.576C1007.65 238.576 1008.67 238.288 1009.42 237.712C1010.19 237.136 1010.57 236.347 1010.57 235.344C1010.57 234.341 1010.19 233.563 1009.42 233.008C1008.67 232.432 1007.65 232.144 1006.35 232.144C1005.07 232.144 1004.05 232.432 1003.31 233.008C1002.56 233.563 1002.19 234.341 1002.19 235.344C1002.19 236.347 1002.56 237.136 1003.31 237.712C1004.05 238.288 1005.07 238.576 1006.35 238.576ZM1006.35 231.632C1004.62 231.632 1003.11 231.397 1001.8 230.928C1000.52 230.459 999.521 229.776 998.796 228.88C998.092 227.963 997.74 226.875 997.74 225.616C997.74 224.293 998.103 223.163 998.828 222.224C999.553 221.264 1000.57 220.528 1001.87 220.016C1003.17 219.483 1004.66 219.216 1006.35 219.216C1008.08 219.216 1009.58 219.483 1010.86 220.016C1012.16 220.528 1013.17 221.264 1013.9 222.224C1014.65 223.163 1015.02 224.293 1015.02 225.616C1015.02 226.875 1014.66 227.963 1013.93 228.88C1013.23 229.776 1012.23 230.459 1010.92 230.928C1009.62 231.397 1008.1 231.632 1006.35 231.632ZM1006.35 228.592C1007.44 228.592 1008.29 228.347 1008.91 227.856C1009.55 227.365 1009.87 226.693 1009.87 225.84C1009.87 224.944 1009.54 224.251 1008.88 223.76C1008.24 223.269 1007.39 223.024 1006.35 223.024C1005.32 223.024 1004.49 223.269 1003.85 223.76C1003.21 224.251 1002.89 224.944 1002.89 225.84C1002.89 226.693 1003.2 227.365 1003.82 227.856C1004.44 228.347 1005.28 228.592 1006.35 228.592Z" fill="black"/>
<path d="M683.304 241.946C681.47 241.946 679.827 241.498 678.376 240.602C676.926 239.684 675.784 238.362 674.952 236.634C674.12 234.906 673.704 232.815 673.704 230.362C673.704 227.908 674.12 225.818 674.952 224.09C675.784 222.362 676.926 221.05 678.376 220.154C679.827 219.236 681.47 218.778 683.304 218.778C685.16 218.778 686.803 219.236 688.232 220.154C689.683 221.05 690.824 222.362 691.656 224.09C692.488 225.818 692.904 227.908 692.904 230.362C692.904 232.815 692.488 234.906 691.656 236.634C690.824 238.362 689.683 239.684 688.232 240.602C686.803 241.498 685.16 241.946 683.304 241.946ZM683.304 237.562C684.179 237.562 684.936 237.316 685.576 236.826C686.238 236.335 686.75 235.556 687.112 234.49C687.496 233.423 687.688 232.047 687.688 230.362C687.688 228.676 687.496 227.3 687.112 226.234C686.75 225.167 686.238 224.388 685.576 223.898C684.936 223.407 684.179 223.162 683.304 223.162C682.451 223.162 681.694 223.407 681.032 223.898C680.392 224.388 679.88 225.167 679.496 226.234C679.134 227.3 678.952 228.676 678.952 230.362C678.952 232.047 679.134 233.423 679.496 234.49C679.88 235.556 680.392 236.335 681.032 236.826C681.694 237.316 682.451 237.562 683.304 237.562ZM705.439 241.946C703.391 241.946 701.61 241.519 700.095 240.666C698.602 239.812 697.45 238.564 696.639 236.922C695.829 235.279 695.423 233.252 695.423 230.842C695.423 228.26 695.903 226.074 696.863 224.282C697.845 222.49 699.189 221.124 700.895 220.186C702.623 219.247 704.607 218.778 706.847 218.778C708.042 218.778 709.183 218.906 710.271 219.162C711.359 219.418 712.298 219.802 713.087 220.314L711.167 224.122C710.549 223.695 709.887 223.407 709.183 223.258C708.479 223.087 707.743 223.002 706.975 223.002C705.034 223.002 703.498 223.588 702.367 224.762C701.237 225.935 700.671 227.674 700.671 229.978C700.671 230.362 700.671 230.788 700.671 231.258C700.693 231.727 700.757 232.196 700.863 232.666L699.423 231.322C699.829 230.49 700.351 229.796 700.991 229.242C701.631 228.666 702.389 228.239 703.263 227.962C704.159 227.663 705.141 227.514 706.207 227.514C707.658 227.514 708.959 227.802 710.111 228.378C711.263 228.954 712.181 229.764 712.863 230.81C713.567 231.855 713.919 233.082 713.919 234.49C713.919 236.004 713.535 237.327 712.767 238.458C712.021 239.567 711.007 240.431 709.727 241.05C708.469 241.647 707.039 241.946 705.439 241.946ZM705.151 238.074C705.877 238.074 706.517 237.946 707.071 237.69C707.647 237.412 708.095 237.018 708.415 236.506C708.735 235.994 708.895 235.407 708.895 234.746C708.895 233.722 708.543 232.911 707.839 232.314C707.157 231.695 706.239 231.386 705.087 231.386C704.319 231.386 703.647 231.535 703.071 231.834C702.495 232.111 702.037 232.506 701.695 233.018C701.375 233.508 701.215 234.084 701.215 234.746C701.215 235.386 701.375 235.962 701.695 236.474C702.015 236.964 702.463 237.359 703.039 237.658C703.615 237.935 704.319 238.074 705.151 238.074Z" fill="black"/>
<path d="M72.3315 358.384C70.4968 358.384 68.8542 357.936 67.4035 357.04C65.9528 356.123 64.8115 354.8 63.9795 353.072C63.1475 351.344 62.7315 349.253 62.7315 346.8C62.7315 344.347 63.1475 342.256 63.9795 340.528C64.8115 338.8 65.9528 337.488 67.4035 336.592C68.8542 335.675 70.4968 335.216 72.3315 335.216C74.1875 335.216 75.8302 335.675 77.2595 336.592C78.7102 337.488 79.8515 338.8 80.6835 340.528C81.5155 342.256 81.9315 344.347 81.9315 346.8C81.9315 349.253 81.5155 351.344 80.6835 353.072C79.8515 354.8 78.7102 356.123 77.2595 357.04C75.8302 357.936 74.1875 358.384 72.3315 358.384ZM72.3315 354C73.2062 354 73.9635 353.755 74.6035 353.264C75.2648 352.773 75.7768 351.995 76.1395 350.928C76.5235 349.861 76.7155 348.485 76.7155 346.8C76.7155 345.115 76.5235 343.739 76.1395 342.672C75.7768 341.605 75.2648 340.827 74.6035 340.336C73.9635 339.845 73.2062 339.6 72.3315 339.6C71.4782 339.6 70.7208 339.845 70.0595 340.336C69.4195 340.827 68.9075 341.605 68.5235 342.672C68.1608 343.739 67.9795 345.115 67.9795 346.8C67.9795 348.485 68.1608 349.861 68.5235 350.928C68.9075 351.995 69.4195 352.773 70.0595 353.264C70.7208 353.755 71.4782 354 72.3315 354ZM92.3223 335.216C94.3916 335.216 96.1729 335.643 97.6663 336.496C99.1596 337.349 100.312 338.597 101.122 340.24C101.933 341.861 102.338 343.888 102.338 346.32C102.338 348.901 101.848 351.088 100.866 352.88C99.9063 354.672 98.5729 356.037 96.8663 356.976C95.1596 357.915 93.1756 358.384 90.9143 358.384C89.7409 358.384 88.6103 358.256 87.5223 358C86.4343 357.744 85.4956 357.36 84.7063 356.848L86.6263 353.04C87.2449 353.467 87.9063 353.765 88.6103 353.936C89.3143 354.085 90.0503 354.16 90.8183 354.16C92.7383 354.16 94.2636 353.573 95.3943 352.4C96.5463 351.227 97.1223 349.488 97.1223 347.184C97.1223 346.8 97.1116 346.373 97.0903 345.904C97.0689 345.435 97.0156 344.965 96.9303 344.496L98.3383 345.84C97.9756 346.672 97.4636 347.376 96.8023 347.952C96.1409 348.507 95.3729 348.933 94.4983 349.232C93.6236 349.509 92.6423 349.648 91.5543 349.648C90.1249 349.648 88.8236 349.36 87.6503 348.784C86.4983 348.208 85.5703 347.397 84.8663 346.352C84.1836 345.307 83.8423 344.08 83.8423 342.672C83.8423 341.136 84.2156 339.813 84.9623 338.704C85.7303 337.595 86.7543 336.741 88.0343 336.144C89.3356 335.525 90.7649 335.216 92.3223 335.216ZM92.6423 339.088C91.8956 339.088 91.2449 339.227 90.6903 339.504C90.1356 339.76 89.6983 340.144 89.3783 340.656C89.0583 341.147 88.8983 341.733 88.8983 342.416C88.8983 343.44 89.2396 344.261 89.9223 344.88C90.6263 345.477 91.5543 345.776 92.7063 345.776C93.4529 345.776 94.1143 345.637 94.6903 345.36C95.2876 345.061 95.7463 344.656 96.0663 344.144C96.3863 343.632 96.5463 343.056 96.5463 342.416C96.5463 341.776 96.3863 341.211 96.0663 340.72C95.7676 340.208 95.3303 339.813 94.7543 339.536C94.1783 339.237 93.4743 339.088 92.6423 339.088Z" fill="black"/>
<path d="M226.871 356.611V336.131L229.111 338.371H222.391V334.211H232.055V356.611H226.871ZM245.546 356.995C243.712 356.995 242.069 356.547 240.618 355.651C239.168 354.733 238.026 353.411 237.194 351.683C236.362 349.955 235.946 347.864 235.946 345.411C235.946 342.957 236.362 340.867 237.194 339.139C238.026 337.411 239.168 336.099 240.618 335.203C242.069 334.285 243.712 333.827 245.546 333.827C247.402 333.827 249.045 334.285 250.474 335.203C251.925 336.099 253.066 337.411 253.898 339.139C254.73 340.867 255.146 342.957 255.146 345.411C255.146 347.864 254.73 349.955 253.898 351.683C253.066 353.411 251.925 354.733 250.474 355.651C249.045 356.547 247.402 356.995 245.546 356.995ZM245.546 352.611C246.421 352.611 247.178 352.365 247.818 351.875C248.48 351.384 248.992 350.605 249.354 349.539C249.738 348.472 249.93 347.096 249.93 345.411C249.93 343.725 249.738 342.349 249.354 341.283C248.992 340.216 248.48 339.437 247.818 338.947C247.178 338.456 246.421 338.211 245.546 338.211C244.693 338.211 243.936 338.456 243.274 338.947C242.634 339.437 242.122 340.216 241.738 341.283C241.376 342.349 241.194 343.725 241.194 345.411C241.194 347.096 241.376 348.472 241.738 349.539C242.122 350.605 242.634 351.384 243.274 351.875C243.936 352.365 244.693 352.611 245.546 352.611Z" fill="black"/>
<path d="M382.687 353V332.52L384.927 334.76H378.207V330.6H387.871V353H382.687ZM395.218 353V332.52L397.458 334.76H390.738V330.6H400.402V353H395.218Z" fill="white"/>
<path d="M533.529 351.189V330.709L535.769 332.949H529.049V328.789H538.713V351.189H533.529ZM542.412 351.189V347.829L551.052 339.669C551.735 339.051 552.236 338.496 552.556 338.005C552.876 337.515 553.09 337.067 553.196 336.661C553.324 336.256 553.388 335.883 553.388 335.541C553.388 334.645 553.079 333.963 552.46 333.493C551.863 333.003 550.978 332.757 549.804 332.757C548.866 332.757 547.991 332.939 547.18 333.301C546.391 333.664 545.719 334.229 545.164 334.997L541.388 332.565C542.242 331.285 543.436 330.272 544.972 329.525C546.508 328.779 548.279 328.405 550.284 328.405C551.948 328.405 553.399 328.683 554.636 329.237C555.895 329.771 556.866 330.528 557.548 331.509C558.252 332.491 558.604 333.664 558.604 335.029C558.604 335.755 558.508 336.48 558.316 337.205C558.146 337.909 557.783 338.656 557.228 339.445C556.695 340.235 555.906 341.12 554.86 342.101L547.692 348.853L546.7 346.965H559.34V351.189H542.412Z" fill="white"/>
<path d="M832.215 351.189V330.709L834.455 332.949H827.735V328.789H837.399V351.189H832.215ZM841.034 346.485V342.997L851.594 328.789H857.034L846.698 342.997L844.17 342.261H861.802V346.485H841.034ZM853.098 351.189V346.485L853.258 342.261V338.069H858.154V351.189H853.098Z" fill="white"/>
<path d="M988.262 356.611V336.131L990.502 338.371H983.782V334.211H993.446V356.611H988.262ZM1004.95 356.995C1003.4 356.995 1001.85 356.792 1000.31 356.387C998.799 355.96 997.497 355.363 996.409 354.595L998.457 350.627C999.311 351.245 1000.29 351.736 1001.4 352.099C1002.53 352.461 1003.67 352.643 1004.83 352.643C1006.13 352.643 1007.15 352.387 1007.9 351.875C1008.64 351.363 1009.02 350.648 1009.02 349.731C1009.02 349.155 1008.87 348.643 1008.57 348.195C1008.27 347.747 1007.74 347.405 1006.97 347.171C1006.22 346.936 1005.17 346.819 1003.8 346.819H998.073L999.225 334.211H1012.89V338.371H1001.08L1003.77 336.003L1002.97 344.995L1000.28 342.627H1005.02C1007.24 342.627 1009.02 342.936 1010.36 343.555C1011.73 344.152 1012.72 344.973 1013.34 346.019C1013.96 347.064 1014.27 348.248 1014.27 349.571C1014.27 350.893 1013.93 352.12 1013.27 353.251C1012.61 354.36 1011.59 355.267 1010.2 355.971C1008.84 356.653 1007.09 356.995 1004.95 356.995Z" fill="black"/>
<path d="M681.609 351.189V330.709L683.849 332.949H677.129V328.789H686.793V351.189H681.609ZM697.949 351.573C696.391 351.573 694.845 351.371 693.309 350.965C691.773 350.539 690.471 349.941 689.405 349.173L691.421 345.205C692.274 345.824 693.266 346.315 694.397 346.677C695.527 347.04 696.669 347.221 697.821 347.221C699.122 347.221 700.146 346.965 700.893 346.453C701.639 345.941 702.013 345.237 702.013 344.341C702.013 343.488 701.682 342.816 701.021 342.325C700.359 341.835 699.293 341.589 697.821 341.589H695.453V338.165L701.693 331.093L702.269 332.949H690.525V328.789H706.205V332.149L699.997 339.221L697.373 337.717H698.877C701.629 337.717 703.709 338.336 705.117 339.573C706.525 340.811 707.229 342.4 707.229 344.341C707.229 345.6 706.898 346.784 706.237 347.893C705.575 348.981 704.562 349.867 703.197 350.549C701.831 351.232 700.082 351.573 697.949 351.573Z" fill="white"/>
<path d="M71.597 465.615V445.135L73.837 447.375H67.117V443.215H76.781V465.615H71.597ZM90.6882 465.999C88.6402 465.999 86.8589 465.573 85.3442 464.719C83.8509 463.866 82.6989 462.618 81.8882 460.975C81.0775 459.333 80.6722 457.306 80.6722 454.895C80.6722 452.314 81.1522 450.127 82.1122 448.335C83.0935 446.543 84.4375 445.178 86.1442 444.239C87.8722 443.301 89.8562 442.831 92.0962 442.831C93.2909 442.831 94.4322 442.959 95.5202 443.215C96.6082 443.471 97.5469 443.855 98.3362 444.367L96.4162 448.175C95.7975 447.749 95.1362 447.461 94.4322 447.311C93.7282 447.141 92.9922 447.055 92.2242 447.055C90.2829 447.055 88.7469 447.642 87.6162 448.815C86.4855 449.989 85.9202 451.727 85.9202 454.031C85.9202 454.415 85.9202 454.842 85.9202 455.311C85.9415 455.781 86.0055 456.25 86.1122 456.719L84.6722 455.375C85.0775 454.543 85.6002 453.85 86.2402 453.295C86.8802 452.719 87.6375 452.293 88.5122 452.015C89.4082 451.717 90.3895 451.567 91.4562 451.567C92.9069 451.567 94.2082 451.855 95.3602 452.431C96.5122 453.007 97.4295 453.818 98.1122 454.863C98.8162 455.909 99.1682 457.135 99.1682 458.543C99.1682 460.058 98.7842 461.381 98.0162 462.511C97.2695 463.621 96.2562 464.485 94.9762 465.103C93.7175 465.701 92.2882 465.999 90.6882 465.999ZM90.4002 462.127C91.1255 462.127 91.7655 461.999 92.3202 461.743C92.8962 461.466 93.3442 461.071 93.6642 460.559C93.9842 460.047 94.1442 459.461 94.1442 458.799C94.1442 457.775 93.7922 456.965 93.0882 456.367C92.4055 455.749 91.4882 455.439 90.3362 455.439C89.5682 455.439 88.8962 455.589 88.3202 455.887C87.7442 456.165 87.2855 456.559 86.9442 457.071C86.6242 457.562 86.4642 458.138 86.4642 458.799C86.4642 459.439 86.6242 460.015 86.9442 460.527C87.2642 461.018 87.7122 461.413 88.2882 461.711C88.8642 461.989 89.5682 462.127 90.4002 462.127Z" fill="black"/>
<path d="M229.323 465.268V444.788L231.563 447.028H224.843V442.868H234.507V465.268H229.323ZM241.982 465.268L251.006 444.852L252.35 447.092H240.286L242.59 444.66V450.74H237.982V442.868H255.934V446.228L247.614 465.268H241.982Z" fill="black"/>
<path d="M383.114 465.268V444.788L385.354 447.028H378.634V442.868H388.298V465.268H383.114ZM401.469 465.652C399.592 465.652 397.949 465.375 396.541 464.82C395.133 464.244 394.035 463.444 393.245 462.42C392.456 461.375 392.061 460.159 392.061 458.772C392.061 457.385 392.445 456.212 393.213 455.252C394.003 454.271 395.101 453.535 396.509 453.044C397.917 452.532 399.571 452.276 401.469 452.276C403.389 452.276 405.053 452.532 406.461 453.044C407.891 453.535 408.989 454.271 409.757 455.252C410.547 456.212 410.941 457.385 410.941 458.772C410.941 460.159 410.547 461.375 409.757 462.42C408.968 463.444 407.859 464.244 406.429 464.82C405.021 465.375 403.368 465.652 401.469 465.652ZM401.469 461.844C402.771 461.844 403.795 461.556 404.541 460.98C405.309 460.404 405.693 459.615 405.693 458.612C405.693 457.609 405.309 456.831 404.541 456.276C403.795 455.7 402.771 455.412 401.469 455.412C400.189 455.412 399.176 455.7 398.429 456.276C397.683 456.831 397.309 457.609 397.309 458.612C397.309 459.615 397.683 460.404 398.429 460.98C399.176 461.556 400.189 461.844 401.469 461.844ZM401.469 454.9C399.741 454.9 398.227 454.665 396.925 454.196C395.645 453.727 394.643 453.044 393.917 452.148C393.213 451.231 392.861 450.143 392.861 448.884C392.861 447.561 393.224 446.431 393.949 445.492C394.675 444.532 395.688 443.796 396.989 443.284C398.291 442.751 399.784 442.484 401.469 442.484C403.197 442.484 404.701 442.751 405.981 443.284C407.283 443.796 408.296 444.532 409.021 445.492C409.768 446.431 410.141 447.561 410.141 448.884C410.141 450.143 409.779 451.231 409.053 452.148C408.349 453.044 407.347 453.727 406.045 454.196C404.744 454.665 403.219 454.9 401.469 454.9ZM401.469 451.86C402.557 451.86 403.411 451.615 404.029 451.124C404.669 450.633 404.989 449.961 404.989 449.108C404.989 448.212 404.659 447.519 403.997 447.028C403.357 446.537 402.515 446.292 401.469 446.292C400.445 446.292 399.613 446.537 398.973 447.028C398.333 447.519 398.013 448.212 398.013 449.108C398.013 449.961 398.323 450.633 398.941 451.124C399.56 451.615 400.403 451.86 401.469 451.86Z" fill="black"/>
<path d="M531.865 465.268V444.788L534.105 447.028H527.385V442.868H537.049V465.268H531.865ZM548.812 442.484C550.881 442.484 552.662 442.911 554.156 443.764C555.649 444.617 556.801 445.865 557.612 447.508C558.422 449.129 558.828 451.156 558.828 453.588C558.828 456.169 558.337 458.356 557.356 460.148C556.396 461.94 555.062 463.305 553.356 464.244C551.649 465.183 549.665 465.652 547.404 465.652C546.23 465.652 545.1 465.524 544.012 465.268C542.924 465.012 541.985 464.628 541.196 464.116L543.116 460.308C543.734 460.735 544.396 461.033 545.1 461.204C545.804 461.353 546.54 461.428 547.308 461.428C549.228 461.428 550.753 460.841 551.884 459.668C553.036 458.495 553.612 456.756 553.612 454.452C553.612 454.068 553.601 453.641 553.58 453.172C553.558 452.703 553.505 452.233 553.42 451.764L554.828 453.108C554.465 453.94 553.953 454.644 553.292 455.22C552.63 455.775 551.862 456.201 550.988 456.5C550.113 456.777 549.132 456.916 548.044 456.916C546.614 456.916 545.313 456.628 544.14 456.052C542.988 455.476 542.06 454.665 541.356 453.62C540.673 452.575 540.332 451.348 540.332 449.94C540.332 448.404 540.705 447.081 541.452 445.972C542.22 444.863 543.244 444.009 544.524 443.412C545.825 442.793 547.254 442.484 548.812 442.484ZM549.132 446.356C548.385 446.356 547.734 446.495 547.18 446.772C546.625 447.028 546.188 447.412 545.868 447.924C545.548 448.415 545.388 449.001 545.388 449.684C545.388 450.708 545.729 451.529 546.412 452.148C547.116 452.745 548.044 453.044 549.196 453.044C549.942 453.044 550.604 452.905 551.18 452.628C551.777 452.329 552.236 451.924 552.556 451.412C552.876 450.9 553.036 450.324 553.036 449.684C553.036 449.044 552.876 448.479 552.556 447.988C552.257 447.476 551.82 447.081 551.244 446.804C550.668 446.505 549.964 446.356 549.132 446.356Z" fill="white"/>
<path d="M829.232 467.713V464.353L837.872 456.193C838.555 455.574 839.056 455.019 839.376 454.529C839.696 454.038 839.909 453.59 840.016 453.185C840.144 452.779 840.208 452.406 840.208 452.065C840.208 451.169 839.899 450.486 839.28 450.017C838.683 449.526 837.797 449.281 836.624 449.281C835.685 449.281 834.811 449.462 834 449.825C833.211 450.187 832.539 450.753 831.984 451.521L828.208 449.089C829.061 447.809 830.256 446.795 831.792 446.049C833.328 445.302 835.099 444.929 837.104 444.929C838.768 444.929 840.219 445.206 841.456 445.761C842.715 446.294 843.685 447.051 844.368 448.033C845.072 449.014 845.424 450.187 845.424 451.553C845.424 452.278 845.328 453.003 845.136 453.729C844.965 454.433 844.603 455.179 844.048 455.969C843.515 456.758 842.725 457.643 841.68 458.625L834.512 465.377L833.52 463.489H846.16V467.713H829.232ZM851.755 467.713V447.233L853.995 449.473H847.275V445.313H856.939V467.713H851.755Z" fill="white"/>
<rect x="619" y="402" width="146.267" height="105.498" fill="#FFCC00" fill-opacity="0.6"/>
<circle cx="36" cy="36" r="36" transform="matrix(0.668462 0.743746 -0.668462 0.743746 692.443 399.56)" fill="#1E90FF"/>
<path d="M981.521 465.268V461.908L990.161 453.748C990.843 453.129 991.345 452.575 991.665 452.084C991.985 451.593 992.198 451.145 992.305 450.74C992.433 450.335 992.497 449.961 992.497 449.62C992.497 448.724 992.187 448.041 991.569 447.572C990.971 447.081 990.086 446.836 988.913 446.836C987.974 446.836 987.099 447.017 986.289 447.38C985.499 447.743 984.827 448.308 984.273 449.076L980.497 446.644C981.35 445.364 982.545 444.351 984.081 443.604C985.617 442.857 987.387 442.484 989.393 442.484C991.057 442.484 992.507 442.761 993.745 443.316C995.003 443.849 995.974 444.607 996.657 445.588C997.361 446.569 997.713 447.743 997.713 449.108C997.713 449.833 997.617 450.559 997.425 451.284C997.254 451.988 996.891 452.735 996.337 453.524C995.803 454.313 995.014 455.199 993.969 456.18L986.801 462.932L985.809 461.044H998.449V465.268H981.521ZM1000.4 465.268V461.908L1009.04 453.748C1009.72 453.129 1010.22 452.575 1010.54 452.084C1010.86 451.593 1011.07 451.145 1011.18 450.74C1011.31 450.335 1011.37 449.961 1011.37 449.62C1011.37 448.724 1011.06 448.041 1010.44 447.572C1009.85 447.081 1008.96 446.836 1007.79 446.836C1006.85 446.836 1005.97 447.017 1005.16 447.38C1004.37 447.743 1003.7 448.308 1003.15 449.076L999.372 446.644C1000.22 445.364 1001.42 444.351 1002.96 443.604C1004.49 442.857 1006.26 442.484 1008.27 442.484C1009.93 442.484 1011.38 442.761 1012.62 443.316C1013.88 443.849 1014.85 444.607 1015.53 445.588C1016.24 446.569 1016.59 447.743 1016.59 449.108C1016.59 449.833 1016.49 450.559 1016.3 451.284C1016.13 451.988 1015.77 452.735 1015.21 453.524C1014.68 454.313 1013.89 455.199 1012.84 456.18L1005.68 462.932L1004.68 461.044H1017.32V465.268H1000.4Z" fill="black"/>
<path d="M672.582 463V459.64L681.222 451.48C681.905 450.861 682.406 450.307 682.726 449.816C683.046 449.325 683.259 448.877 683.366 448.472C683.494 448.067 683.558 447.693 683.558 447.352C683.558 446.456 683.249 445.773 682.63 445.304C682.033 444.813 681.147 444.568 679.974 444.568C679.035 444.568 678.161 444.749 677.35 445.112C676.561 445.475 675.889 446.04 675.334 446.808L671.558 444.376C672.411 443.096 673.606 442.083 675.142 441.336C676.678 440.589 678.449 440.216 680.454 440.216C682.118 440.216 683.569 440.493 684.806 441.048C686.065 441.581 687.035 442.339 687.718 443.32C688.422 444.301 688.774 445.475 688.774 446.84C688.774 447.565 688.678 448.291 688.486 449.016C688.315 449.72 687.953 450.467 687.398 451.256C686.865 452.045 686.075 452.931 685.03 453.912L677.862 460.664L676.87 458.776H689.51V463H672.582ZM701.249 463.384C699.414 463.384 697.772 462.936 696.321 462.04C694.87 461.123 693.729 459.8 692.897 458.072C692.065 456.344 691.649 454.253 691.649 451.8C691.649 449.347 692.065 447.256 692.897 445.528C693.729 443.8 694.87 442.488 696.321 441.592C697.772 440.675 699.414 440.216 701.249 440.216C703.105 440.216 704.748 440.675 706.177 441.592C707.628 442.488 708.769 443.8 709.601 445.528C710.433 447.256 710.849 449.347 710.849 451.8C710.849 454.253 710.433 456.344 709.601 458.072C708.769 459.8 707.628 461.123 706.177 462.04C704.748 462.936 703.105 463.384 701.249 463.384ZM701.249 459C702.124 459 702.881 458.755 703.521 458.264C704.182 457.773 704.694 456.995 705.057 455.928C705.441 454.861 705.633 453.485 705.633 451.8C705.633 450.115 705.441 448.739 705.057 447.672C704.694 446.605 704.182 445.827 703.521 445.336C702.881 444.845 702.124 444.6 701.249 444.6C700.396 444.6 699.638 444.845 698.977 445.336C698.337 445.827 697.825 446.605 697.441 447.672C697.078 448.739 696.897 450.115 696.897 451.8C696.897 453.485 697.078 454.861 697.441 455.928C697.825 456.995 698.337 457.773 698.977 458.264C699.638 458.755 700.396 459 701.249 459Z" fill="white"/>
<path d="M65.4958 576.403V573.043L74.1358 564.883C74.8185 564.264 75.3198 563.71 75.6398 563.219C75.9598 562.728 76.1732 562.28 76.2798 561.875C76.4078 561.47 76.4718 561.096 76.4718 560.755C76.4718 559.859 76.1625 559.176 75.5438 558.707C74.9465 558.216 74.0612 557.971 72.8878 557.971C71.9492 557.971 71.0745 558.152 70.2638 558.515C69.4745 558.878 68.8025 559.443 68.2478 560.211L64.4718 557.779C65.3252 556.499 66.5198 555.486 68.0558 554.739C69.5918 553.992 71.3625 553.619 73.3678 553.619C75.0318 553.619 76.4825 553.896 77.7198 554.451C78.9785 554.984 79.9492 555.742 80.6318 556.723C81.3358 557.704 81.6878 558.878 81.6878 560.243C81.6878 560.968 81.5918 561.694 81.3998 562.419C81.2292 563.123 80.8665 563.87 80.3118 564.659C79.7785 565.448 78.9892 566.334 77.9438 567.315L70.7758 574.067L69.7838 572.179H82.4238V576.403H65.4958ZM91.8268 576.787C90.2695 576.787 88.7228 576.584 87.1868 576.179C85.6508 575.752 84.3495 575.155 83.2828 574.387L85.2988 570.419C86.1522 571.038 87.1442 571.528 88.2748 571.891C89.4055 572.254 90.5468 572.435 91.6988 572.435C93.0002 572.435 94.0242 572.179 94.7708 571.667C95.5175 571.155 95.8908 570.451 95.8908 569.555C95.8908 568.702 95.5602 568.03 94.8988 567.539C94.2375 567.048 93.1708 566.803 91.6988 566.803H89.3308V563.379L95.5708 556.307L96.1468 558.163H84.4028V554.003H100.083V557.363L93.8748 564.435L91.2508 562.931H92.7548C95.5068 562.931 97.5868 563.55 98.9948 564.787C100.403 566.024 101.107 567.614 101.107 569.555C101.107 570.814 100.776 571.998 100.115 573.107C99.4535 574.195 98.4402 575.08 97.0748 575.763C95.7095 576.446 93.9602 576.787 91.8268 576.787Z" fill="black"/>
<path d="M221.565 576.056V572.696L230.205 564.536C230.888 563.917 231.389 563.362 231.709 562.872C232.029 562.381 232.242 561.933 232.349 561.528C232.477 561.122 232.541 560.749 232.541 560.408C232.541 559.512 232.232 558.829 231.613 558.36C231.016 557.869 230.13 557.624 228.957 557.624C228.018 557.624 227.144 557.805 226.333 558.168C225.544 558.53 224.872 559.096 224.317 559.864L220.541 557.432C221.394 556.152 222.589 555.138 224.125 554.392C225.661 553.645 227.432 553.272 229.437 553.272C231.101 553.272 232.552 553.549 233.789 554.104C235.048 554.637 236.018 555.394 236.701 556.376C237.405 557.357 237.757 558.53 237.757 559.896C237.757 560.621 237.661 561.346 237.469 562.072C237.298 562.776 236.936 563.522 236.381 564.312C235.848 565.101 235.058 565.986 234.013 566.968L226.845 573.72L225.853 571.832H238.493V576.056H221.565ZM240.032 571.352V567.864L250.592 553.656H256.032L245.696 567.864L243.168 567.128H260.8V571.352H240.032ZM252.096 576.056V571.352L252.256 567.128V562.936H257.152V576.056H252.096Z" fill="black"/>
<path d="M375.827 576.056V572.696L384.467 564.536C385.15 563.917 385.651 563.362 385.971 562.872C386.291 562.381 386.504 561.933 386.611 561.528C386.739 561.122 386.803 560.749 386.803 560.408C386.803 559.512 386.494 558.829 385.875 558.36C385.278 557.869 384.392 557.624 383.219 557.624C382.28 557.624 381.406 557.805 380.595 558.168C379.806 558.53 379.134 559.096 378.579 559.864L374.803 557.432C375.656 556.152 376.851 555.138 378.387 554.392C379.923 553.645 381.694 553.272 383.699 553.272C385.363 553.272 386.814 553.549 388.051 554.104C389.31 554.637 390.28 555.394 390.963 556.376C391.667 557.357 392.019 558.53 392.019 559.896C392.019 560.621 391.923 561.346 391.731 562.072C391.56 562.776 391.198 563.522 390.643 564.312C390.11 565.101 389.32 565.986 388.275 566.968L381.107 573.72L380.115 571.832H392.755V576.056H375.827ZM402.51 576.44C400.953 576.44 399.406 576.237 397.87 575.832C396.355 575.405 395.054 574.808 393.966 574.04L396.014 570.072C396.867 570.69 397.849 571.181 398.958 571.544C400.089 571.906 401.23 572.088 402.382 572.088C403.683 572.088 404.707 571.832 405.454 571.32C406.201 570.808 406.574 570.093 406.574 569.176C406.574 568.6 406.425 568.088 406.126 567.64C405.827 567.192 405.294 566.85 404.526 566.616C403.779 566.381 402.723 566.264 401.358 566.264H395.63L396.782 553.656H410.446V557.816H398.638L401.326 555.448L400.526 564.44L397.838 562.072H402.574C404.793 562.072 406.574 562.381 407.918 563C409.283 563.597 410.275 564.418 410.894 565.464C411.513 566.509 411.822 567.693 411.822 569.016C411.822 570.338 411.491 571.565 410.83 572.696C410.169 573.805 409.145 574.712 407.758 575.416C406.393 576.098 404.643 576.44 402.51 576.44Z" fill="white"/>
<path d="M525.045 576.056V572.696L533.685 564.536C534.368 563.917 534.869 563.362 535.189 562.872C535.509 562.381 535.722 561.933 535.829 561.528C535.957 561.122 536.021 560.749 536.021 560.408C536.021 559.512 535.712 558.829 535.093 558.36C534.496 557.869 533.61 557.624 532.437 557.624C531.498 557.624 530.624 557.805 529.813 558.168C529.024 558.53 528.352 559.096 527.797 559.864L524.021 557.432C524.874 556.152 526.069 555.138 527.605 554.392C529.141 553.645 530.912 553.272 532.917 553.272C534.581 553.272 536.032 553.549 537.269 554.104C538.528 554.637 539.498 555.394 540.181 556.376C540.885 557.357 541.237 558.53 541.237 559.896C541.237 560.621 541.141 561.346 540.949 562.072C540.778 562.776 540.416 563.522 539.861 564.312C539.328 565.101 538.538 565.986 537.493 566.968L530.325 573.72L529.333 571.832H541.973V576.056H525.045ZM554.128 576.44C552.08 576.44 550.299 576.013 548.784 575.16C547.291 574.306 546.139 573.058 545.328 571.416C544.517 569.773 544.112 567.746 544.112 565.336C544.112 562.754 544.592 560.568 545.552 558.776C546.533 556.984 547.877 555.618 549.584 554.68C551.312 553.741 553.296 553.272 555.536 553.272C556.731 553.272 557.872 553.4 558.96 553.656C560.048 553.912 560.987 554.296 561.776 554.808L559.856 558.616C559.237 558.189 558.576 557.901 557.872 557.752C557.168 557.581 556.432 557.496 555.664 557.496C553.723 557.496 552.187 558.082 551.056 559.256C549.925 560.429 549.36 562.168 549.36 564.472C549.36 564.856 549.36 565.282 549.36 565.752C549.381 566.221 549.445 566.69 549.552 567.16L548.112 565.816C548.517 564.984 549.04 564.29 549.68 563.736C550.32 563.16 551.077 562.733 551.952 562.456C552.848 562.157 553.829 562.008 554.896 562.008C556.347 562.008 557.648 562.296 558.8 562.872C559.952 563.448 560.869 564.258 561.552 565.304C562.256 566.349 562.608 567.576 562.608 568.984C562.608 570.498 562.224 571.821 561.456 572.952C560.709 574.061 559.696 574.925 558.416 575.544C557.157 576.141 555.728 576.44 554.128 576.44ZM553.84 572.568C554.565 572.568 555.205 572.44 555.76 572.184C556.336 571.906 556.784 571.512 557.104 571C557.424 570.488 557.584 569.901 557.584 569.24C557.584 568.216 557.232 567.405 556.528 566.808C555.845 566.189 554.928 565.88 553.776 565.88C553.008 565.88 552.336 566.029 551.76 566.328C551.184 566.605 550.725 567 550.384 567.512C550.064 568.002 549.904 568.578 549.904 569.24C549.904 569.88 550.064 570.456 550.384 570.968C550.704 571.458 551.152 571.853 551.728 572.152C552.304 572.429 553.008 572.568 553.84 572.568Z" fill="black"/>
<path d="M827.478 576.056V572.696L836.118 564.536C836.8 563.917 837.302 563.362 837.622 562.872C837.942 562.381 838.155 561.933 838.262 561.528C838.39 561.122 838.454 560.749 838.454 560.408C838.454 559.512 838.144 558.829 837.526 558.36C836.928 557.869 836.043 557.624 834.87 557.624C833.931 557.624 833.056 557.805 832.246 558.168C831.456 558.53 830.784 559.096 830.23 559.864L826.454 557.432C827.307 556.152 828.502 555.138 830.038 554.392C831.574 553.645 833.344 553.272 835.35 553.272C837.014 553.272 838.464 553.549 839.702 554.104C840.96 554.637 841.931 555.394 842.614 556.376C843.318 557.357 843.67 558.53 843.67 559.896C843.67 560.621 843.574 561.346 843.382 562.072C843.211 562.776 842.848 563.522 842.294 564.312C841.76 565.101 840.971 565.986 839.926 566.968L832.758 573.72L831.766 571.832H844.406V576.056H827.478ZM855.825 576.44C853.947 576.44 852.305 576.162 850.897 575.608C849.489 575.032 848.39 574.232 847.601 573.208C846.811 572.162 846.417 570.946 846.417 569.56C846.417 568.173 846.801 567 847.569 566.04C848.358 565.058 849.457 564.322 850.865 563.832C852.273 563.32 853.926 563.064 855.825 563.064C857.745 563.064 859.409 563.32 860.817 563.832C862.246 564.322 863.345 565.058 864.113 566.04C864.902 567 865.297 568.173 865.297 569.56C865.297 570.946 864.902 572.162 864.113 573.208C863.323 574.232 862.214 575.032 860.785 575.608C859.377 576.162 857.723 576.44 855.825 576.44ZM855.825 572.632C857.126 572.632 858.15 572.344 858.897 571.768C859.665 571.192 860.049 570.402 860.049 569.4C860.049 568.397 859.665 567.618 858.897 567.064C858.15 566.488 857.126 566.2 855.825 566.2C854.545 566.2 853.531 566.488 852.785 567.064C852.038 567.618 851.665 568.397 851.665 569.4C851.665 570.402 852.038 571.192 852.785 571.768C853.531 572.344 854.545 572.632 855.825 572.632ZM855.825 565.688C854.097 565.688 852.582 565.453 851.281 564.984C850.001 564.514 848.998 563.832 848.273 562.936C847.569 562.018 847.217 560.93 847.217 559.672C847.217 558.349 847.579 557.218 848.305 556.28C849.03 555.32 850.043 554.584 851.345 554.072C852.646 553.538 854.139 553.272 855.825 553.272C857.553 553.272 859.057 553.538 860.337 554.072C861.638 554.584 862.651 555.32 863.377 556.28C864.123 557.218 864.497 558.349 864.497 559.672C864.497 560.93 864.134 562.018 863.409 562.936C862.705 563.832 861.702 564.514 860.401 564.984C859.099 565.453 857.574 565.688 855.825 565.688ZM855.825 562.648C856.913 562.648 857.766 562.402 858.385 561.912C859.025 561.421 859.345 560.749 859.345 559.896C859.345 559 859.014 558.306 858.353 557.816C857.713 557.325 856.87 557.08 855.825 557.08C854.801 557.08 853.969 557.325 853.329 557.816C852.689 558.306 852.369 559 852.369 559.896C852.369 560.749 852.678 561.421 853.297 561.912C853.915 562.402 854.758 562.648 855.825 562.648Z" fill="black"/>
<path d="M982.285 576.056V572.696L990.925 564.536C991.607 563.917 992.109 563.362 992.429 562.872C992.749 562.381 992.962 561.933 993.069 561.528C993.197 561.122 993.261 560.749 993.261 560.408C993.261 559.512 992.951 558.829 992.333 558.36C991.735 557.869 990.85 557.624 989.677 557.624C988.738 557.624 987.863 557.805 987.053 558.168C986.263 558.53 985.591 559.096 985.037 559.864L981.261 557.432C982.114 556.152 983.309 555.138 984.845 554.392C986.381 553.645 988.151 553.272 990.157 553.272C991.821 553.272 993.271 553.549 994.509 554.104C995.767 554.637 996.738 555.394 997.421 556.376C998.125 557.357 998.477 558.53 998.477 559.896C998.477 560.621 998.381 561.346 998.189 562.072C998.018 562.776 997.655 563.522 997.101 564.312C996.567 565.101 995.778 565.986 994.733 566.968L987.565 573.72L986.573 571.832H999.213V576.056H982.285ZM1009.22 553.272C1011.29 553.272 1013.07 553.698 1014.57 554.552C1016.06 555.405 1017.21 556.653 1018.02 558.296C1018.83 559.917 1019.24 561.944 1019.24 564.376C1019.24 566.957 1018.75 569.144 1017.77 570.936C1016.81 572.728 1015.47 574.093 1013.77 575.032C1012.06 575.97 1010.08 576.44 1007.82 576.44C1006.64 576.44 1005.51 576.312 1004.42 576.056C1003.34 575.8 1002.4 575.416 1001.61 574.904L1003.53 571.096C1004.15 571.522 1004.81 571.821 1005.51 571.992C1006.22 572.141 1006.95 572.216 1007.72 572.216C1009.64 572.216 1011.16 571.629 1012.3 570.456C1013.45 569.282 1014.02 567.544 1014.02 565.24C1014.02 564.856 1014.01 564.429 1013.99 563.96C1013.97 563.49 1013.92 563.021 1013.83 562.552L1015.24 563.896C1014.88 564.728 1014.36 565.432 1013.7 566.008C1013.04 566.562 1012.27 566.989 1011.4 567.288C1010.52 567.565 1009.54 567.704 1008.46 567.704C1007.03 567.704 1005.72 567.416 1004.55 566.84C1003.4 566.264 1002.47 565.453 1001.77 564.408C1001.08 563.362 1000.74 562.136 1000.74 560.728C1000.74 559.192 1001.12 557.869 1001.86 556.76C1002.63 555.65 1003.66 554.797 1004.94 554.2C1006.24 553.581 1007.67 553.272 1009.22 553.272ZM1009.54 557.144C1008.8 557.144 1008.15 557.282 1007.59 557.56C1007.04 557.816 1006.6 558.2 1006.28 558.712C1005.96 559.202 1005.8 559.789 1005.8 560.472C1005.8 561.496 1006.14 562.317 1006.82 562.936C1007.53 563.533 1008.46 563.832 1009.61 563.832C1010.35 563.832 1011.02 563.693 1011.59 563.416C1012.19 563.117 1012.65 562.712 1012.97 562.2C1013.29 561.688 1013.45 561.112 1013.45 560.472C1013.45 559.832 1013.29 559.266 1012.97 558.776C1012.67 558.264 1012.23 557.869 1011.66 557.592C1011.08 557.293 1010.38 557.144 1009.54 557.144Z" fill="black"/>
<path d="M675.2 576.056V572.696L683.84 564.536C684.523 563.917 685.024 563.362 685.344 562.872C685.664 562.381 685.877 561.933 685.984 561.528C686.112 561.122 686.176 560.749 686.176 560.408C686.176 559.512 685.867 558.829 685.248 558.36C684.651 557.869 683.765 557.624 682.592 557.624C681.653 557.624 680.779 557.805 679.968 558.168C679.179 558.53 678.507 559.096 677.952 559.864L674.176 557.432C675.029 556.152 676.224 555.138 677.76 554.392C679.296 553.645 681.067 553.272 683.072 553.272C684.736 553.272 686.187 553.549 687.424 554.104C688.683 554.637 689.653 555.394 690.336 556.376C691.04 557.357 691.392 558.53 691.392 559.896C691.392 560.621 691.296 561.346 691.104 562.072C690.933 562.776 690.571 563.522 690.016 564.312C689.483 565.101 688.693 565.986 687.648 566.968L680.48 573.72L679.488 571.832H692.128V576.056H675.2ZM697.851 576.056L706.875 555.64L708.219 557.88H696.155L698.459 555.448V561.528H693.851V553.656H711.803V557.016L703.483 576.056H697.851Z" fill="black"/>
<path d="M72.0036 691.394C70.4463 691.394 68.8996 691.192 67.3636 690.786C65.8276 690.36 64.5263 689.762 63.4596 688.994L65.4756 685.026C66.3289 685.645 67.3209 686.136 68.4516 686.498C69.5823 686.861 70.7236 687.042 71.8756 687.042C73.1769 687.042 74.2009 686.786 74.9476 686.274C75.6943 685.762 76.0676 685.058 76.0676 684.162C76.0676 683.309 75.7369 682.637 75.0756 682.146C74.4143 681.656 73.3476 681.41 71.8756 681.41H69.5076V677.986L75.7476 670.914L76.3236 672.77H64.5796V668.61H80.2596V671.97L74.0516 679.042L71.4276 677.538H72.9316C75.6836 677.538 77.7636 678.157 79.1716 679.394C80.5796 680.632 81.2836 682.221 81.2836 684.162C81.2836 685.421 80.9529 686.605 80.2916 687.714C79.6303 688.802 78.6169 689.688 77.2516 690.37C75.8863 691.053 74.1369 691.394 72.0036 691.394ZM93.2771 691.394C91.4424 691.394 89.7998 690.946 88.3491 690.05C86.8984 689.133 85.7571 687.81 84.9251 686.082C84.0931 684.354 83.6771 682.264 83.6771 679.81C83.6771 677.357 84.0931 675.266 84.9251 673.538C85.7571 671.81 86.8984 670.498 88.3491 669.602C89.7998 668.685 91.4424 668.226 93.2771 668.226C95.1331 668.226 96.7758 668.685 98.2051 669.602C99.6558 670.498 100.797 671.81 101.629 673.538C102.461 675.266 102.877 677.357 102.877 679.81C102.877 682.264 102.461 684.354 101.629 686.082C100.797 687.81 99.6558 689.133 98.2051 690.05C96.7758 690.946 95.1331 691.394 93.2771 691.394ZM93.2771 687.01C94.1518 687.01 94.9091 686.765 95.5491 686.274C96.2104 685.784 96.7224 685.005 97.0851 683.938C97.4691 682.872 97.6611 681.496 97.6611 679.81C97.6611 678.125 97.4691 676.749 97.0851 675.682C96.7224 674.616 96.2104 673.837 95.5491 673.346C94.9091 672.856 94.1518 672.61 93.2771 672.61C92.4238 672.61 91.6664 672.856 91.0051 673.346C90.3651 673.837 89.8531 674.616 89.4691 675.682C89.1064 676.749 88.9251 678.125 88.9251 679.81C88.9251 681.496 89.1064 682.872 89.4691 683.938C89.8531 685.005 90.3651 685.784 91.0051 686.274C91.6664 686.765 92.4238 687.01 93.2771 687.01Z" fill="black"/>
<path d="M232.776 690.174C230.942 690.174 229.299 689.726 227.848 688.83C226.398 687.912 225.256 686.59 224.424 684.862C223.592 683.134 223.176 681.043 223.176 678.59C223.176 676.136 223.592 674.046 224.424 672.318C225.256 670.59 226.398 669.278 227.848 668.382C229.299 667.464 230.942 667.006 232.776 667.006C234.632 667.006 236.275 667.464 237.704 668.382C239.155 669.278 240.296 670.59 241.128 672.318C241.96 674.046 242.376 676.136 242.376 678.59C242.376 681.043 241.96 683.134 241.128 684.862C240.296 686.59 239.155 687.912 237.704 688.83C236.275 689.726 234.632 690.174 232.776 690.174ZM232.776 685.79C233.651 685.79 234.408 685.544 235.048 685.054C235.71 684.563 236.222 683.784 236.584 682.718C236.968 681.651 237.16 680.275 237.16 678.59C237.16 676.904 236.968 675.528 236.584 674.462C236.222 673.395 235.71 672.616 235.048 672.126C234.408 671.635 233.651 671.39 232.776 671.39C231.923 671.39 231.166 671.635 230.504 672.126C229.864 672.616 229.352 673.395 228.968 674.462C228.606 675.528 228.424 676.904 228.424 678.59C228.424 680.275 228.606 681.651 228.968 682.718C229.352 683.784 229.864 684.563 230.504 685.054C231.166 685.544 231.923 685.79 232.776 685.79ZM248.226 689.79V669.31L250.466 671.55H243.746V667.39H253.41V689.79H248.226Z" fill="black"/>
<path d="M380.201 690.174C378.367 690.174 376.724 689.726 375.273 688.83C373.823 687.912 372.681 686.59 371.849 684.862C371.017 683.134 370.601 681.043 370.601 678.59C370.601 676.136 371.017 674.046 371.849 672.318C372.681 670.59 373.823 669.278 375.273 668.382C376.724 667.464 378.367 667.006 380.201 667.006C382.057 667.006 383.7 667.464 385.129 668.382C386.58 669.278 387.721 670.59 388.553 672.318C389.385 674.046 389.801 676.136 389.801 678.59C389.801 681.043 389.385 683.134 388.553 684.862C387.721 686.59 386.58 687.912 385.129 688.83C383.7 689.726 382.057 690.174 380.201 690.174ZM380.201 685.79C381.076 685.79 381.833 685.544 382.473 685.054C383.135 684.563 383.647 683.784 384.009 682.718C384.393 681.651 384.585 680.275 384.585 678.59C384.585 676.904 384.393 675.528 384.009 674.462C383.647 673.395 383.135 672.616 382.473 672.126C381.833 671.635 381.076 671.39 380.201 671.39C379.348 671.39 378.591 671.635 377.929 672.126C377.289 672.616 376.777 673.395 376.393 674.462C376.031 675.528 375.849 676.904 375.849 678.59C375.849 680.275 376.031 681.651 376.393 682.718C376.777 683.784 377.289 684.563 377.929 685.054C378.591 685.544 379.348 685.79 380.201 685.79ZM392.003 689.79V686.43L400.643 678.27C401.326 677.651 401.827 677.096 402.147 676.606C402.467 676.115 402.68 675.667 402.787 675.262C402.915 674.856 402.979 674.483 402.979 674.142C402.979 673.246 402.67 672.563 402.051 672.094C401.454 671.603 400.568 671.358 399.395 671.358C398.456 671.358 397.582 671.539 396.771 671.902C395.982 672.264 395.31 672.83 394.755 673.598L390.979 671.166C391.832 669.886 393.027 668.872 394.563 668.126C396.099 667.379 397.87 667.006 399.875 667.006C401.539 667.006 402.99 667.283 404.227 667.838C405.486 668.371 406.456 669.128 407.139 670.11C407.843 671.091 408.195 672.264 408.195 673.63C408.195 674.355 408.099 675.08 407.907 675.806C407.736 676.51 407.374 677.256 406.819 678.046C406.286 678.835 405.496 679.72 404.451 680.702L397.283 687.454L396.291 685.566H408.931V689.79H392.003Z" fill="black"/>
<path d="M532.489 691.396C530.654 691.396 529.012 690.948 527.561 690.052C526.11 689.135 524.969 687.812 524.137 686.084C523.305 684.356 522.889 682.265 522.889 679.812C522.889 677.359 523.305 675.268 524.137 673.54C524.969 671.812 526.11 670.5 527.561 669.604C529.012 668.687 530.654 668.228 532.489 668.228C534.345 668.228 535.988 668.687 537.417 669.604C538.868 670.5 540.009 671.812 540.841 673.54C541.673 675.268 542.089 677.359 542.089 679.812C542.089 682.265 541.673 684.356 540.841 686.084C540.009 687.812 538.868 689.135 537.417 690.052C535.988 690.948 534.345 691.396 532.489 691.396ZM532.489 687.012C533.364 687.012 534.121 686.767 534.761 686.276C535.422 685.785 535.934 685.007 536.297 683.94C536.681 682.873 536.873 681.497 536.873 679.812C536.873 678.127 536.681 676.751 536.297 675.684C535.934 674.617 535.422 673.839 534.761 673.348C534.121 672.857 533.364 672.612 532.489 672.612C531.636 672.612 530.878 672.857 530.217 673.348C529.577 673.839 529.065 674.617 528.681 675.684C528.318 676.751 528.137 678.127 528.137 679.812C528.137 681.497 528.318 682.873 528.681 683.94C529.065 685.007 529.577 685.785 530.217 686.276C530.878 686.767 531.636 687.012 532.489 687.012ZM551.559 691.396C550.002 691.396 548.455 691.193 546.919 690.788C545.383 690.361 544.082 689.764 543.015 688.996L545.031 685.028C545.885 685.647 546.877 686.137 548.007 686.5C549.138 686.863 550.279 687.044 551.431 687.044C552.733 687.044 553.757 686.788 554.503 686.276C555.25 685.764 555.623 685.06 555.623 684.164C555.623 683.311 555.293 682.639 554.631 682.148C553.97 681.657 552.903 681.412 551.431 681.412H549.063V677.988L555.303 670.916L555.879 672.772H544.135V668.612H559.815V671.972L553.607 679.044L550.983 677.54H552.487C555.239 677.54 557.319 678.159 558.727 679.396C560.135 680.633 560.839 682.223 560.839 684.164C560.839 685.423 560.509 686.607 559.847 687.716C559.186 688.804 558.173 689.689 556.807 690.372C555.442 691.055 553.693 691.396 551.559 691.396Z" fill="black"/>
<path d="M836.737 691.396C834.903 691.396 833.26 690.948 831.809 690.052C830.359 689.135 829.217 687.812 828.385 686.084C827.553 684.356 827.137 682.265 827.137 679.812C827.137 677.359 827.553 675.268 828.385 673.54C829.217 671.812 830.359 670.5 831.809 669.604C833.26 668.687 834.903 668.228 836.737 668.228C838.593 668.228 840.236 668.687 841.665 669.604C843.116 670.5 844.257 671.812 845.089 673.54C845.921 675.268 846.337 677.359 846.337 679.812C846.337 682.265 845.921 684.356 845.089 686.084C844.257 687.812 843.116 689.135 841.665 690.052C840.236 690.948 838.593 691.396 836.737 691.396ZM836.737 687.012C837.612 687.012 838.369 686.767 839.009 686.276C839.671 685.785 840.183 685.007 840.545 683.94C840.929 682.873 841.121 681.497 841.121 679.812C841.121 678.127 840.929 676.751 840.545 675.684C840.183 674.617 839.671 673.839 839.009 673.348C838.369 672.857 837.612 672.612 836.737 672.612C835.884 672.612 835.127 672.857 834.465 673.348C833.825 673.839 833.313 674.617 832.929 675.684C832.567 676.751 832.385 678.127 832.385 679.812C832.385 681.497 832.567 682.873 832.929 683.94C833.313 685.007 833.825 685.785 834.465 686.276C835.127 686.767 835.884 687.012 836.737 687.012ZM856.472 691.396C854.915 691.396 853.368 691.193 851.832 690.788C850.317 690.361 849.016 689.764 847.928 688.996L849.976 685.028C850.829 685.647 851.811 686.137 852.92 686.5C854.051 686.863 855.192 687.044 856.344 687.044C857.645 687.044 858.669 686.788 859.416 686.276C860.163 685.764 860.536 685.049 860.536 684.132C860.536 683.556 860.387 683.044 860.088 682.596C859.789 682.148 859.256 681.807 858.488 681.572C857.741 681.337 856.685 681.22 855.32 681.22H849.592L850.744 668.612H864.408V672.772H852.6L855.288 670.404L854.488 679.396L851.8 677.028H856.536C858.755 677.028 860.536 677.337 861.88 677.956C863.245 678.553 864.237 679.375 864.856 680.42C865.475 681.465 865.784 682.649 865.784 683.972C865.784 685.295 865.453 686.521 864.792 687.652C864.131 688.761 863.107 689.668 861.72 690.372C860.355 691.055 858.605 691.396 856.472 691.396Z" fill="black"/>
<path d="M990.834 693.841C988.999 693.841 987.356 693.393 985.906 692.497C984.455 691.579 983.314 690.257 982.482 688.529C981.65 686.801 981.234 684.71 981.234 682.257C981.234 679.803 981.65 677.713 982.482 675.985C983.314 674.257 984.455 672.945 985.906 672.049C987.356 671.131 988.999 670.673 990.834 670.673C992.69 670.673 994.332 671.131 995.762 672.049C997.212 672.945 998.354 674.257 999.186 675.985C1000.02 677.713 1000.43 679.803 1000.43 682.257C1000.43 684.71 1000.02 686.801 999.186 688.529C998.354 690.257 997.212 691.579 995.762 692.497C994.332 693.393 992.69 693.841 990.834 693.841ZM990.834 689.457C991.708 689.457 992.466 689.211 993.106 688.721C993.767 688.23 994.279 687.451 994.642 686.385C995.026 685.318 995.218 683.942 995.218 682.257C995.218 680.571 995.026 679.195 994.642 678.129C994.279 677.062 993.767 676.283 993.106 675.793C992.466 675.302 991.708 675.057 990.834 675.057C989.98 675.057 989.223 675.302 988.562 675.793C987.922 676.283 987.41 677.062 987.026 678.129C986.663 679.195 986.482 680.571 986.482 682.257C986.482 683.942 986.663 685.318 987.026 686.385C987.41 687.451 987.922 688.23 988.562 688.721C989.223 689.211 989.98 689.457 990.834 689.457ZM1012.97 693.841C1010.92 693.841 1009.14 693.414 1007.62 692.561C1006.13 691.707 1004.98 690.459 1004.17 688.817C1003.36 687.174 1002.95 685.147 1002.95 682.737C1002.95 680.155 1003.43 677.969 1004.39 676.177C1005.37 674.385 1006.72 673.019 1008.42 672.081C1010.15 671.142 1012.14 670.673 1014.38 670.673C1015.57 670.673 1016.71 670.801 1017.8 671.057C1018.89 671.313 1019.83 671.697 1020.62 672.209L1018.7 676.017C1018.08 675.59 1017.42 675.302 1016.71 675.153C1016.01 674.982 1015.27 674.897 1014.5 674.897C1012.56 674.897 1011.03 675.483 1009.9 676.657C1008.77 677.83 1008.2 679.569 1008.2 681.873C1008.2 682.257 1008.2 682.683 1008.2 683.153C1008.22 683.622 1008.29 684.091 1008.39 684.561L1006.95 683.217C1007.36 682.385 1007.88 681.691 1008.52 681.137C1009.16 680.561 1009.92 680.134 1010.79 679.857C1011.69 679.558 1012.67 679.409 1013.74 679.409C1015.19 679.409 1016.49 679.697 1017.64 680.273C1018.79 680.849 1019.71 681.659 1020.39 682.705C1021.1 683.75 1021.45 684.977 1021.45 686.385C1021.45 687.899 1021.06 689.222 1020.3 690.353C1019.55 691.462 1018.54 692.326 1017.26 692.945C1016 693.542 1014.57 693.841 1012.97 693.841ZM1012.68 689.969C1013.41 689.969 1014.05 689.841 1014.6 689.585C1015.18 689.307 1015.62 688.913 1015.94 688.401C1016.26 687.889 1016.42 687.302 1016.42 686.641C1016.42 685.617 1016.07 684.806 1015.37 684.209C1014.69 683.59 1013.77 683.281 1012.62 683.281C1011.85 683.281 1011.18 683.43 1010.6 683.729C1010.02 684.006 1009.57 684.401 1009.22 684.913C1008.9 685.403 1008.74 685.979 1008.74 686.641C1008.74 687.281 1008.9 687.857 1009.22 688.369C1009.54 688.859 1009.99 689.254 1010.57 689.553C1011.14 689.83 1011.85 689.969 1012.68 689.969Z" fill="black"/>
<path d="M683.967 690.174C682.132 690.174 680.49 689.726 679.039 688.83C677.588 687.912 676.447 686.59 675.615 684.862C674.783 683.134 674.367 681.043 674.367 678.59C674.367 676.136 674.783 674.046 675.615 672.318C676.447 670.59 677.588 669.278 679.039 668.382C680.49 667.464 682.132 667.006 683.967 667.006C685.823 667.006 687.466 667.464 688.895 668.382C690.346 669.278 691.487 670.59 692.319 672.318C693.151 674.046 693.567 676.136 693.567 678.59C693.567 681.043 693.151 683.134 692.319 684.862C691.487 686.59 690.346 687.912 688.895 688.83C687.466 689.726 685.823 690.174 683.967 690.174ZM683.967 685.79C684.842 685.79 685.599 685.544 686.239 685.054C686.9 684.563 687.412 683.784 687.775 682.718C688.159 681.651 688.351 680.275 688.351 678.59C688.351 676.904 688.159 675.528 687.775 674.462C687.412 673.395 686.9 672.616 686.239 672.126C685.599 671.635 684.842 671.39 683.967 671.39C683.114 671.39 682.356 671.635 681.695 672.126C681.055 672.616 680.543 673.395 680.159 674.462C679.796 675.528 679.615 676.904 679.615 678.59C679.615 680.275 679.796 681.651 680.159 682.718C680.543 683.784 681.055 684.563 681.695 685.054C682.356 685.544 683.114 685.79 683.967 685.79ZM695.83 685.086V681.598L706.39 667.39H711.83L701.494 681.598L698.966 680.862H716.598V685.086H695.83ZM707.894 689.79V685.086L708.054 680.862V676.67H712.95V689.79H707.894Z" fill="black"/>
<path d="M6.26624 74.6572C6.26624 71.3435 8.95253 68.6572 12.2662 68.6572H160.596V170.71H6.26624V74.6572Z" fill="black" fill-opacity="0.2"/>
<rect x="165.495" y="68.6572" width="146.164" height="102.053" fill="black" fill-opacity="0.2"/>
<rect x="316.559" y="68.6572" width="146.981" height="102.053" fill="black" fill-opacity="0.2"/>
<rect x="468.439" y="68.6572" width="146.164" height="102.053" fill="black" fill-opacity="0.2"/>
<rect x="619.503" y="68.6572" width="146.981" height="102.053" fill="black" fill-opacity="0.2"/>
<rect x="770.566" y="68.6572" width="146.981" height="102.053" fill="black" fill-opacity="0.2"/>
<rect x="164.679" y="625.785" width="146.981" height="112.467" fill="black" fill-opacity="0.2"/>
<path d="M467.623 625.785H614.603V738.251H467.623V625.785Z" fill="black" fill-opacity="0.2"/>
<path d="M315.742 625.785H463.54V738.251H315.742V625.785Z" fill="black" fill-opacity="0.2"/>
<rect x="618.686" y="625.785" width="147.797" height="112.467" fill="black" fill-opacity="0.2"/>
<rect x="770.566" y="625.785" width="146.981" height="112.467" fill="black" fill-opacity="0.2"/>
<path d="M921.63 625.785H1068.61V732.251C1068.61 735.565 1065.92 738.251 1062.61 738.251H921.63V625.785Z" fill="black" fill-opacity="0.2"/>
<path d="M74.5815 43.8141V25.6141H82.8495C84.8255 25.6141 86.5675 25.9954 88.0755 26.7581C89.5835 27.5034 90.7622 28.5521 91.6115 29.9041C92.4608 31.2561 92.8855 32.8595 92.8855 34.7141C92.8855 36.5515 92.4608 38.1548 91.6115 39.5241C90.7622 40.8761 89.5835 41.9335 88.0755 42.6961C86.5675 43.4415 84.8255 43.8141 82.8495 43.8141H74.5815ZM78.7935 40.3561H82.6415C83.8548 40.3561 84.9035 40.1308 85.7875 39.6801C86.6888 39.2121 87.3822 38.5535 87.8675 37.7041C88.3702 36.8548 88.6215 35.8581 88.6215 34.7141C88.6215 33.5528 88.3702 32.5561 87.8675 31.7241C87.3822 30.8748 86.6888 30.2248 85.7875 29.7741C84.9035 29.3061 83.8548 29.0721 82.6415 29.0721H78.7935V40.3561Z" fill="black"/>
<path d="M1000.27 39.9052C998.814 39.9052 997.419 39.7146 996.084 39.3332C994.749 38.9346 993.675 38.4232 992.86 37.7992L994.29 34.6272C995.07 35.1819 995.989 35.6412 997.046 36.0052C998.121 36.3519 999.204 36.5252 1000.3 36.5252C1001.13 36.5252 1001.8 36.4472 1002.3 36.2912C1002.82 36.1179 1003.2 35.8839 1003.44 35.5892C1003.68 35.2946 1003.81 34.9566 1003.81 34.5752C1003.81 34.0899 1003.62 33.7086 1003.23 33.4312C1002.85 33.1366 1002.35 32.9026 1001.73 32.7292C1001.1 32.5386 1000.41 32.3652 999.646 32.2092C998.901 32.0359 998.147 31.8279 997.384 31.5852C996.639 31.3426 995.954 31.0306 995.33 30.6492C994.706 30.2679 994.195 29.7652 993.796 29.1412C993.415 28.5172 993.224 27.7199 993.224 26.7492C993.224 25.7092 993.501 24.7646 994.056 23.9152C994.628 23.0486 995.477 22.3639 996.604 21.8612C997.748 21.3412 999.178 21.0812 1000.89 21.0812C1002.04 21.0812 1003.16 21.2199 1004.27 21.4972C1005.38 21.7572 1006.36 22.1559 1007.21 22.6932L1005.91 25.8912C1005.06 25.4059 1004.21 25.0506 1003.36 24.8252C1002.51 24.5826 1001.68 24.4612 1000.87 24.4612C1000.05 24.4612 999.386 24.5566 998.866 24.7472C998.346 24.9379 997.973 25.1892 997.748 25.5012C997.523 25.7959 997.41 26.1426 997.41 26.5412C997.41 27.0092 997.601 27.3906 997.982 27.6852C998.363 27.9626 998.866 28.1879 999.49 28.3612C1000.11 28.5346 1000.8 28.7079 1001.54 28.8812C1002.31 29.0546 1003.06 29.2539 1003.81 29.4792C1004.57 29.7046 1005.26 30.0079 1005.89 30.3892C1006.51 30.7706 1007.01 31.2732 1007.39 31.8972C1007.79 32.5212 1007.99 33.3099 1007.99 34.2632C1007.99 35.2859 1007.71 36.2219 1007.13 37.0712C1006.56 37.9206 1005.7 38.6052 1004.56 39.1252C1003.43 39.6452 1002 39.9052 1000.27 39.9052Z" fill="black"/>
<path d="M238.113 39.9052C236.657 39.9052 235.262 39.7146 233.927 39.3332C232.593 38.9346 231.518 38.4232 230.703 37.7992L232.133 34.6272C232.913 35.1819 233.832 35.6412 234.889 36.0052C235.964 36.3519 237.047 36.5252 238.139 36.5252C238.971 36.5252 239.639 36.4472 240.141 36.2912C240.661 36.1179 241.043 35.8839 241.285 35.5892C241.528 35.2946 241.649 34.9566 241.649 34.5752C241.649 34.0899 241.459 33.7086 241.077 33.4312C240.696 33.1366 240.193 32.9026 239.569 32.7292C238.945 32.5386 238.252 32.3652 237.489 32.2092C236.744 32.0359 235.99 31.8279 235.227 31.5852C234.482 31.3426 233.797 31.0306 233.173 30.6492C232.549 30.2679 232.038 29.7652 231.639 29.1412C231.258 28.5172 231.067 27.7199 231.067 26.7492C231.067 25.7092 231.345 24.7646 231.899 23.9152C232.471 23.0486 233.321 22.3639 234.447 21.8612C235.591 21.3412 237.021 21.0812 238.737 21.0812C239.881 21.0812 241.008 21.2199 242.117 21.4972C243.227 21.7572 244.206 22.1559 245.055 22.6932L243.755 25.8912C242.906 25.4059 242.057 25.0506 241.207 24.8252C240.358 24.5826 239.526 24.4612 238.711 24.4612C237.897 24.4612 237.229 24.5566 236.709 24.7472C236.189 24.9379 235.817 25.1892 235.591 25.5012C235.366 25.7959 235.253 26.1426 235.253 26.5412C235.253 27.0092 235.444 27.3906 235.825 27.6852C236.207 27.9626 236.709 28.1879 237.333 28.3612C237.957 28.5346 238.642 28.7079 239.387 28.8812C240.15 29.0546 240.904 29.2539 241.649 29.4792C242.412 29.7046 243.105 30.0079 243.729 30.3892C244.353 30.7706 244.856 31.2732 245.237 31.8972C245.636 32.5212 245.835 33.3099 245.835 34.2632C245.835 35.2859 245.549 36.2219 244.977 37.0712C244.405 37.9206 243.547 38.6052 242.403 39.1252C241.277 39.6452 239.847 39.9052 238.113 39.9052Z" fill="black"/>
<path d="M694.999 39.9052C693.578 39.9052 692.252 39.6712 691.021 39.2032C689.808 38.7352 688.75 38.0766 687.849 37.2272C686.965 36.3779 686.272 35.3812 685.769 34.2372C685.284 33.0932 685.041 31.8452 685.041 30.4932C685.041 29.1412 685.284 27.8932 685.769 26.7492C686.272 25.6052 686.974 24.6086 687.875 23.7592C688.776 22.9099 689.834 22.2512 691.047 21.7832C692.26 21.3152 693.578 21.0812 694.999 21.0812C696.438 21.0812 697.755 21.3152 698.951 21.7832C700.164 22.2512 701.213 22.9099 702.097 23.7592C702.998 24.5912 703.7 25.5792 704.203 26.7232C704.706 27.8672 704.957 29.1239 704.957 30.4932C704.957 31.8452 704.706 33.1019 704.203 34.2632C703.7 35.4072 702.998 36.4039 702.097 37.2532C701.213 38.0852 700.164 38.7352 698.951 39.2032C697.755 39.6712 696.438 39.9052 694.999 39.9052ZM700.953 43.7792C700.242 43.7792 699.566 43.7012 698.925 43.5452C698.301 43.3892 697.677 43.1379 697.053 42.7912C696.446 42.4446 695.805 41.9766 695.129 41.3872C694.47 40.7979 693.751 40.0699 692.971 39.2032L697.391 38.0852C697.859 38.7266 698.292 39.2379 698.691 39.6192C699.09 40.0006 699.471 40.2692 699.835 40.4252C700.216 40.5812 700.615 40.6592 701.031 40.6592C702.14 40.6592 703.128 40.2086 703.995 39.3072L705.867 41.5432C704.636 43.0339 702.998 43.7792 700.953 43.7792ZM694.999 36.3172C695.814 36.3172 696.559 36.1786 697.235 35.9012C697.928 35.6239 698.535 35.2252 699.055 34.7052C699.575 34.1852 699.974 33.5699 700.251 32.8592C700.546 32.1312 700.693 31.3426 700.693 30.4932C700.693 29.6266 700.546 28.8379 700.251 28.1272C699.974 27.4166 699.575 26.8012 699.055 26.2812C698.535 25.7612 697.928 25.3626 697.235 25.0852C696.559 24.8079 695.814 24.6692 694.999 24.6692C694.184 24.6692 693.43 24.8079 692.737 25.0852C692.044 25.3626 691.437 25.7612 690.917 26.2812C690.414 26.8012 690.016 27.4166 689.721 28.1272C689.444 28.8379 689.305 29.6266 689.305 30.4932C689.305 31.3426 689.444 32.1312 689.721 32.8592C690.016 33.5699 690.414 34.1852 690.917 34.7052C691.437 35.2252 692.044 35.6239 692.737 35.9012C693.43 36.1786 694.184 36.3172 694.999 36.3172Z" fill="black"/>
<path d="M844.959 39.9052C843.503 39.9052 842.107 39.7146 840.773 39.3332C839.438 38.9346 838.363 38.4232 837.549 37.7992L838.979 34.6272C839.759 35.1819 840.677 35.6412 841.735 36.0052C842.809 36.3519 843.893 36.5252 844.985 36.5252C845.817 36.5252 846.484 36.4472 846.987 36.2912C847.507 36.1179 847.888 35.8839 848.131 35.5892C848.373 35.2946 848.495 34.9566 848.495 34.5752C848.495 34.0899 848.304 33.7086 847.923 33.4312C847.541 33.1366 847.039 32.9026 846.415 32.7292C845.791 32.5386 845.097 32.3652 844.335 32.2092C843.589 32.0359 842.835 31.8279 842.073 31.5852C841.327 31.3426 840.643 31.0306 840.019 30.6492C839.395 30.2679 838.883 29.7652 838.485 29.1412C838.103 28.5172 837.913 27.7199 837.913 26.7492C837.913 25.7092 838.19 24.7646 838.745 23.9152C839.317 23.0486 840.166 22.3639 841.293 21.8612C842.437 21.3412 843.867 21.0812 845.583 21.0812C846.727 21.0812 847.853 21.2199 848.963 21.4972C850.072 21.7572 851.051 22.1559 851.901 22.6932L850.601 25.8912C849.751 25.4059 848.902 25.0506 848.053 24.8252C847.203 24.5826 846.371 24.4612 845.557 24.4612C844.742 24.4612 844.075 24.5566 843.555 24.7472C843.035 24.9379 842.662 25.1892 842.437 25.5012C842.211 25.7959 842.099 26.1426 842.099 26.5412C842.099 27.0092 842.289 27.3906 842.671 27.6852C843.052 27.9626 843.555 28.1879 844.179 28.3612C844.803 28.5346 845.487 28.7079 846.233 28.8812C846.995 29.0546 847.749 29.2539 848.495 29.4792C849.257 29.7046 849.951 30.0079 850.575 30.3892C851.199 30.7706 851.701 31.2732 852.083 31.8972C852.481 32.5212 852.681 33.3099 852.681 34.2632C852.681 35.2859 852.395 36.2219 851.823 37.0712C851.251 37.9206 850.393 38.6052 849.249 39.1252C848.122 39.6452 846.692 39.9052 844.959 39.9052Z" fill="black"/>
<path d="M386.326 39.5932V24.8252H380.502V21.3932H396.362V24.8252H390.538V39.5932H386.326Z" fill="black"/>
<path d="M543.802 39.9052C542.381 39.9052 541.055 39.6712 539.824 39.2032C538.611 38.7352 537.553 38.0766 536.652 37.2272C535.768 36.3779 535.075 35.3812 534.572 34.2372C534.087 33.0932 533.844 31.8452 533.844 30.4932C533.844 29.1412 534.087 27.8932 534.572 26.7492C535.075 25.6052 535.777 24.6086 536.678 23.7592C537.579 22.9099 538.637 22.2512 539.85 21.7832C541.063 21.3152 542.381 21.0812 543.802 21.0812C545.241 21.0812 546.558 21.3152 547.754 21.7832C548.967 22.2512 550.016 22.9099 550.9 23.7592C551.801 24.5912 552.503 25.5792 553.006 26.7232C553.509 27.8672 553.76 29.1239 553.76 30.4932C553.76 31.8452 553.509 33.1019 553.006 34.2632C552.503 35.4072 551.801 36.4039 550.9 37.2532C550.016 38.0852 548.967 38.7352 547.754 39.2032C546.558 39.6712 545.241 39.9052 543.802 39.9052ZM549.756 43.7792C549.045 43.7792 548.369 43.7012 547.728 43.5452C547.104 43.3892 546.48 43.1379 545.856 42.7912C545.249 42.4446 544.608 41.9766 543.932 41.3872C543.273 40.7979 542.554 40.0699 541.774 39.2032L546.194 38.0852C546.662 38.7266 547.095 39.2379 547.494 39.6192C547.893 40.0006 548.274 40.2692 548.638 40.4252C549.019 40.5812 549.418 40.6592 549.834 40.6592C550.943 40.6592 551.931 40.2086 552.798 39.3072L554.67 41.5432C553.439 43.0339 551.801 43.7792 549.756 43.7792ZM543.802 36.3172C544.617 36.3172 545.362 36.1786 546.038 35.9012C546.731 35.6239 547.338 35.2252 547.858 34.7052C548.378 34.1852 548.777 33.5699 549.054 32.8592C549.349 32.1312 549.496 31.3426 549.496 30.4932C549.496 29.6266 549.349 28.8379 549.054 28.1272C548.777 27.4166 548.378 26.8012 547.858 26.2812C547.338 25.7612 546.731 25.3626 546.038 25.0852C545.362 24.8079 544.617 24.6692 543.802 24.6692C542.987 24.6692 542.233 24.8079 541.54 25.0852C540.847 25.3626 540.24 25.7612 539.72 26.2812C539.217 26.8012 538.819 27.4166 538.524 28.1272C538.247 28.8379 538.108 29.6266 538.108 30.4932C538.108 31.3426 538.247 32.1312 538.524 32.8592C538.819 33.5699 539.217 34.1852 539.72 34.7052C540.24 35.2252 540.847 35.6239 541.54 35.9012C542.233 36.1786 542.987 36.3172 543.802 36.3172Z" fill="black"/>
<defs>
<filter id="filter0_d_116_16" x="0" y="63" width="1076.88" height="687.456" filterUnits="userSpaceOnUse" color-interpolation-filters="sRGB">
<feFlood flood-opacity="0" result="BackgroundImageFix"/>
<feColorMatrix in="SourceAlpha" type="matrix" values="0 0 0 0 0 0 0 0 0 0 0 0 0 0 0 0 0 0 127 0" result="hardAlpha"/>
<feOffset dy="4"/>
<feGaussianBlur stdDeviation="2"/>
<feComposite in2="hardAlpha" operator="out"/>
<feColorMatrix type="matrix" values="0 0 0 0 0 0 0 0 0 0 0 0 0 0 0 0 0 0 0.25 0"/>
<feBlend mode="normal" in2="BackgroundImageFix" result="effect1_dropShadow_116_16"/>
<feBlend mode="normal" in="SourceGraphic" in2="effect1_dropShadow_116_16" result="shape"/>
</filter>
</defs>
</svg>
