<svg width="638" height="482" viewBox="0 0 638 482" fill="none" xmlns="http://www.w3.org/2000/svg">
<g clip-path="url(#clip0_3_3)">
<path d="M638 384.525L435.439 464.504L391.12 482L295.257 448.58L213.444 420.059L206.648 417.692L196.691 392.463L157.094 292.167L137.22 241.816L131.243 226.681L126.92 215.727L117.286 191.323L101.687 151.813L135.76 138.363L168.301 125.513L191.691 116.279L486.194 -0.00012207L638 384.525Z" fill="#E0E0E0" fill-opacity="0.65"/>
<path d="M14.6864 256.913C17.1462 256.38 19.7168 256.847 21.8326 258.21C23.9485 259.572 25.4364 261.72 25.9689 264.18C26.5015 266.64 26.035 269.21 24.6723 271.326C23.3095 273.442 21.162 274.93 18.7022 275.463C13.58 276.572 0 269.802 0 269.802C0 269.802 9.56417 258.022 14.6864 256.913Z" fill="#FFCF00"/>
<path d="M16.9537 451.751C18.5641 449.817 20.8768 448.602 23.3831 448.373C25.8895 448.144 28.3841 448.92 30.3182 450.53C32.2523 452.141 33.4675 454.454 33.6965 456.96C33.9254 459.467 33.1493 461.961 31.5389 463.895C28.1855 467.923 13.3169 470.951 13.3169 470.951C13.3169 470.951 13.6003 455.779 16.9537 451.751Z" fill="#FFCF00"/>
<path d="M428.505 142.776C413.218 116.944 382.973 115.74 382.973 115.74C382.973 115.74 353.502 111.971 334.596 151.313C316.975 187.983 292.655 223.389 330.681 231.973L337.55 210.594L341.803 233.565C347.218 233.954 352.649 234.047 358.073 233.843C398.797 232.528 437.579 234.227 436.33 219.614C434.67 200.187 443.214 167.631 428.505 142.776Z" fill="#2F2E41"/>
<path d="M365.758 196.839C371.025 208.492 374.347 222.382 376.33 237.81L418.621 235.167C408.898 221.389 405.67 205.575 409.37 187.588L365.758 196.839Z" fill="#FFB8B8"/>
<path opacity="0.2" d="M365.758 196.839C371.025 208.492 374.347 222.382 376.33 237.81L418.621 235.167C408.898 221.389 405.67 205.575 409.37 187.588L365.758 196.839Z" fill="black"/>
<path d="M169.542 418.701C169.542 418.701 147.654 430.425 158.761 440.435C169.868 450.446 184.54 427.185 184.54 427.185L169.542 418.701Z" fill="#FFB8B8"/>
<path d="M437.123 384.513L436.781 400.531L436.051 435.141L435.439 464.504L391.12 482L295.257 448.58L301.563 413.558L306.657 385.278L308.93 372.617L423.908 356.758L437.123 384.513Z" fill="#2F2E41"/>
<path d="M437.123 384.512L436.78 400.531C396.101 399.486 333.049 389.667 306.657 385.279L308.93 372.618L423.907 356.758L437.123 384.512Z" fill="#3F3D56"/>
<path d="M386.242 208.073C404.489 208.073 419.282 193.28 419.282 175.032C419.282 156.784 404.489 141.991 386.242 141.991C367.995 141.991 353.203 156.784 353.203 175.032C353.203 193.28 367.995 208.073 386.242 208.073Z" fill="#FFB8B8"/>
<path d="M449.678 402.354C449.678 402.354 453.643 438.039 429.854 435.395L425.89 399.711L404.744 378.565L345.273 377.243L301.661 418.214C301.661 418.214 300.34 375.922 305.626 371.957C310.912 367.992 322.807 358.74 322.807 358.74V352.132L287.124 279.442C287.124 279.442 308.269 235.828 325.45 234.506L347.917 233.185C347.917 233.185 355.846 229.22 355.846 227.898C355.846 226.576 354.524 216.003 361.132 218.646C361.132 218.646 361.727 205.086 368.692 209.223C368.692 209.223 390.617 226.404 412.872 209.977C412.872 209.977 423.247 208.073 421.925 213.36C420.603 218.646 421.925 222.611 424.568 222.611C427.211 222.611 439.105 226.576 439.105 229.22C439.105 229.788 439.965 235.26 441.312 243.493V243.507C446.216 273.521 457.608 340.237 457.608 340.237C457.608 340.237 469.502 357.419 449.678 402.354Z" fill="#FFCF00"/>
<path d="M296.375 272.834L287.124 279.442L202.543 387.816L157.609 423.501C157.609 423.501 182.719 419.536 177.433 440.682L332.058 352.132L296.375 272.834Z" fill="#FFCF00"/>
<path d="M441.312 243.493V243.507C439.555 253.842 382.278 251.687 374.348 251.687C366.419 251.687 359.811 250.366 351.881 245.079C343.952 239.793 347.917 233.185 347.917 233.185C347.917 233.185 354.668 228.042 354.668 226.72C354.668 225.399 353.347 214.825 359.955 217.469C359.955 217.469 360.549 203.909 367.514 208.045C367.514 208.045 390.617 226.405 412.872 209.977C412.872 209.977 423.247 208.073 421.925 213.36C420.603 218.646 421.925 222.611 424.568 222.611C427.211 222.611 439.105 226.576 439.105 229.22C439.105 229.788 439.965 235.26 441.312 243.493Z" fill="#3F3D56"/>
<path d="M434.48 194.196C434.48 194.196 423.907 171.728 413.335 182.301C402.762 192.875 425.229 208.734 425.229 208.734L434.48 194.196Z" fill="#FFB8B8"/>
<path d="M434.48 188.91C434.48 188.91 418.154 209.542 413.101 211.121C413.101 211.121 427.872 269.53 446.374 285.389L456.947 339.577C456.947 339.577 501.88 321.074 491.308 290.676C491.202 290.372 491.097 290.07 490.992 289.769C482.164 264.455 469.981 240.438 454.769 218.362L434.48 188.91Z" fill="#FFCF00"/>
<path opacity="0.2" d="M425.756 250.106L458.268 339.576L446.374 285.389L425.756 250.106Z" fill="black"/>
<path d="M421.746 140.286L391.866 124.634L350.603 131.037L342.066 168.744L363.318 167.927L369.255 154.074V167.698L379.06 167.321L384.752 145.266L388.309 168.744L423.169 168.033L421.746 140.286Z" fill="#2F2E41"/>
<path d="M165.413 434.879C144.873 423.428 132.086 407.795 127.407 388.413C123.933 374.023 124.931 357.83 130.374 340.284C134.408 327.347 140.458 315.128 148.299 304.075C189.896 245.193 193.65 206.825 189.475 185.007C184.897 161.084 170.024 151.149 169.874 151.051L170.516 150.064C170.669 150.163 185.935 160.33 190.623 184.738C193.325 198.81 192.054 214.855 186.844 232.428C180.359 254.299 167.714 278.633 149.261 304.755C141.491 315.706 135.497 327.814 131.499 340.632C122.572 369.41 121.31 408.943 165.986 433.851L165.413 434.879Z" fill="#2F2E41"/>
<path d="M127.899 325.849C111.706 316.822 112.157 302.516 115.386 292.104C116.818 287.512 118.965 283.174 121.749 279.251C136.321 258.623 137.638 245.222 136.177 237.613C134.59 229.35 129.498 225.958 129.447 225.925L130.089 224.937C130.315 225.084 135.653 228.641 137.333 237.391C139.522 248.785 134.602 263.098 122.711 279.931C119.999 283.753 117.906 287.979 116.511 292.453C113.411 302.448 112.969 316.178 128.472 324.82L127.899 325.849Z" fill="#2F2E41"/>
<path d="M200.753 195.113L200.179 194.084C215.682 185.441 215.241 171.712 212.14 161.716C210.745 157.242 208.653 153.016 205.941 149.194C194.049 132.361 189.129 118.049 191.318 106.655C192.998 97.9042 198.336 94.3477 198.562 94.2008L199.205 95.1877C199.154 95.2216 194.036 98.6584 192.465 106.923C191.02 114.528 192.352 127.917 206.903 148.515C209.686 152.438 211.833 156.775 213.265 161.367C216.495 171.779 216.945 186.085 200.753 195.113Z" fill="#2F2E41"/>
<path d="M235.326 136.515C234.059 138.459 232.421 140.134 230.506 141.445C228.591 142.756 226.437 143.677 224.166 144.155C221.895 144.633 219.553 144.659 217.272 144.232C214.991 143.804 212.817 142.932 210.873 141.664C208.93 140.396 207.255 138.757 205.945 136.842C204.635 134.926 203.715 132.772 203.238 130.501C202.76 128.23 202.735 125.887 203.164 123.606C203.592 121.325 204.465 119.151 205.734 117.208C211.065 109.036 237.905 100.228 237.905 100.228C237.905 100.228 240.657 128.343 235.326 136.515Z" fill="#FFCF00"/>
<path d="M228.848 81.747C227.581 83.6911 225.943 85.3664 224.028 86.6773C222.113 87.9882 219.959 88.9091 217.688 89.3872C215.418 89.8653 213.075 89.8914 210.794 89.4639C208.513 89.0364 206.339 88.1637 204.396 86.8957C202.452 85.6277 200.778 83.9892 199.467 82.0738C198.157 80.1585 197.237 78.0037 196.76 75.7327C196.283 73.4617 196.258 71.1189 196.686 68.8381C197.114 66.5574 197.988 64.3833 199.256 62.4402C204.587 54.2683 231.427 45.4598 231.427 45.4598C231.427 45.4598 234.179 73.5751 228.848 81.747Z" fill="#FFCF00"/>
<path d="M200.374 282.396C196.229 282.403 192.206 280.999 188.965 278.415C185.724 275.831 183.459 272.222 182.542 268.18C181.625 264.137 182.111 259.904 183.92 256.174C185.729 252.445 188.752 249.442 192.494 247.66C201.386 243.422 228.057 249.625 229.188 249.891L229.903 250.06L229.584 250.721C229.078 251.767 217.089 276.386 208.196 280.623C205.754 281.79 203.081 282.396 200.374 282.396ZM201.859 247.362C198.242 247.362 195.072 247.736 193.001 248.723C188.912 250.671 185.764 254.164 184.25 258.432C182.736 262.701 182.98 267.397 184.927 271.486C186.875 275.575 190.368 278.723 194.636 280.237C198.905 281.752 203.6 281.508 207.689 279.56C215.426 275.874 226.185 254.898 228.194 250.874C224.98 250.16 211.75 247.362 201.859 247.362Z" fill="#2F2E41"/>
<path d="M164.373 120.305C166.087 121.869 167.477 123.754 168.463 125.854C169.448 127.955 170.011 130.229 170.117 132.546C170.224 134.864 169.874 137.18 169.086 139.362C168.298 141.544 167.087 143.55 165.524 145.264C163.961 146.978 162.076 148.368 159.975 149.354C157.875 150.339 155.601 150.902 153.284 151.009C150.966 151.116 148.651 150.765 146.469 149.977C144.287 149.189 142.281 147.978 140.567 146.415C133.357 139.841 128.972 111.934 128.972 111.934C128.972 111.934 157.163 113.731 164.373 120.305Z" fill="#FFCF00"/>
<path d="M123.152 194.507C126.614 197.664 128.68 202.067 128.896 206.748C129.112 211.429 127.46 216.003 124.303 219.466C121.146 222.928 116.743 224.995 112.063 225.21C107.382 225.426 102.808 223.774 99.3456 220.617C92.1359 214.043 87.751 186.135 87.751 186.135C87.751 186.135 115.942 187.933 123.152 194.507Z" fill="#FFCF00"/>
<path d="M169.356 204.914C163.46 204.914 152.185 199.33 151.667 199.072L151.01 198.744L151.473 198.174C151.869 197.686 161.228 186.22 166.492 185.08C169.104 184.514 171.835 185.01 174.082 186.457C176.329 187.905 177.909 190.185 178.475 192.798C179.04 195.411 178.545 198.141 177.097 200.388C175.65 202.635 173.369 204.216 170.757 204.781C170.296 204.875 169.826 204.919 169.356 204.914ZM152.864 198.343C155.641 199.668 166.277 204.547 170.508 203.63C172.813 203.129 174.826 201.733 176.103 199.749C177.38 197.765 177.817 195.355 177.318 193.048C176.818 190.742 175.424 188.728 173.44 187.45C171.457 186.172 169.047 185.733 166.741 186.231C162.508 187.148 154.844 195.987 152.864 198.343Z" fill="#2F2E41"/>
<path d="M106.115 444.518C107.356 442.33 109.414 440.724 111.839 440.052C114.263 439.381 116.855 439.7 119.044 440.939C121.233 442.178 122.841 444.236 123.514 446.66C124.187 449.084 123.87 451.676 122.633 453.866C120.052 458.427 105.962 464.059 105.962 464.059C105.962 464.059 103.534 449.08 106.115 444.518Z" fill="#FFCF00"/>
<path d="M75.2926 343.47C71.228 343.405 67.1731 343.056 63.1573 342.424L62.4319 342.306L62.705 341.624C62.9382 341.041 68.4719 327.313 73.1605 324.662C74.3126 324.011 75.5817 323.593 76.8954 323.432C78.209 323.271 79.5415 323.37 80.8168 323.724C82.092 324.078 83.285 324.68 84.3277 325.495C85.3704 326.311 86.2423 327.323 86.8937 328.475C87.5451 329.627 87.9632 330.897 88.1241 332.21C88.285 333.524 88.1856 334.857 87.8315 336.132C87.4774 337.407 86.8757 338.6 86.0605 339.643C85.2454 340.686 84.2329 341.558 83.0808 342.209C81.3964 343.162 78.4302 343.47 75.2926 343.47ZM64.0832 341.372C67.1282 341.813 78.7318 343.315 82.5011 341.184C84.5561 340.023 86.0654 338.092 86.697 335.817C87.3285 333.543 87.0307 331.11 85.8689 329.055C84.7071 327 82.7766 325.491 80.502 324.859C78.2274 324.227 75.7951 324.525 73.7402 325.687C69.9714 327.818 65.2751 338.535 64.0832 341.372Z" fill="#2F2E41"/>
</g>
<defs>
<clipPath id="clip0_3_3">
<rect width="638" height="482" fill="white"/>
</clipPath>
</defs>
</svg>
