<svg width="16" height="18" viewBox="0 0 16 18" fill="none" xmlns="http://www.w3.org/2000/svg">
<g clip-path="url(#clip0_63_20)">
<path d="M7.94024 9.05982C9.09952 9.05982 10.2113 8.60019 11.0311 7.78206C11.8508 6.96392 12.3113 5.85429 12.3113 4.69727C12.3113 3.54025 11.8508 2.43062 11.0311 1.61248C10.2113 0.794341 9.09952 0.334717 7.94024 0.334717C6.78095 0.334717 5.66915 0.794341 4.84941 1.61248C4.02967 2.43062 3.56915 3.54025 3.56915 4.69727C3.56915 5.85429 4.02967 6.96392 4.84941 7.78206C5.66915 8.60019 6.78095 9.05982 7.94024 9.05982ZM6.37962 10.6958C3.01593 10.6958 0.290833 13.4156 0.290833 16.7727C0.290833 17.3316 0.745016 17.7849 1.30506 17.7849H14.5754C15.1355 17.7849 15.5896 17.3316 15.5896 16.7727C15.5896 13.4156 12.8645 10.6958 9.50085 10.6958H6.37962Z" fill="black"/>
</g>
<defs>
<clipPath id="clip0_63_20">
<rect width="15.2988" height="17.4502" fill="white" transform="translate(0.290833 0.334717)"/>
</clipPath>
</defs>
</svg>
